<svg xmlns="http://www.w3.org/2000/svg" viewBox="0 0 104.27997 73.684671" height="73.685" width="104.28"><defs><clipPath id="a"><path d="M0 218.5h249.5V0H0v218.5z"/></clipPath><clipPath id="b"><path d="M221.353 119.034l-15.186-4.029c-3.412-.905-4.12-4.922-.341-8.584 3.208-3.108 7.583-3.888 9.784-1.087l7.267 11.823c.331.564.251 1.099-.077 1.467-.255.284-.649.451-1.079.451a1.73 1.73 0 0 1-.368-.041"/></clipPath><linearGradient id="c" gradientTransform="matrix(46.32758 -106.86475 -106.86475 -46.32756 178.53 194.188)" gradientUnits="userSpaceOnUse" x2="1"><stop offset="0" stop-color="#ffc63f"/><stop offset=".637" stop-color="#f58400"/><stop offset="1" stop-color="#f58400"/></linearGradient><clipPath id="d"><path d="M214.699 210.126l-2.852-1.367c-3.026-1.577-4.65-3.913-5.221-6.394-.615-2.68-.079-5.436.921-7.193 2.93-5.148 22.07-33.692 22.07-33.692.598-.883.988-2.005.972-3.064-.017-.985-.401-1.909-.887-2.667l-20.441-31.412c-.316-.519-.32-1.043-.082-1.434.275-.453.85-.694 1.561-.514l16.174 4.492c.992.293 1.787.672 2.435 1.198.541.439.973.976 1.386 1.601l15.947 25.165c1.737 2.795 1.487 5.315-.504 8.526l-28.199 45.91c-.41.61-.96 1.035-1.647 1.138a2.075 2.075 0 0 1-.317.024c-.409 0-.841-.113-1.316-.317"/></clipPath><linearGradient id="e" gradientTransform="scale(116.48511 -116.48511) rotate(66.563 2.199 .44)" gradientUnits="userSpaceOnUse" x2="1"><stop offset="0" stop-color="#ffc63f"/><stop offset=".637" stop-color="#f58400"/><stop offset="1" stop-color="#f58400"/></linearGradient><clipPath id="f"><path d="M128.993 197.471c-.569-.141-1.05-.502-1.416-1.024l-19.809-31.865c-1.993-3.209-2.241-5.729-.505-8.526l20.218-32.409c.441-.648.996-1.099 1.639-1.252.58-.139 1.203-.027 1.794.297l2.961 1.729c3.716 2.175 6.096 8.205 2.733 13.423l-11.745 18.121c-1.882 2.899-2.078 4.421-.08 7.454l11.531 17.567c1.967 3.006 2.407 5.97 1.795 8.529-.629 2.626-2.385 4.796-4.7 6.2l-2.679 1.523a2.772 2.772 0 0 1-1.207.297c-.178 0-.356-.021-.53-.064"/></clipPath><linearGradient id="g" gradientTransform="scale(116.48379 -116.48379) rotate(66.562 1.646 .077)" gradientUnits="userSpaceOnUse" x2="1"><stop offset="0" stop-color="#ffc63f"/><stop offset=".637" stop-color="#f58400"/><stop offset="1" stop-color="#f58400"/></linearGradient><clipPath id="h"><path d="M0 218.5h249.5V0H0v218.5z"/></clipPath></defs><g clip-path="url(#a)" transform="matrix(.43374 0 0 -.43374 -3.219 91.277)"><path d="M165.202 115.395c1.493 0 2.305.652 2.305 2.225 0 1.568-.747 2.269-2.275 2.267-1.62 0-2.264-.75-2.264-2.326 0-1.457.746-2.166 2.234-2.166M153.59 85.329c.009-.162.037-.311.125-.428a.766.766 0 0 1 .585-.297h2.089a.742.742 0 0 1 .572.3c.09.126.134.275.144.427v36.428a.73.73 0 0 1-.323.584.754.754 0 0 1-.75.033c-.444-.238-1.744-.957-2.023-1.12a.827.827 0 0 1-.274-.263.983.983 0 0 1-.145-.47V85.33zM163.488 85.329a.783.783 0 0 1 .136-.42.75.75 0 0 1 .591-.305h2.09a.737.737 0 0 1 .57.3c.09.126.136.27.145.427v24.527a.78.78 0 0 1-.176.46.757.757 0 0 1-.54.265h-2.089a.797.797 0 0 1-.522-.223.755.755 0 0 1-.205-.502v-24.53zM91.773 109.641a.73.73 0 0 1-.571.709c-1.53.38-4.013.877-6.689.88-7.128 0-9.079-4.169-9.079-6.929 0-3.137 2.471-5.467 5.578-6.764l2.95-1.242c2.172-.922 5.153-2.113 5.153-5.037 0-2.11-1.39-4.166-6.224-4.166-2.926 0-4.719.344-6.117.746-.478.143-.916-.254-.916-.697v-1.613a.748.748 0 0 1 .138-.426.808.808 0 0 1 .424-.279 27.085 27.085 0 0 1 6.86-.87c7.747 0 9.534 4.495 9.534 7.202 0 3.728-2.888 6.056-6.255 7.465l-2.432 1.03c-4.93 2.053-5.19 3.678-5.19 4.708 0 1.246.88 3.736 5.482 3.736 2.643 0 5.141-.492 6.55-.824.282-.068.477.008.604.133.142.144.192.353.2.51v1.728M147.17 107.282c-1.36 3.027-5.09 3.95-8.101 3.95-3.034 0-5.347-.622-7.911-1.882a1.993 1.993 0 0 1-.645-.466.891.891 0 0 1-.227-.567v-1.551c.01-.293.142-.507.336-.625a.713.713 0 0 1 .677-.035c2.185 1.217 4.632 1.987 7.15 1.987 3.214 0 5.839-1.082 5.873-4.874v-2.38h-1.652c-9.017 0-14.555-3.516-14.555-9.311 0-3.278 1.688-5.191 4.014-6.278a62.162 62.162 0 0 0 1.638 2.748c-1.2.689-2.021 1.826-2.021 3.698 0 5.625 6.842 6.385 11.218 6.385h1.327l.034-10.66c-1.685-.381-3.471-.436-5.223-.436-1.821 0-3.864.169-5.335 1.013a62.162 62.162 0 0 1-1.638-2.748c2.126-.993 4.784-1.298 7.196-1.298 2.66 0 5.287.33 7.92.812a.775.775 0 0 1 .437.272.802.802 0 0 1 .142.453v17.73c0 1.413-.103 2.76-.653 4.063M191.182 107.282c-1.36 3.027-5.09 3.95-8.101 3.95-3.034 0-5.348-.622-7.911-1.882a2.01 2.01 0 0 1-.646-.466.895.895 0 0 1-.226-.567v-1.551c.01-.293.14-.507.336-.625a.713.713 0 0 1 .677-.035c2.185 1.217 4.632 1.987 7.15 1.987 3.214 0 5.838-1.082 5.873-4.874v-2.38h-1.653c-9.016 0-14.554-3.516-14.554-9.311 0-5.691 5.066-7.287 9.779-7.535a244.958 244.958 0 0 0 1.754 2.998c-.184-.001-.368-.006-.55-.006-3.305 0-7.357.543-7.357 4.71 0 5.626 6.843 6.386 11.22 6.386h1.326l.035-10.66c-1.51-.342-3.1-.417-4.674-.43a244.958 244.958 0 0 1-1.754-2.998c.482-.025.963-.041 1.43-.041 2.66 0 5.287.33 7.92.812.195.053.34.14.437.272a.802.802 0 0 1 .143.453v17.73c0 1.413-.105 2.76-.654 4.063M48.4 85.528c-.084.292-4.042 13.529-7.397 24.206a67.964 67.964 0 0 1-2.452-3.741l2.694-9.16H28.603l6.261 21.7 3.687-12.54a67.964 67.964 0 0 0 2.452 3.74c-1.82 5.8-3.464 10.846-4.21 12.647a.736.736 0 0 1-.28.314.927.927 0 0 1-.418.117h-2.434a.77.77 0 0 1-.426-.14.84.84 0 0 1-.258-.34c-2.164-5.295-11.436-36.31-11.58-36.8-.06-.243-.03-.472.087-.642a.695.695 0 0 1 .57-.29h2.386c.201.007.355.058.471.16a.812.812 0 0 1 .216.345c.094.297 2.54 8.584 2.54 8.584h14.451l2.55-8.601a.69.69 0 0 1 .223-.334.84.84 0 0 1 .481-.151h2.31c.325.008.53.129.64.299.124.195.122.445.077.627M104.125 83.952c.81 0 1.617.049 2.413.156.448.06.88.115 1.31.248a.88.88 0 0 1 .469.352.794.794 0 0 1 .12.387v1.532a.753.753 0 0 1-.28.559.736.736 0 0 1-.604.139 15.027 15.027 0 0 0-3.162-.34c-3.311 0-4.003 1.73-4.003 4.705v15.692h6.674a.774.774 0 0 1 .523.232.73.73 0 0 1 .205.492v1.748a.736.736 0 0 1-.209.502.783.783 0 0 1-.519.223h-6.69v6.328a.733.733 0 0 1-.328.588.736.736 0 0 1-.743.029 144.26 144.26 0 0 1-2.026-1.117.856.856 0 0 1-.298-.307.948.948 0 0 1-.104-.427L96.87 91.58c0-5.09 1.844-7.63 7.255-7.63M126.901 107.545a.825.825 0 0 1 .235.525v1.905a.835.835 0 0 1-.166.476.814.814 0 0 1-.453.295c-.746.184-1.49.322-2.3.322-4.112 0-7.03-2.54-8.33-6.332v5.12a.757.757 0 0 1-.195.492.757.757 0 0 1-.529.23h-1.825a.811.811 0 0 1-.518-.19.743.743 0 0 1-.236-.532v-24.53a.73.73 0 0 1 .726-.724h2.09a.74.74 0 0 1 .715.724v12.485c0 2.761.49 5.355 2.464 7.416 1.495 1.507 3.47 2.375 5.577 2.373a8.877 8.877 0 0 0 2.097-.233c.282-.062.5.03.648.178M51.722 110.579a.731.731 0 0 1-.523-.232.79.79 0 0 1-.197-.493v-14.05c0-1.838 0-4.108.647-5.844 1.463-4.217 5.773-6.008 9.627-6.008 1.943 0 4.053.432 5.839 1.41 4.21 2.379 4.502 6.547 4.502 11.256v13.236a.783.783 0 0 1-.187.485.755.755 0 0 1-.535.238h-2.152a.763.763 0 0 1-.531-.236.766.766 0 0 1-.193-.487l.032-15.021c0-3.9-1.101-7.74-6.513-7.74-4.635 0-7.034 2.377-7.034 7.627v15.134a.803.803 0 0 1-.14.43.734.734 0 0 1-.585.295h-2.057z" fill="#3d3935"/></g><g clip-path="url(#b)" transform="matrix(.43374 0 0 -.43374 -3.219 91.277)"><path d="M221.353 119.034l-15.186-4.029c-3.412-.905-4.12-4.922-.341-8.584 3.208-3.108 7.583-3.888 9.784-1.087l7.267 11.823c.331.564.251 1.099-.077 1.467-.255.284-.649.451-1.079.451a1.73 1.73 0 0 1-.368-.041" fill="url(#c)"/></g><g clip-path="url(#d)" transform="matrix(.43374 0 0 -.43374 -3.219 91.277)"><path d="M214.699 210.126l-2.852-1.367c-3.026-1.577-4.65-3.913-5.221-6.394-.615-2.68-.079-5.436.921-7.193 2.93-5.148 22.07-33.692 22.07-33.692.598-.883.988-2.005.972-3.064-.017-.985-.401-1.909-.887-2.667l-20.441-31.412c-.316-.519-.32-1.043-.082-1.434.275-.453.85-.694 1.561-.514l16.174 4.492c.992.293 1.787.672 2.435 1.198.541.439.973.976 1.386 1.601l15.947 25.165c1.737 2.795 1.487 5.315-.504 8.526l-28.199 45.91c-.41.61-.96 1.035-1.647 1.138a2.075 2.075 0 0 1-.317.024c-.409 0-.841-.113-1.316-.317" fill="url(#e)"/></g><g clip-path="url(#f)" transform="matrix(.43374 0 0 -.43374 -3.219 91.277)"><path d="M128.993 197.471c-.569-.141-1.05-.502-1.416-1.024l-19.809-31.865c-1.993-3.209-2.241-5.729-.505-8.526l20.218-32.409c.441-.648.996-1.099 1.639-1.252.58-.139 1.203-.027 1.794.297l2.961 1.729c3.716 2.175 6.096 8.205 2.733 13.423l-11.745 18.121c-1.882 2.899-2.078 4.421-.08 7.454l11.531 17.567c1.967 3.006 2.407 5.97 1.795 8.529-.629 2.626-2.385 4.796-4.7 6.2l-2.679 1.523a2.772 2.772 0 0 1-1.207.297c-.178 0-.356-.021-.53-.064" fill="url(#g)"/></g><g clip-path="url(#h)" transform="matrix(.43374 0 0 -.43374 -3.219 91.277)"><path d="M66.736 47.807c0-2.395-.14-4.45-2.42-5.742-1.323-.76-2.645-.76-3.18-.76-2.309 0-4.448.984-5.236 3.012-.394 1.01-.424 2.222-.424 3.349v7.082c.006.09.037.184.103.256a.368.368 0 0 0 .272.119h1.805a.378.378 0 0 0 .304-.152.417.417 0 0 0 .073-.223l.005-7.336c0-1.605.17-3.855 3.153-3.855 2.731 0 2.983 2.055 2.983 3.687v7.504c.003.09.038.184.103.256a.366.366 0 0 0 .272.119h1.81a.372.372 0 0 0 .377-.375v-6.941zM44.18 47.807c0-2.395-.14-4.45-2.42-5.742-1.322-.76-2.645-.76-3.182-.76-2.307 0-4.446.984-5.235 3.012-.394 1.01-.421 2.222-.421 3.349v7.082c.003.09.036.184.1.256a.368.368 0 0 0 .274.119H35.1a.377.377 0 0 0 .305-.152.416.416 0 0 0 .072-.223l.007-7.336c0-1.605.168-3.855 3.152-3.855 2.73 0 2.983 2.055 2.983 3.687v7.504c.005.09.037.184.102.256a.368.368 0 0 0 .273.119h1.81a.376.376 0 0 0 .304-.152.392.392 0 0 0 .072-.223v-6.941z" fill="#3d3935"/><path d="M166.297 43.647a5.736 5.736 0 0 0-1.343-.148c-1.83 0-2.28.817-2.28 2.252v7.236h3.42a.407.407 0 0 1 .275.118c.064.067.1.155.106.257v1.386a.386.386 0 0 1-.38.375h-3.421v3.487a.376.376 0 0 1-.557.32l-1.796-1.087a.47.47 0 0 1-.155-.166.516.516 0 0 1-.053-.223v-11.14c0-1.661.056-3.462 1.773-4.39.984-.535 2.196-.535 2.533-.535.486 0 .917.029 1.35.084.234.029.457.059.68.129a.44.44 0 0 1 .244.184c.04.058.058.119.063.195v1.303a.392.392 0 0 1-.144.29.39.39 0 0 1-.315.073" fill="#ffab00"/><path d="M162.674 55.123v3.486a.375.375 0 0 1-.171.304.38.38 0 0 1-.386.017l-1.796-1.086a.479.479 0 0 1-.155-.166.523.523 0 0 1-.053-.225V46.314" fill="#ffab00"/><path d="M53.355 43.647a5.718 5.718 0 0 0-1.342-.148c-1.83 0-2.28.817-2.28 2.252v7.236h3.423c.1.003.199.044.27.118a.38.38 0 0 1 .109.257v1.386a.386.386 0 0 1-.379.375h-3.422v3.487a.378.378 0 0 1-.557.32l-1.796-1.087a.473.473 0 0 1-.156-.166.531.531 0 0 1-.054-.223v-11.14c0-1.661.058-3.462 1.776-4.39.984-.535 2.193-.535 2.533-.535.486 0 .916.029 1.349.084.232.029.456.059.68.129a.447.447 0 0 1 .245.184.375.375 0 0 1 .06.195v1.303a.386.386 0 0 1-.144.29.39.39 0 0 1-.316.073M72.137 47.637c0 1.94.31 3.63 1.746 4.617a3.786 3.786 0 0 0 2.224.676c.474 0 .837-.063 1.117-.141a.347.347 0 0 1 .337.092c.08.08.117.19.122.274v1.658a.476.476 0 0 1-.085.256.423.423 0 0 1-.236.152 4.805 4.805 0 0 1-1.196.158c-2.137 0-3.494-1.32-4.168-3.291v2.662a.4.4 0 0 1-.1.254.395.395 0 0 1-.278.119h-1.652a.412.412 0 0 1-.27-.097.382.382 0 0 1-.122-.276V41.996a.375.375 0 0 1 .102-.255.403.403 0 0 1 .277-.122h1.812a.384.384 0 0 1 .37.377v5.64z" fill="#3d3935"/><path d="M127.18 41.998a.39.39 0 0 1 .07-.219.393.393 0 0 1 .308-.158h1.783a.385.385 0 0 1 .372.377V54.75a.392.392 0 0 1-.09.238.392.392 0 0 1-.282.137h-1.783a.414.414 0 0 1-.272-.113.401.401 0 0 1-.105-.262V41.998zM124.195 61.182a.376.376 0 0 1-.557.32l-1.795-1.084a.478.478 0 0 1-.156-.168.49.49 0 0 1-.053-.222V41.996a.38.38 0 0 1 .377-.377h1.812a.38.38 0 0 1 .284.14.395.395 0 0 1 .088.237v19.186zM128.473 57.377c-1.097 0-1.52.506-1.52 1.547 0 1.015.48 1.465 1.466 1.465 1.068 0 1.52-.422 1.52-1.492 0-1.014-.452-1.52-1.466-1.52M154.624 41.998a.416.416 0 0 1 .07-.219.395.395 0 0 1 .307-.158h1.785a.387.387 0 0 1 .37.377V54.75a.383.383 0 0 1-.37.375h-1.785a.415.415 0 0 1-.27-.113.403.403 0 0 1-.107-.262V41.998zM155.919 57.377c-1.098 0-1.521.506-1.521 1.547 0 1.015.479 1.465 1.464 1.465 1.07 0 1.52-.422 1.52-1.492 0-1.014-.45-1.52-1.463-1.52M104.297 49.102c0-1.887-.17-4.28-1.408-5.8-.76-.9-2.168-1.997-4.955-1.997-3.83 0-5.404 2.447-5.882 3.883-.253.789-.395 1.605-.395 3.322v12.659a.354.354 0 0 0 .077.21.318.318 0 0 0 .239.108h2.04a.314.314 0 0 0 .232-.108.343.343 0 0 0 .087-.21V48.65c0-1.885.253-2.9.844-3.658.958-1.241 2.364-1.241 2.872-1.241 1.153 0 2.138.34 2.813 1.268.704.984.733 2.336.733 3.519v12.63a.348.348 0 0 0 .077.21.316.316 0 0 0 .238.108h2.069a.316.316 0 0 0 .232-.108.343.343 0 0 0 .087-.21V49.102zM118.764 41.99a.386.386 0 0 0-.372-.377h-1.813a.405.405 0 0 0-.27.115.393.393 0 0 0-.107.262v7.533c0 2.252-.928 3.574-2.815 3.574a3.193 3.193 0 0 1-1.97-.703c-1.351-1.097-1.381-2.927-1.381-4.504v-5.9a.385.385 0 0 0-.37-.377h-1.811a.411.411 0 0 0-.273.115.406.406 0 0 0-.106.262v12.76a.408.408 0 0 0 .106.261.415.415 0 0 0 .273.114h1.699a.384.384 0 0 0 .37-.375v-2.272c1.184 2.731 3.293 2.955 4.224 2.955.477 0 1.772-.056 2.872-.873 1.687-1.265 1.744-3.179 1.744-5.066V41.99zM135.145 52.563c.62 1.575 2.055 2.87 4.053 2.87 1.098 0 3.097-.337 3.773-3.011.562 1.268 1.661 3.012 4.334 3.012.563 0 2.364-.113 3.49-1.633.902-1.21.902-2.927.902-4.335V41.99a.402.402 0 0 0-.092-.24.38.38 0 0 0-.28-.137h-1.812a.409.409 0 0 0-.272.115.395.395 0 0 0-.107.262v7.533c0 1.154-.027 2.252-.927 2.982a2.754 2.754 0 0 1-1.633.565c-.563 0-1.576-.17-2.365-1.324-.703-1.04-.76-2.082-.76-3.266v-6.49a.384.384 0 0 0-.372-.377h-1.812a.406.406 0 0 0-.27.115.39.39 0 0 0-.108.262v7.138c0 2.702-.816 3.942-2.533 3.942-1.379 0-2.195-1.07-2.42-1.408-.705-1.04-.705-2.139-.705-3.35V41.99a.383.383 0 0 0-.371-.377h-1.812a.406.406 0 0 0-.272.115.389.389 0 0 0-.106.262v12.76c.005.103.04.193.106.261a.41.41 0 0 0 .272.114h1.7a.384.384 0 0 0 .37-.375l.03-2.188zM172.864 55.463c-4.024 0-6.024-3.463-6.024-7.037 0-2.984 1.492-7.117 7.291-7.117 1.11 0 2.424.133 3.402.476a.392.392 0 0 1 .181.137.402.402 0 0 1 .072.22v1.247a.4.4 0 0 1-.134.287.368.368 0 0 1-.359.07 9.108 9.108 0 0 0-2.743-.416c-3.264 0-4.838 1.803-5.092 4.223h3.524v1.717h-3.552c.028.505.282 4.193 3.462 4.193 2.14 0 3.123-1.998 3.123-3.574v-.62h-3.033v-1.716h5.024c.1.004.19.039.258.099a.391.391 0 0 1 .115.207c.103.543.115 1.096.115 1.665 0 3.349-2.196 5.939-5.63 5.939" fill="#ffab00"/><path d="M83.689 55.463c-4.026 0-6.024-3.463-6.024-7.037 0-2.984 1.491-7.117 7.291-7.117 1.109 0 2.424.133 3.4.476a.387.387 0 0 1 .183.137.4.4 0 0 1 .07.22v1.247a.39.39 0 0 1-.134.287.366.366 0 0 1-.358.07 9.1 9.1 0 0 0-2.741-.416c-3.267 0-4.84 1.803-5.093 4.223h3.7v1.717h-3.73c.03.505.283 4.193 3.463 4.193 2.14 0 3.125-1.998 3.125-3.574v-.62h-2.858v-1.716h4.848a.372.372 0 0 1 .371.306c.104.543.115 1.096.115 1.665 0 3.349-2.193 5.939-5.628 5.939" fill="#3d3935"/><path d="M191.665 61.486a.377.377 0 0 1-.386.016l-1.797-1.084a.48.48 0 0 1-.154-.168.486.486 0 0 1-.054-.223V53.38c-.506.703-1.52 2.054-3.828 2.054-2.956 0-5.771-2.447-5.771-7.037 0-3.369 1.605-6.517 4.869-6.995.108.754.204 1.513.274 2.286-1.782.606-2.552 2.858-2.552 4.598 0 4.023 2.307 4.98 3.631 4.98 2.562 0 3.49-2.87 3.49-4.812 0-.309-.141-4.926-3.604-4.926-.35 0-.67.06-.965.16a44.19 44.19 0 0 0-.274-2.286c.28-.04.568-.069.873-.069 2.675 0 3.633 1.857 4.056 2.73v-2.066a.378.378 0 0 1 .099-.256.407.407 0 0 1 .278-.12h1.614a.391.391 0 0 1 .372.377V61.18a.375.375 0 0 1-.171.305M10.169 62.58a.755.755 0 0 1-.511-.069l-.785-.446c-.677-.41-1.192-1.048-1.377-1.817-.18-.75-.051-1.619.527-2.498L11.4 52.6c.586-.889.529-1.334-.023-2.184l-3.44-5.31c-.987-1.53-.29-3.297.8-3.934l.867-.508a.73.73 0 0 1 .527-.086c.187.043.35.176.479.365l5.926 9.498c.508.82.436 1.56-.148 2.5l-5.806 9.338a.729.729 0 0 1-.414.301" fill="#ffab00"/><path d="M24.5 41.992a.407.407 0 0 0-.115-.27.374.374 0 0 0-.261-.107h-1.927a.368.368 0 0 0-.257.106.398.398 0 0 0-.119.271v19.16c.005.1.044.2.116.27a.391.391 0 0 0 .26.11h9.062a.381.381 0 0 0 .378-.377v-1.653a.378.378 0 0 0-.378-.373H24.5v-6.373h6.206a.414.414 0 0 0 .27-.116.38.38 0 0 0 .107-.259v-1.477a.39.39 0 0 0-.105-.258.408.408 0 0 0-.272-.119H24.5v-8.535z" fill="#3d3935"/></g></svg>