<?xml version="1.0" encoding="UTF-8" standalone="no"?>
<svg
   xmlns:dc="http://purl.org/dc/elements/1.1/"
   xmlns:cc="http://creativecommons.org/ns#"
   xmlns:rdf="http://www.w3.org/1999/02/22-rdf-syntax-ns#"
   xmlns:svg="http://www.w3.org/2000/svg"
   xmlns="http://www.w3.org/2000/svg"
   version="1.1"
   id="svg6317"
   viewBox="0 0 104.27997 73.700764"
   height="20.799994mm"
   width="29.430126mm">
  <defs
     id="defs6319">
    <clipPath
       id="clipPath1548"
       clipPathUnits="userSpaceOnUse">
      <path
         id="path1550"
         d="m 513.625,458.917 83.459,0 0,58.973 -83.459,0 0,-58.973 z" />
    </clipPath>
    <clipPath
       id="clipPath1526"
       clipPathUnits="userSpaceOnUse">
      <path
         id="path1528"
         d="m 555.826,513.387 c -0.197,-0.05 -0.364,-0.175 -0.491,-0.356 l 0,0 -6.876,-11.061 c -0.692,-1.115 -0.778,-1.989 -0.175,-2.96 l 0,0 7.018,-11.251 c 0.153,-0.225 0.345,-0.381 0.569,-0.433 l 0,0 c 0.201,-0.049 0.417,-0.01 0.622,0.102 l 0,0 1.028,0.601 c 1.291,0.755 2.117,2.848 0.95,4.659 l 0,0 -4.078,6.291 c -0.653,1.006 -0.721,1.534 -0.027,2.587 l 0,0 4.002,6.099 c 0.683,1.043 0.835,2.072 0.623,2.96 l 0,0 c -0.218,0.912 -0.828,1.665 -1.631,2.153 l 0,0 -0.93,0.528 c -0.137,0.067 -0.279,0.103 -0.42,0.103 l 0,0 c -0.062,0 -0.123,-0.008 -0.184,-0.022" />
    </clipPath>
    <linearGradient
       id="linearGradient1534"
       spreadMethod="pad"
       gradientTransform="matrix(16.083143,-37.09934,-14.828461,-6.4283695,561.40374,507.21388)"
       gradientUnits="userSpaceOnUse"
       y2="0"
       x2="1"
       y1="0"
       x1="0">
      <stop
         id="stop1536"
         offset="0"
         style="stop-opacity:1;stop-color:#fabc09" />
      <stop
         id="stop1538"
         offset="0.63742988"
         style="stop-opacity:1;stop-color:#f57e13" />
      <stop
         id="stop1540"
         offset="1"
         style="stop-opacity:1;stop-color:#f57e13" />
    </linearGradient>
    <clipPath
       id="clipPath1504"
       clipPathUnits="userSpaceOnUse">
      <path
         id="path1506"
         d="m 585.896,517.878 c -0.1,-0.016 -0.206,-0.05 -0.318,-0.098 l 0,0 -0.989,-0.474 c -1.052,-0.548 -1.615,-1.359 -1.813,-2.221 l 0,0 c -0.214,-0.929 -0.028,-1.886 0.32,-2.496 l 0,0 c 1.017,-1.787 7.661,-11.696 7.661,-11.696 l 0,0 c 0.207,-0.307 0.343,-0.696 0.337,-1.064 l 0,0 c -0.005,-0.342 -0.139,-0.662 -0.308,-0.925 l 0,0 -7.096,-10.905 c -0.109,-0.179 -0.11,-0.362 -0.028,-0.498 l 0,0 c 0.096,-0.156 0.295,-0.24 0.542,-0.178 l 0,0 5.615,1.56 c 0.344,0.101 0.62,0.233 0.845,0.415 l 0,0 c 0.188,0.153 0.337,0.339 0.481,0.557 l 0,0 5.535,8.735 c 0.192,0.309 0.314,0.608 0.369,0.908 l 0,0 0,0.754 c -0.071,0.407 -0.255,0.831 -0.543,1.297 l 0,0 -9.789,15.938 c -0.138,0.205 -0.322,0.35 -0.551,0.391 l 0,0 -0.27,0 z" />
    </clipPath>
    <linearGradient
       id="linearGradient1512"
       spreadMethod="pad"
       gradientTransform="matrix(16.083351,-37.09979,-17.407217,-7.5463148,589.69754,519.47952)"
       gradientUnits="userSpaceOnUse"
       y2="0"
       x2="1"
       y1="0"
       x1="0">
      <stop
         id="stop1514"
         offset="0"
         style="stop-opacity:1;stop-color:#fabc09" />
      <stop
         id="stop1516"
         offset="0.63742988"
         style="stop-opacity:1;stop-color:#f57e13" />
      <stop
         id="stop1518"
         offset="1"
         style="stop-opacity:1;stop-color:#f57e13" />
    </linearGradient>
    <clipPath
       id="clipPath1482"
       clipPathUnits="userSpaceOnUse">
      <path
         id="path1484"
         d="m 587.888,486.158 -5.271,-1.398 c -1.185,-0.314 -1.43,-1.708 -0.119,-2.98 l 0,0 c 1.114,-1.078 2.632,-1.349 3.397,-0.377 l 0,0 2.522,4.104 c 0.115,0.196 0.088,0.381 -0.027,0.509 l 0,0 c -0.088,0.098 -0.226,0.157 -0.374,0.157 l 0,0 c -0.042,0 -0.085,-0.006 -0.128,-0.015" />
    </clipPath>
    <linearGradient
       id="linearGradient1490"
       spreadMethod="pad"
       gradientTransform="matrix(16.081893,-37.096424,-8.4697963,-3.6717771,577.07325,514.00299)"
       gradientUnits="userSpaceOnUse"
       y2="0"
       x2="1"
       y1="0"
       x1="0">
      <stop
         id="stop1492"
         offset="0"
         style="stop-opacity:1;stop-color:#fabc09" />
      <stop
         id="stop1494"
         offset="0.63742988"
         style="stop-opacity:1;stop-color:#f57e13" />
      <stop
         id="stop1496"
         offset="1"
         style="stop-opacity:1;stop-color:#f57e13" />
    </linearGradient>
    <clipPath
       id="clipPath1434"
       clipPathUnits="userSpaceOnUse">
      <path
         id="path1436"
         d="m 513.625,458.917 83.459,0 0,58.973 -83.459,0 0,-58.973 z" />
    </clipPath>
  </defs>
  <metadata
     id="metadata6322">
    <rdf:RDF>
      <cc:Work
         rdf:about="">
        <dc:format>image/svg+xml</dc:format>
        <dc:type
           rdf:resource="http://purl.org/dc/dcmitype/StillImage" />
        <dc:title></dc:title>
      </cc:Work>
    </rdf:RDF>
  </metadata>
  <g
     transform="translate(-630.71716,-72.65468)"
     id="layer1">
    <g
       id="g1430"
       transform="matrix(1.25,0,0,-1.25,-11.314121,720.00218)">
      <g
         clip-path="url(#clipPath1434)"
         id="g1432">
        <g
           transform="translate(568.3962,484.8954)"
           id="g1438">
          <path
             id="path1440"
             style="fill:#4f4c4d;fill-opacity:1;fill-rule:nonzero;stroke:none"
             d="M 0,0 C 0.518,0 0.8,0.226 0.8,0.772 0.8,1.317 0.541,1.56 0.01,1.559 -0.552,1.559 -0.776,1.299 -0.776,0.752 -0.776,0.246 -0.517,0 0,0" />
        </g>
        <g
           transform="translate(564.3652,474.4583)"
           id="g1442">
          <path
             id="path1444"
             style="fill:#4f4c4d;fill-opacity:1;fill-rule:nonzero;stroke:none"
             d="m 0,0 c 0.003,-0.056 0.013,-0.108 0.043,-0.148 0.048,-0.064 0.123,-0.101 0.203,-0.104 l 0.726,0 c 0.082,0.003 0.153,0.044 0.198,0.105 0.031,0.043 0.047,0.095 0.05,0.148 l 0,12.645 C 1.217,12.73 1.175,12.805 1.108,12.849 1.036,12.896 0.941,12.904 0.848,12.86 0.694,12.777 0.242,12.528 0.145,12.472 0.105,12.447 0.073,12.416 0.05,12.38 0.02,12.331 0.002,12.274 0,12.218 L 0,0 Z" />
        </g>
        <g
           transform="translate(567.8013,474.4583)"
           id="g1446">
          <path
             id="path1448"
             style="fill:#4f4c4d;fill-opacity:1;fill-rule:nonzero;stroke:none"
             d="m 0,0 c 0.003,-0.056 0.018,-0.105 0.047,-0.146 0.047,-0.065 0.124,-0.103 0.205,-0.106 l 0.726,0 c 0.08,0.003 0.152,0.044 0.197,0.105 0.032,0.043 0.048,0.093 0.051,0.148 l 0,8.514 C 1.223,8.573 1.203,8.63 1.165,8.675 1.12,8.729 1.053,8.762 0.978,8.767 l -0.726,0 C 0.184,8.762 0.118,8.737 0.071,8.689 0.028,8.645 0.003,8.584 0,8.515 L 0,0 Z" />
        </g>
        <g
           transform="translate(542.9066,482.898)"
           id="g1450">
          <path
             id="path1452"
             style="fill:#4f4c4d;fill-opacity:1;fill-rule:nonzero;stroke:none"
             d="m 0,0 c -0.003,0.049 -0.016,0.104 -0.05,0.149 -0.032,0.044 -0.081,0.081 -0.148,0.097 -0.531,0.132 -1.393,0.305 -2.322,0.305 -2.474,0 -3.152,-1.447 -3.152,-2.405 0,-1.089 0.858,-1.897 1.937,-2.348 l 1.023,-0.431 c 0.755,-0.32 1.789,-0.733 1.789,-1.748 0,-0.733 -0.482,-1.446 -2.16,-1.446 -1.016,0 -1.638,0.119 -2.124,0.259 -0.165,0.049 -0.318,-0.089 -0.318,-0.243 l 0,-0.56 c 0.003,-0.061 0.019,-0.109 0.048,-0.147 0.039,-0.051 0.095,-0.082 0.148,-0.097 0.496,-0.131 1.332,-0.303 2.381,-0.303 2.689,0 3.309,1.561 3.309,2.501 0,1.294 -1.002,2.102 -2.171,2.591 l -0.844,0.357 c -1.712,0.714 -1.802,1.278 -1.802,1.635 0,0.433 0.305,1.297 1.903,1.297 0.918,0 1.785,-0.171 2.274,-0.286 0.098,-0.024 0.165,0.003 0.21,0.046 0.049,0.05 0.066,0.123 0.069,0.177 L 0,0" />
        </g>
        <g
           transform="translate(559.4135,473.9804)"
           id="g1454">
          <path
             id="path1456"
             style="fill:#4f4c4d;fill-opacity:1;fill-rule:nonzero;stroke:none"
             d="m 0,0 c -1.754,0 -3.891,0.452 -3.891,2.63 0,2.012 1.922,3.232 5.052,3.232 l 0.574,0 0,0.826 C 1.723,8.004 0.812,8.38 -0.304,8.38 -1.178,8.38 -2.028,8.113 -2.786,7.69 -2.861,7.653 -2.951,7.661 -3.021,7.703 -3.089,7.743 -3.134,7.818 -3.138,7.92 l 0,0.538 c 0.002,0.07 0.027,0.136 0.079,0.197 0.051,0.059 0.127,0.114 0.224,0.162 0.89,0.437 1.693,0.653 2.746,0.653 1.046,0 2.34,-0.32 2.813,-1.371 C 2.914,7.646 2.95,7.179 2.95,6.688 l 0,-6.154 C 2.947,0.474 2.934,0.419 2.901,0.376 2.867,0.331 2.816,0.3 2.749,0.282 1.835,0.115 0.924,0 0,0 m 1.724,4.905 -0.461,0 c -1.519,0 -3.894,-0.264 -3.894,-2.217 0,-1.447 1.407,-1.635 2.553,-1.635 0.609,0 1.229,0.019 1.814,0.151 L 1.724,4.905 Z" />
        </g>
        <g
           transform="translate(574.6915,473.9804)"
           id="g1458">
          <path
             id="path1460"
             style="fill:#4f4c4d;fill-opacity:1;fill-rule:nonzero;stroke:none"
             d="m 0,0 c -1.754,0 -3.891,0.452 -3.891,2.63 0,2.012 1.922,3.232 5.052,3.232 l 0.574,0 0,0.826 C 1.722,8.004 0.812,8.38 -0.304,8.38 -1.178,8.38 -2.028,8.113 -2.786,7.69 -2.862,7.653 -2.951,7.661 -3.021,7.703 -3.089,7.743 -3.134,7.818 -3.138,7.92 l 0,0.538 c 0.002,0.07 0.027,0.136 0.078,0.197 0.052,0.059 0.128,0.114 0.225,0.162 0.89,0.437 1.693,0.653 2.746,0.653 1.046,0 2.34,-0.32 2.812,-1.371 C 2.914,7.646 2.95,7.179 2.95,6.688 l 0,-6.154 C 2.947,0.474 2.933,0.419 2.9,0.376 2.867,0.331 2.816,0.3 2.749,0.282 1.835,0.115 0.923,0 0,0 m 1.722,4.905 -0.46,0 c -1.519,0 -3.895,-0.264 -3.895,-2.217 0,-1.447 1.407,-1.635 2.554,-1.635 0.608,0 1.228,0.019 1.814,0.151 L 1.722,4.905 Z" />
        </g>
        <g
           transform="translate(526.5544,474.3743)"
           id="g1462">
          <path
             id="path1464"
             style="fill:#4f4c4d;fill-opacity:1;fill-rule:nonzero;stroke:none"
             d="m 0,0 -0.885,2.986 -5.017,0 c 0,0 -0.848,-2.877 -0.881,-2.98 -0.018,-0.049 -0.041,-0.09 -0.075,-0.119 -0.04,-0.036 -0.093,-0.054 -0.163,-0.056 l -0.828,0 c -0.086,0.002 -0.156,0.039 -0.198,0.101 -0.041,0.058 -0.052,0.138 -0.031,0.223 0.05,0.17 3.269,10.936 4.02,12.774 0.024,0.053 0.054,0.091 0.09,0.118 0.045,0.034 0.099,0.046 0.148,0.048 l 0.845,0 c 0.049,-0.002 0.102,-0.014 0.145,-0.04 0.043,-0.027 0.075,-0.065 0.096,-0.109 C -1.997,11.17 1.251,0.31 1.296,0.153 1.311,0.09 1.312,0.003 1.269,-0.064 1.23,-0.123 1.16,-0.165 1.047,-0.168 l -0.802,0 C 0.181,-0.165 0.124,-0.151 0.078,-0.116 0.042,-0.087 0.017,-0.049 0,0 m -3.403,11.611 -2.173,-7.534 4.388,0 -2.215,7.534 z" />
        </g>
        <g
           transform="translate(547.1943,473.9804)"
           id="g1466">
          <path
             id="path1468"
             style="fill:#4f4c4d;fill-opacity:1;fill-rule:nonzero;stroke:none"
             d="m 0,0 c 0.281,0 0.561,0.017 0.838,0.054 0.155,0.021 0.305,0.04 0.454,0.086 0.066,0.021 0.126,0.065 0.163,0.122 0.026,0.04 0.038,0.084 0.042,0.135 l 0,0.261 0,0.271 C 1.493,1.005 1.459,1.076 1.4,1.123 1.344,1.168 1.271,1.185 1.19,1.171 0.826,1.094 0.474,1.053 0.092,1.053 c -1.149,0 -1.389,0.601 -1.389,1.633 l 0,5.447 2.316,0 C 1.086,8.137 1.154,8.164 1.201,8.214 1.244,8.258 1.27,8.317 1.272,8.385 l 0,0.607 C 1.27,9.061 1.244,9.122 1.2,9.166 1.152,9.214 1.086,9.24 1.019,9.243 l -2.322,0 0,2.197 c -0.003,0.085 -0.046,0.159 -0.114,0.204 -0.071,0.047 -0.166,0.055 -0.258,0.01 -0.155,-0.083 -0.606,-0.332 -0.703,-0.388 -0.045,-0.029 -0.08,-0.064 -0.103,-0.106 -0.025,-0.046 -0.035,-0.097 -0.036,-0.149 0,-0.097 -10e-4,-8.363 -10e-4,-8.363 C -2.518,0.881 -1.878,0 0,0" />
        </g>
        <g
           transform="translate(554.1478,482.1895)"
           id="g1470">
          <path
             id="path1472"
             style="fill:#4f4c4d;fill-opacity:1;fill-rule:nonzero;stroke:none"
             d="m 0,0 c 0.259,-0.001 0.484,-0.023 0.728,-0.081 0.098,-0.021 0.173,0.01 0.225,0.062 0.053,0.054 0.079,0.126 0.082,0.182 l 0,0.661 C 1.033,0.875 1.017,0.938 0.977,0.99 0.942,1.035 0.891,1.074 0.82,1.092 0.561,1.156 0.302,1.204 0.021,1.204 c -1.427,0 -2.44,-0.882 -2.892,-2.198 l 0,1.777 c -0.003,0.066 -0.025,0.126 -0.067,0.171 -0.046,0.049 -0.111,0.077 -0.184,0.08 l -0.633,0 C -3.83,1.031 -3.891,1.008 -3.935,0.967 -3.988,0.919 -4.015,0.852 -4.017,0.783 l 0,-8.515 c 0.002,-0.068 0.026,-0.127 0.068,-0.171 0.048,-0.051 0.114,-0.078 0.184,-0.08 l 0.726,0 c 0.075,0.002 0.143,0.038 0.189,0.092 0.037,0.045 0.057,0.101 0.059,0.159 l 0,4.334 c 0,0.959 0.17,1.859 0.855,2.574 C -1.417,-0.3 -0.732,0.001 0,0" />
        </g>
        <g
           transform="translate(529.0033,483.2235)"
           id="g1474">
          <path
             id="path1476"
             style="fill:#4f4c4d;fill-opacity:1;fill-rule:nonzero;stroke:none"
             d="m 0,0 c -0.076,-0.003 -0.139,-0.033 -0.182,-0.081 -0.043,-0.048 -0.065,-0.11 -0.068,-0.171 l 0,-4.877 c 0,-0.638 0,-1.426 0.225,-2.029 0.507,-1.463 2.004,-2.085 3.341,-2.085 0.675,0 1.408,0.15 2.027,0.489 1.462,0.826 1.563,2.273 1.563,3.908 l 0,4.594 c -0.004,0.065 -0.025,0.125 -0.065,0.169 -0.046,0.05 -0.113,0.08 -0.185,0.082 l -0.747,0 C 5.836,-0.004 5.77,-0.033 5.724,-0.083 5.682,-0.129 5.66,-0.188 5.657,-0.252 c 0,-0.143 0.011,-5.214 0.011,-5.214 0,-1.354 -0.382,-2.687 -2.26,-2.687 -1.61,0 -2.442,0.825 -2.442,2.648 l 0,5.253 C 0.963,-0.199 0.949,-0.146 0.917,-0.102 0.874,-0.042 0.803,-0.003 0.714,0 L 0,0 Z" />
        </g>
      </g>
    </g>
    <g
       id="g1478"
       transform="matrix(1.25,0,0,-1.25,-11.314121,720.00218)">
      <g
         clip-path="url(#clipPath1482)"
         id="g1480">
        <g
           id="g1486">
          <g
             id="g1488">
            <path
               id="path1498"
               style="fill:url(#linearGradient1490);stroke:none"
               d="m 587.888,486.158 -5.271,-1.398 c -1.185,-0.314 -1.43,-1.708 -0.119,-2.98 l 0,0 c 1.114,-1.078 2.632,-1.349 3.397,-0.377 l 0,0 2.522,4.104 c 0.115,0.196 0.088,0.381 -0.027,0.509 l 0,0 c -0.088,0.098 -0.226,0.157 -0.374,0.157 l 0,0 c -0.042,0 -0.085,-0.006 -0.128,-0.015" />
          </g>
        </g>
      </g>
    </g>
    <g
       id="g1500"
       transform="matrix(1.25,0,0,-1.25,-11.314121,720.00218)">
      <g
         clip-path="url(#clipPath1504)"
         id="g1502">
        <g
           id="g1508">
          <g
             id="g1510">
            <path
               id="path1520"
               style="fill:url(#linearGradient1512);stroke:none"
               d="m 585.896,517.878 c -0.1,-0.016 -0.206,-0.05 -0.318,-0.098 l 0,0 -0.989,-0.474 c -1.052,-0.548 -1.615,-1.359 -1.813,-2.221 l 0,0 c -0.214,-0.929 -0.028,-1.886 0.32,-2.496 l 0,0 c 1.017,-1.787 7.661,-11.696 7.661,-11.696 l 0,0 c 0.207,-0.307 0.343,-0.696 0.337,-1.064 l 0,0 c -0.005,-0.342 -0.139,-0.662 -0.308,-0.925 l 0,0 -7.096,-10.905 c -0.109,-0.179 -0.11,-0.362 -0.028,-0.498 l 0,0 c 0.096,-0.156 0.295,-0.24 0.542,-0.178 l 0,0 5.615,1.56 c 0.344,0.101 0.62,0.233 0.845,0.415 l 0,0 c 0.188,0.153 0.337,0.339 0.481,0.557 l 0,0 5.535,8.735 c 0.192,0.309 0.314,0.608 0.369,0.908 l 0,0 0,0.754 c -0.071,0.407 -0.255,0.831 -0.543,1.297 l 0,0 -9.789,15.938 c -0.138,0.205 -0.322,0.35 -0.551,0.391 l 0,0 -0.27,0 z" />
          </g>
        </g>
      </g>
    </g>
    <g
       id="g1522"
       transform="matrix(1.25,0,0,-1.25,-11.314121,720.00218)">
      <g
         clip-path="url(#clipPath1526)"
         id="g1524">
        <g
           id="g1530">
          <g
             id="g1532">
            <path
               id="path1542"
               style="fill:url(#linearGradient1534);stroke:none"
               d="m 555.826,513.387 c -0.197,-0.05 -0.364,-0.175 -0.491,-0.356 l 0,0 -6.876,-11.061 c -0.692,-1.115 -0.778,-1.989 -0.175,-2.96 l 0,0 7.018,-11.251 c 0.153,-0.225 0.345,-0.381 0.569,-0.433 l 0,0 c 0.201,-0.049 0.417,-0.01 0.622,0.102 l 0,0 1.028,0.601 c 1.291,0.755 2.117,2.848 0.95,4.659 l 0,0 -4.078,6.291 c -0.653,1.006 -0.721,1.534 -0.027,2.587 l 0,0 4.002,6.099 c 0.683,1.043 0.835,2.072 0.623,2.96 l 0,0 c -0.218,0.912 -0.828,1.665 -1.631,2.153 l 0,0 -0.93,0.528 c -0.137,0.067 -0.279,0.103 -0.42,0.103 l 0,0 c -0.062,0 -0.123,-0.008 -0.184,-0.022" />
          </g>
        </g>
      </g>
    </g>
    <g
       id="g1544"
       transform="matrix(1.25,0,0,-1.25,-11.314121,720.00218)">
      <g
         clip-path="url(#clipPath1548)"
         id="g1546">
        <g
           transform="translate(534.2154,461.4332)"
           id="g1552">
          <path
             id="path1554"
             style="fill:#4f4c4d;fill-opacity:1;fill-rule:nonzero;stroke:none"
             d="m 0,0 c 0,-0.831 -0.049,-1.544 -0.84,-1.993 -0.459,-0.264 -0.918,-0.264 -1.104,-0.264 -0.802,0 -1.544,0.342 -1.817,1.045 -0.137,0.352 -0.148,0.772 -0.148,1.163 l 0,2.459 c 0.002,0.031 0.013,0.063 0.036,0.088 0.023,0.025 0.055,0.04 0.094,0.042 l 0.627,0 C -3.106,2.538 -3.069,2.518 -3.047,2.487 -3.03,2.465 -3.023,2.437 -3.021,2.41 l 0.002,-2.547 c 0,-0.557 0.059,-1.338 1.094,-1.338 0.948,0 1.036,0.713 1.036,1.28 l 0,2.605 c 0.001,0.031 0.013,0.063 0.035,0.088 0.023,0.025 0.055,0.04 0.095,0.042 l 0.628,0 C -0.084,2.538 -0.047,2.518 -0.025,2.487 -0.008,2.465 -0.002,2.437 0,2.41 L 0,0 Z" />
        </g>
        <g
           transform="translate(526.3853,461.4332)"
           id="g1556">
          <path
             id="path1558"
             style="fill:#4f4c4d;fill-opacity:1;fill-rule:nonzero;stroke:none"
             d="m 0,0 c 0,-0.831 -0.048,-1.544 -0.84,-1.993 -0.459,-0.264 -0.918,-0.264 -1.105,-0.264 -0.801,0 -1.543,0.342 -1.817,1.045 -0.137,0.352 -0.146,0.772 -0.146,1.163 l 0,2.459 c 10e-4,0.031 0.013,0.063 0.035,0.088 0.023,0.025 0.055,0.04 0.095,0.042 l 0.626,0 C -3.106,2.538 -3.069,2.518 -3.046,2.487 -3.03,2.465 -3.023,2.437 -3.021,2.41 l 0.002,-2.547 c 0,-0.557 0.058,-1.338 1.095,-1.338 0.947,0 1.035,0.713 1.035,1.28 l 0,2.605 c 0.002,0.031 0.013,0.063 0.035,0.088 0.023,0.025 0.056,0.04 0.095,0.042 l 0.629,0 C -0.084,2.538 -0.048,2.518 -0.025,2.487 -0.008,2.465 -0.001,2.437 0,2.41 L 0,0 Z" />
        </g>
        <g
           transform="translate(568.7763,459.989)"
           id="g1560">
          <path
             id="path1562"
             style="fill:#f9a70d;fill-opacity:1;fill-rule:nonzero;stroke:none"
             d="m 0,0 c -0.21,-0.045 -0.331,-0.052 -0.466,-0.052 -0.635,0 -0.792,0.285 -0.792,0.783 l 0,2.511 1.188,0 C -0.035,3.244 0,3.258 0.025,3.284 0.047,3.307 0.06,3.337 0.062,3.372 l 0,0.482 C 0.06,3.89 0.047,3.922 0.024,3.944 -0.001,3.97 -0.035,3.983 -0.07,3.984 l -1.188,0 0,1.21 C -1.259,5.238 -1.281,5.277 -1.317,5.3 -1.354,5.324 -1.404,5.33 -1.451,5.305 L -2.074,4.928 C -2.098,4.912 -2.116,4.893 -2.128,4.871 -2.141,4.846 -2.146,4.82 -2.147,4.793 l 0,-3.867 c 0,-0.577 0.02,-1.202 0.616,-1.524 0.341,-0.186 0.762,-0.186 0.879,-0.186 0.169,0 0.318,0.01 0.469,0.029 0.081,0.011 0.158,0.021 0.236,0.045 0.034,0.01 0.065,0.033 0.085,0.064 0.013,0.02 0.02,0.041 0.021,0.068 l 0,0.311 0,0.141 C 0.158,-0.085 0.14,-0.049 0.109,-0.025 0.08,-0.002 0.042,0.007 0,0" />
        </g>
        <g
           transform="translate(567.5186,463.973)"
           id="g1564">
          <path
             id="path1566"
             style="fill:#f9a70d;fill-opacity:1;fill-rule:nonzero;stroke:none"
             d="M 0,0 0,1.21 C -0.002,1.254 -0.024,1.293 -0.059,1.316 -0.096,1.34 -0.146,1.346 -0.193,1.321 L -0.817,0.944 C -0.84,0.928 -0.859,0.909 -0.871,0.887 -0.883,0.862 -0.888,0.836 -0.889,0.809 l 0,-3.867" />
        </g>
        <g
           transform="translate(529.5701,459.989)"
           id="g1568">
          <path
             id="path1570"
             style="fill:#4f4c4d;fill-opacity:1;fill-rule:nonzero;stroke:none"
             d="m 0,0 c -0.208,-0.045 -0.331,-0.052 -0.466,-0.052 -0.635,0 -0.791,0.285 -0.791,0.783 l 0,2.511 1.188,0 C -0.034,3.244 0,3.258 0.025,3.284 0.048,3.307 0.061,3.337 0.062,3.372 l 0,0.482 C 0.061,3.89 0.047,3.922 0.024,3.944 0,3.97 -0.034,3.983 -0.069,3.984 l -1.188,0 0,1.21 C -1.258,5.238 -1.281,5.277 -1.316,5.3 -1.353,5.324 -1.403,5.33 -1.45,5.305 L -2.074,4.928 C -2.098,4.912 -2.115,4.893 -2.128,4.871 -2.141,4.846 -2.145,4.82 -2.147,4.793 l 0,-3.867 c 0,-0.577 0.02,-1.202 0.617,-1.524 0.341,-0.186 0.761,-0.186 0.879,-0.186 0.169,0 0.318,0.01 0.468,0.029 0.081,0.011 0.159,0.021 0.237,0.045 0.033,0.01 0.065,0.033 0.085,0.064 0.013,0.02 0.019,0.041 0.021,0.068 l 0,0.311 0,0.141 C 0.158,-0.085 0.14,-0.049 0.109,-0.025 0.08,-0.002 0.042,0.007 0,0" />
        </g>
        <g
           transform="translate(536.0901,461.3742)"
           id="g1572">
          <path
             id="path1574"
             style="fill:#4f4c4d;fill-opacity:1;fill-rule:nonzero;stroke:none"
             d="m 0,0 c 0,0.674 0.108,1.26 0.606,1.603 0.323,0.224 0.635,0.234 0.772,0.234 0.165,0 0.291,-0.021 0.388,-0.048 0.05,-0.012 0.09,0.004 0.117,0.031 0.028,0.028 0.04,0.066 0.042,0.095 l 0,0.576 C 1.924,2.517 1.916,2.553 1.896,2.58 1.877,2.604 1.851,2.623 1.814,2.633 1.679,2.667 1.544,2.688 1.399,2.688 0.657,2.688 0.186,2.229 -0.048,1.545 l 0,0.924 c -0.002,0.034 -0.014,0.065 -0.035,0.088 -0.024,0.026 -0.058,0.04 -0.096,0.042 l -0.574,0 C -0.792,2.597 -0.823,2.586 -0.846,2.565 -0.874,2.54 -0.888,2.505 -0.889,2.469 l 0,-4.427 c 0.001,-0.036 0.014,-0.066 0.035,-0.089 0.025,-0.026 0.06,-0.041 0.097,-0.042 l 0.629,0 c 0.038,10e-4 0.074,0.02 0.098,0.049 0.019,0.023 0.029,0.052 0.03,0.082 L 0,0 Z" />
        </g>
        <g
           transform="translate(555.1977,459.4168)"
           id="g1576">
          <path
             id="path1578"
             style="fill:#f9a70d;fill-opacity:1;fill-rule:nonzero;stroke:none"
             d="M 0,0 C 0.002,-0.029 0.008,-0.055 0.024,-0.076 0.049,-0.11 0.088,-0.13 0.131,-0.131 l 0.619,0 C 0.792,-0.13 0.829,-0.108 0.853,-0.077 0.87,-0.054 0.878,-0.029 0.879,0 l 0,4.427 C 0.878,4.456 0.867,4.486 0.848,4.509 0.824,4.538 0.789,4.555 0.75,4.557 l -0.619,0 C 0.095,4.555 0.061,4.542 0.037,4.517 0.014,4.494 0.002,4.463 0,4.427 L 0,0 Z" />
        </g>
        <g
           transform="translate(554.1614,466.0761)"
           id="g1580">
          <path
             id="path1582"
             style="fill:#f9a70d;fill-opacity:1;fill-rule:nonzero;stroke:none"
             d="M 0,0 C -0.002,0.044 -0.024,0.083 -0.059,0.106 -0.096,0.13 -0.147,0.136 -0.193,0.111 L -0.816,-0.265 C -0.84,-0.281 -0.859,-0.301 -0.871,-0.323 -0.883,-0.347 -0.889,-0.374 -0.889,-0.401 l 0,-6.259 c 0.001,-0.036 0.014,-0.066 0.035,-0.089 0.025,-0.026 0.06,-0.04 0.096,-0.042 l 0.629,0 c 0.04,0.002 0.075,0.02 0.098,0.049 0.019,0.023 0.03,0.052 0.031,0.082 L 0,0 Z" />
        </g>
        <g
           transform="translate(555.6462,464.7554)"
           id="g1584">
          <path
             id="path1586"
             style="fill:#f9a70d;fill-opacity:1;fill-rule:nonzero;stroke:none"
             d="m 0,0 c -0.381,0 -0.527,0.176 -0.527,0.537 0,0.352 0.166,0.508 0.508,0.508 0.371,0 0.528,-0.146 0.528,-0.518 C 0.509,0.176 0.352,0 0,0" />
        </g>
        <g
           transform="translate(564.7242,459.4168)"
           id="g1588">
          <path
             id="path1590"
             style="fill:#f9a70d;fill-opacity:1;fill-rule:nonzero;stroke:none"
             d="M 0,0 C 0.002,-0.029 0.009,-0.055 0.024,-0.076 0.049,-0.11 0.088,-0.13 0.131,-0.131 l 0.619,0 C 0.793,-0.13 0.83,-0.108 0.853,-0.077 0.87,-0.054 0.878,-0.029 0.879,0 l 0,4.427 C 0.878,4.456 0.868,4.486 0.848,4.509 0.825,4.538 0.789,4.555 0.75,4.557 l -0.619,0 C 0.096,4.555 0.062,4.542 0.037,4.517 0.015,4.494 0.002,4.463 0,4.427 L 0,0 Z" />
        </g>
        <g
           transform="translate(565.1737,464.7554)"
           id="g1592">
          <path
             id="path1594"
             style="fill:#f9a70d;fill-opacity:1;fill-rule:nonzero;stroke:none"
             d="m 0,0 c -0.381,0 -0.528,0.176 -0.528,0.537 0,0.352 0.166,0.508 0.508,0.508 0.372,0 0.528,-0.146 0.528,-0.518 C 0.508,0.176 0.352,0 0,0" />
        </g>
        <g
           transform="translate(547.254,461.8827)"
           id="g1596">
          <path
             id="path1598"
             style="fill:#f9a70d;fill-opacity:1;fill-rule:nonzero;stroke:none"
             d="m 0,0 c 0,-0.655 -0.059,-1.485 -0.489,-2.013 -0.264,-0.313 -0.752,-0.694 -1.72,-0.694 -1.329,0 -1.876,0.85 -2.042,1.348 -0.088,0.274 -0.137,0.558 -0.137,1.154 l 0,4.394 c 0.001,0.025 0.01,0.052 0.027,0.073 0.019,0.022 0.047,0.036 0.083,0.037 l 0.708,0 c 0.034,-0.001 0.062,-0.015 0.081,-0.037 0.019,-0.021 0.028,-0.048 0.03,-0.073 l 0,-4.346 c 0,-0.654 0.088,-1.006 0.293,-1.27 0.332,-0.43 0.82,-0.43 0.997,-0.43 0.4,0 0.742,0.118 0.976,0.44 0.244,0.342 0.255,0.811 0.255,1.222 l 0,4.384 c 10e-4,0.025 0.009,0.052 0.026,0.073 0.019,0.022 0.047,0.036 0.083,0.037 l 0.718,0 C -0.077,4.298 -0.049,4.284 -0.03,4.262 -0.011,4.241 -0.001,4.214 0,4.189 L 0,0 Z" />
        </g>
        <g
           transform="translate(552.2759,459.4141)"
           id="g1600">
          <path
             id="path1602"
             style="fill:#f9a70d;fill-opacity:1;fill-rule:nonzero;stroke:none"
             d="M 0,0 C -0.001,-0.03 -0.012,-0.06 -0.032,-0.083 -0.055,-0.112 -0.09,-0.129 -0.129,-0.131 l -0.629,0 c -0.036,0.002 -0.07,0.015 -0.094,0.04 -0.023,0.023 -0.036,0.055 -0.037,0.091 l 0,2.615 c 0,0.782 -0.323,1.241 -0.978,1.241 -0.126,0 -0.419,-0.029 -0.683,-0.244 C -3.019,3.231 -3.03,2.595 -3.03,2.048 L -3.03,0 c -0.001,-0.03 -0.011,-0.06 -0.031,-0.083 -0.023,-0.029 -0.058,-0.046 -0.097,-0.048 l -0.629,0 c -0.036,0.002 -0.07,0.015 -0.095,0.04 -0.022,0.023 -0.034,0.055 -0.036,0.091 l 0,4.429 c 0.002,0.036 0.014,0.067 0.036,0.091 0.025,0.025 0.059,0.037 0.095,0.04 l 0.59,0 C -3.158,4.557 -3.123,4.541 -3.1,4.512 -3.08,4.489 -3.07,4.459 -3.069,4.429 l 0,-0.788 c 0.411,0.948 1.143,1.026 1.467,1.026 0.165,0 0.615,-0.02 0.997,-0.303 C -0.02,3.924 0,3.26 0,2.605 L 0,0 Z" />
        </g>
        <g
           transform="translate(557.9626,463.0841)"
           id="g1604">
          <path
             id="path1606"
             style="fill:#f9a70d;fill-opacity:1;fill-rule:nonzero;stroke:none"
             d="m 0,0 c 0.215,0.547 0.713,0.997 1.407,0.997 0.381,0 1.075,-0.118 1.31,-1.046 0.195,0.44 0.576,1.046 1.504,1.046 0.195,0 0.821,-0.04 1.211,-0.567 0.313,-0.42 0.313,-1.016 0.313,-1.505 l 0,-2.595 C 5.744,-3.7 5.734,-3.73 5.714,-3.753 5.691,-3.782 5.656,-3.799 5.617,-3.801 l -0.629,0 c -0.037,0.002 -0.07,0.015 -0.095,0.04 -0.022,0.023 -0.035,0.055 -0.037,0.091 l 0,2.615 c 0,0.401 -0.009,0.782 -0.322,1.035 C 4.309,0.157 4.055,0.176 3.967,0.176 3.772,0.176 3.42,0.117 3.147,-0.283 2.902,-0.645 2.883,-1.006 2.883,-1.417 l 0,-2.253 C 2.881,-3.7 2.871,-3.73 2.851,-3.753 2.827,-3.782 2.793,-3.799 2.753,-3.801 l -0.628,0 c -0.036,0.002 -0.07,0.015 -0.094,0.04 -0.023,0.023 -0.036,0.055 -0.038,0.091 l 0,2.478 c 0,0.938 -0.283,1.368 -0.879,1.368 -0.479,0 -0.762,-0.371 -0.84,-0.489 C 0.029,-0.674 0.029,-1.055 0.029,-1.475 l 0,-2.195 C 0.028,-3.7 0.017,-3.73 -0.002,-3.753 -0.026,-3.782 -0.061,-3.799 -0.1,-3.801 l -0.629,0 c -0.036,0.002 -0.07,0.015 -0.094,0.04 -0.023,0.023 -0.035,0.055 -0.037,0.091 l 0,4.429 c 0.002,0.036 0.014,0.067 0.037,0.091 0.024,0.025 0.058,0.038 0.094,0.04 l 0.59,0 C -0.1,0.888 -0.064,0.871 -0.041,0.842 -0.021,0.819 -0.011,0.789 -0.01,0.759 L 0,0 Z" />
        </g>
        <g
           transform="translate(569.8736,461.3451)"
           id="g1608">
          <path
             id="path1610"
             style="fill:#f9a70d;fill-opacity:1;fill-rule:nonzero;stroke:none"
             d="m 0,0 c 0.088,-0.84 0.635,-1.466 1.768,-1.466 0.32,0 0.649,0.048 0.952,0.145 0.012,0.004 0.026,0.006 0.04,0.006 0.032,0 0.062,-0.011 0.085,-0.031 0.028,-0.024 0.044,-0.061 0.046,-0.099 l 0,-0.433 C 2.889,-1.907 2.882,-1.933 2.866,-1.955 2.85,-1.976 2.829,-1.993 2.803,-2.002 2.464,-2.121 2.007,-2.168 1.622,-2.168 c -2.013,0 -2.531,1.435 -2.531,2.471 0,1.241 0.694,2.443 2.091,2.443 1.192,0 1.955,-0.899 1.955,-2.062 C 3.137,0.487 3.133,0.295 3.097,0.106 3.091,0.078 3.077,0.054 3.057,0.035 3.033,0.014 3.002,0.001 2.967,0 L 0,0 Z m 2.276,0.596 0,0.215 C 2.276,1.358 1.935,2.052 1.192,2.052 0.088,2.052 0,0.772 -0.01,0.596 l 2.286,0 z" />
        </g>
        <g
           transform="translate(538.9177,461.3451)"
           id="g1612">
          <path
             id="path1614"
             style="fill:#4f4c4d;fill-opacity:1;fill-rule:nonzero;stroke:none"
             d="m 0,0 c 0.088,-0.84 0.634,-1.466 1.768,-1.466 0.32,0 0.649,0.048 0.951,0.145 0.013,0.004 0.027,0.006 0.04,0.006 0.033,0 0.062,-0.011 0.085,-0.031 0.029,-0.024 0.045,-0.061 0.046,-0.099 l 0,-0.433 C 2.889,-1.907 2.881,-1.933 2.866,-1.955 2.851,-1.976 2.828,-1.993 2.802,-2.002 2.464,-2.121 2.007,-2.168 1.622,-2.168 c -2.013,0 -2.531,1.435 -2.531,2.471 0,1.241 0.694,2.443 2.091,2.443 1.193,0 1.954,-0.899 1.954,-2.062 C 3.136,0.487 3.132,0.295 3.096,0.106 3.091,0.078 3.077,0.054 3.056,0.035 3.033,0.014 3.002,0.001 2.967,0 L 0,0 Z m 2.277,0.596 0,0.215 C 2.277,1.358 1.935,2.052 1.192,2.052 0.088,2.052 0,0.772 -0.01,0.596 l 2.287,0 z" />
        </g>
        <g
           transform="translate(576.7526,463.3675)"
           id="g1616">
          <path
             id="path1618"
             style="fill:#f9a70d;fill-opacity:1;fill-rule:nonzero;stroke:none"
             d="m 0,0 c -0.176,0.244 -0.528,0.713 -1.329,0.713 -1.026,0 -2.003,-0.849 -2.003,-2.443 0,-1.269 0.655,-2.452 1.993,-2.452 0.928,0 1.261,0.645 1.408,0.948 l 0,-0.717 C 0.07,-3.987 0.082,-4.017 0.103,-4.04 0.128,-4.066 0.163,-4.081 0.2,-4.082 l 0.56,0 c 0.04,10e-4 0.075,0.019 0.098,0.049 0.019,0.023 0.03,0.052 0.031,0.082 l 0,6.66 C 0.887,2.753 0.865,2.791 0.83,2.814 0.792,2.839 0.742,2.845 0.696,2.82 L 0.072,2.443 C 0.049,2.427 0.03,2.408 0.019,2.385 0.006,2.361 0,2.334 0,2.308 L 0,0 Z m -2.433,-1.768 c 0,1.396 0.801,1.729 1.261,1.729 0.889,0 1.211,-0.997 1.211,-1.671 0,-0.107 -0.049,-1.71 -1.251,-1.71 -0.859,0 -1.221,0.948 -1.221,1.652" />
        </g>
        <g
           transform="translate(514.5789,466.5616)"
           id="g1620">
          <path
             id="path1622"
             style="fill:#f9a70d;fill-opacity:1;fill-rule:nonzero;stroke:none"
             d="M 0,0 C -0.058,0.014 -0.119,0.004 -0.177,-0.024 L -0.45,-0.179 C -0.685,-0.321 -0.864,-0.542 -0.928,-0.81 -0.99,-1.07 -0.945,-1.372 -0.745,-1.677 L 0.428,-3.465 C 0.631,-3.773 0.611,-3.928 0.42,-4.223 l -1.195,-1.843 c -0.342,-0.531 -0.1,-1.145 0.278,-1.366 l 0.301,-0.176 c 0.061,-0.032 0.123,-0.045 0.183,-0.03 0.065,0.015 0.122,0.061 0.167,0.127 l 2.057,3.297 c 0.176,0.284 0.151,0.541 -0.052,0.868 L 0.144,-0.104 C 0.106,-0.052 0.058,-0.015 0,0" />
        </g>
        <g
           transform="translate(519.5537,459.4148)"
           id="g1624">
          <path
             id="path1626"
             style="fill:#4f4c4d;fill-opacity:1;fill-rule:nonzero;stroke:none"
             d="M 0,0 C -0.002,-0.035 -0.015,-0.068 -0.04,-0.094 -0.063,-0.117 -0.094,-0.13 -0.13,-0.131 l -0.669,0 C -0.835,-0.13 -0.865,-0.117 -0.888,-0.094 -0.914,-0.069 -0.929,-0.035 -0.93,0 l 0,6.651 c 0.002,0.035 0.015,0.069 0.04,0.094 0.023,0.022 0.054,0.036 0.091,0.038 l 3.145,0 C 2.381,6.78 2.415,6.767 2.44,6.742 2.463,6.719 2.476,6.688 2.477,6.652 l 0,-0.574 C 2.476,6.043 2.464,6.012 2.441,5.989 2.416,5.963 2.381,5.95 2.346,5.949 l -2.346,0 0,-2.213 2.154,0 C 2.189,3.734 2.223,3.722 2.248,3.696 2.271,3.673 2.284,3.642 2.285,3.606 l 0,-0.512 C 2.284,3.058 2.271,3.027 2.249,3.004 2.224,2.978 2.189,2.964 2.154,2.963 L 0,2.963 0,0 Z" />
        </g>
      </g>
    </g>
  </g>
</svg>
