<?xml version="1.0" encoding="UTF-8" standalone="no"?>
<!-- Created with Inkscape (http://www.inkscape.org/) -->

<svg
   xmlns:dc="http://purl.org/dc/elements/1.1/"
   xmlns:cc="http://creativecommons.org/ns#"
   xmlns:rdf="http://www.w3.org/1999/02/22-rdf-syntax-ns#"
   xmlns:svg="http://www.w3.org/2000/svg"
   xmlns="http://www.w3.org/2000/svg"
   xmlns:sodipodi="http://sodipodi.sourceforge.net/DTD/sodipodi-0.dtd"
   xmlns:inkscape="http://www.inkscape.org/namespaces/inkscape"
   width="38.519451mm"
   height="15.421839mm"
   viewBox="0 0 136.48624 54.64431"
   id="svg9078"
   version="1.1"
   inkscape:version="0.91 r13725"
   sodipodi:docname="iru-australia.svg">
  <defs
     id="defs9080">
    <clipPath
       clipPathUnits="userSpaceOnUse"
       id="clipPath7626">
      <path
         d="m 367.914,450.63 109.189,0 0,43.936 -109.189,0 0,-43.936 z"
         id="path7628"
         inkscape:connector-curvature="0" />
    </clipPath>
    <clipPath
       clipPathUnits="userSpaceOnUse"
       id="clipPath7606">
      <path
         d="m 398.746,492.944 -27.365,-27.552 c -0.82,-0.823 -0.814,-2.162 0.011,-2.98 l 0,0 c 0.825,-0.821 2.158,-0.816 2.977,0.009 l 0,0 27.366,27.554 c 0.82,0.826 0.814,2.157 -0.01,2.98 l 0,0 c -0.412,0.406 -0.949,0.609 -1.485,0.609 l 0,0 c -0.541,0 -1.082,-0.207 -1.494,-0.62"
         id="path7608"
         inkscape:connector-curvature="0" />
    </clipPath>
    <linearGradient
       x1="0"
       y1="0"
       x2="1"
       y2="0"
       gradientUnits="userSpaceOnUse"
       gradientTransform="matrix(31.576737,0,0,-31.576737,370.76969,477.68203)"
       spreadMethod="pad"
       id="linearGradient7614">
      <stop
         style="stop-opacity:1;stop-color:#ffffff"
         offset="0"
         id="stop7616" />
      <stop
         style="stop-opacity:1;stop-color:#c8c7c7"
         offset="1"
         id="stop7618" />
    </linearGradient>
    <clipPath
       clipPathUnits="userSpaceOnUse"
       id="clipPath7586">
      <path
         d="m 398.207,480.424 -17.691,-17.81 c -0.819,-0.828 -0.815,-2.163 0.011,-2.98 l 0,0 c 0.824,-0.823 2.16,-0.816 2.98,0.01 l 0,0 17.691,17.81 c 0.819,0.825 0.814,2.164 -0.011,2.982 l 0,0 c -0.412,0.407 -0.949,0.61 -1.486,0.61 l 0,0 c -0.542,0 -1.083,-0.207 -1.494,-0.622"
         id="path7588"
         inkscape:connector-curvature="0" />
    </clipPath>
    <linearGradient
       x1="0"
       y1="0"
       x2="1"
       y2="0"
       gradientUnits="userSpaceOnUse"
       gradientTransform="matrix(21.904223,0,0,-21.904223,379.90469,470.03364)"
       spreadMethod="pad"
       id="linearGradient7594">
      <stop
         style="stop-opacity:1;stop-color:#ffffff"
         offset="0"
         id="stop7596" />
      <stop
         style="stop-opacity:1;stop-color:#c8c7c7"
         offset="1"
         id="stop7598" />
    </linearGradient>
    <clipPath
       clipPathUnits="userSpaceOnUse"
       id="clipPath7566">
      <path
         d="m 401.993,472.254 -17.69,-17.813 c -0.82,-0.827 -0.816,-2.16 0.011,-2.979 l 0,0 c 0.825,-0.819 2.159,-0.816 2.979,0.012 l 0,0 17.689,17.81 c 0.821,0.823 0.816,2.157 -0.009,2.979 l 0,0 c -0.41,0.407 -0.948,0.611 -1.485,0.611 l 0,0 c -0.542,0 -1.083,-0.207 -1.495,-0.62"
         id="path7568"
         inkscape:connector-curvature="0" />
    </clipPath>
    <linearGradient
       x1="0"
       y1="0"
       x2="1"
       y2="0"
       gradientUnits="userSpaceOnUse"
       gradientTransform="matrix(21.904223,0,0,-21.904223,383.69072,461.86216)"
       spreadMethod="pad"
       id="linearGradient7574">
      <stop
         style="stop-opacity:1;stop-color:#ffffff"
         offset="0"
         id="stop7576" />
      <stop
         style="stop-opacity:1;stop-color:#c8c7c7"
         offset="1"
         id="stop7578" />
    </linearGradient>
    <clipPath
       clipPathUnits="userSpaceOnUse"
       id="clipPath7546">
      <path
         d="m 386.216,492.284 -17.691,-17.817 c -0.398,-0.4 -0.602,-0.921 -0.611,-1.444 l 0,0 0,-0.075 c 0.009,-0.528 0.217,-1.054 0.622,-1.456 l 0,0 c 0.825,-0.821 2.159,-0.816 2.98,0.007 l 0,0 17.69,17.816 c 0.819,0.822 0.815,2.156 -0.01,2.976 l 0,0 c -0.411,0.408 -0.949,0.612 -1.486,0.612 l 0,0 c -0.541,0 -1.083,-0.207 -1.494,-0.619"
         id="path7548"
         inkscape:connector-curvature="0" />
    </clipPath>
    <linearGradient
       x1="0"
       y1="0"
       x2="1"
       y2="0"
       gradientUnits="userSpaceOnUse"
       gradientTransform="matrix(21.90455,0,0,-21.90455,367.91339,481.89112)"
       spreadMethod="pad"
       id="linearGradient7554">
      <stop
         style="stop-opacity:1;stop-color:#ffffff"
         offset="0"
         id="stop7556" />
      <stop
         style="stop-opacity:1;stop-color:#c8c7c7"
         offset="1"
         id="stop7558" />
    </linearGradient>
    <clipPath
       clipPathUnits="userSpaceOnUse"
       id="clipPath7422">
      <path
         d="m 367.914,450.63 109.189,0 0,43.936 -109.189,0 0,-43.936 z"
         id="path7424"
         inkscape:connector-curvature="0" />
    </clipPath>
  </defs>
  <sodipodi:namedview
     id="base"
     pagecolor="#ffffff"
     bordercolor="#666666"
     borderopacity="1.0"
     inkscape:pageopacity="0.0"
     inkscape:pageshadow="2"
     inkscape:zoom="3.959798"
     inkscape:cx="63.25068"
     inkscape:cy="-49.903854"
     inkscape:document-units="px"
     inkscape:current-layer="text7642"
     showgrid="false"
     fit-margin-top="0"
     fit-margin-left="0"
     fit-margin-right="0"
     fit-margin-bottom="0" />
  <metadata
     id="metadata9083">
    <rdf:RDF>
      <cc:Work
         rdf:about="">
        <dc:format>image/svg+xml</dc:format>
        <dc:type
           rdf:resource="http://purl.org/dc/dcmitype/StillImage" />
        <dc:title></dc:title>
      </cc:Work>
    </rdf:RDF>
  </metadata>
  <g
     inkscape:label="Layer 1"
     inkscape:groupmode="layer"
     id="layer1"
     transform="translate(86.10027,-505.04004)">
    <g
       id="g7414"
       transform="matrix(1.25,0,0,-1.25,-27.882268,508.32019)">
      <path
         d="m 0,0 -1.045,0 0,0.824 3.159,0 0,-0.824 -0.993,0 -0.052,-7.488 1.045,0 0,-0.821 -3.159,0 0,0.821 0.993,0 L 0,0 Z"
         style="fill:#231f20;fill-opacity:1;fill-rule:nonzero;stroke:none"
         id="path7416"
         inkscape:connector-curvature="0" />
    </g>
    <g
       transform="matrix(1.25,0,0,-1.25,-545.99277,1123.2473)"
       id="g7418">
      <g
         id="g7420"
         clip-path="url(#clipPath7422)">
        <g
           id="g7426"
           transform="translate(421.4736,484.4535)">
          <path
             d="m 0,0 0.862,0 c 0,1.044 0.051,2.14 0.051,3.223 0,0.653 -0.026,1.958 -1.527,1.958 -0.951,0 -1.995,-0.576 -1.995,-2.402 L -2.635,0 l 0.978,0 0,-0.821 -2.922,0 0,0.821 0.86,0 0.053,5.088 -1.083,0 0,0.824 2.151,0 c 0,-0.262 -0.011,-0.628 -0.037,-0.81 l -0.104,-0.678 0.026,0 c 0.285,1.018 1.37,1.645 2.387,1.645 1.852,0 2.31,-1.255 2.31,-2.532 C 1.984,2.388 1.931,1.044 1.931,0 l 0.991,0 0,-0.821 L 0,-0.821 0,0 Z"
             style="fill:#231f20;fill-opacity:1;fill-rule:nonzero;stroke:none"
             id="path7428"
             inkscape:connector-curvature="0" />
        </g>
        <g
           id="g7430"
           transform="translate(429.2156,484.4535)">
          <path
             d="m 0,0 0.861,0 c 0,1.044 0.052,2.14 0.052,3.223 0,0.653 -0.026,1.958 -1.526,1.958 -0.952,0 -1.996,-0.576 -1.996,-2.402 L -2.635,0 l 0.979,0 0,-0.821 -2.922,0 0,0.821 0.86,0 0.052,5.088 -1.082,0 0,0.824 2.151,0 c 0,-0.262 -0.012,-0.628 -0.038,-0.81 l -0.103,-0.678 0.025,0 c 0.286,1.018 1.371,1.645 2.387,1.645 1.852,0 2.31,-1.255 2.31,-2.532 C 1.984,2.388 1.933,1.044 1.933,0 l 0.989,0 0,-0.821 L 0,-0.821 0,0 Z"
             style="fill:#231f20;fill-opacity:1;fill-rule:nonzero;stroke:none"
             id="path7432"
             inkscape:connector-curvature="0" />
        </g>
        <g
           id="g7434"
           transform="translate(435.2664,484.3632)">
          <path
             d="M 0,0 C 1.436,0 2.14,1.174 2.14,2.635 2.14,4.096 1.436,5.271 0,5.271 -1.435,5.271 -2.139,4.096 -2.139,2.635 -2.139,1.174 -1.435,0 0,0 m 0,6.159 c 2.049,0 3.262,-1.411 3.262,-3.341 0,-2.14 -1.213,-3.706 -3.262,-3.706 -2.048,0 -3.261,1.408 -3.261,3.34 0,2.14 1.213,3.707 3.261,3.707"
             style="fill:#231f20;fill-opacity:1;fill-rule:nonzero;stroke:none"
             id="path7436"
             inkscape:connector-curvature="0" />
        </g>
        <g
           id="g7438"
           transform="translate(438.207,490.3654)">
          <path
             d="m 0,0 2.765,0 0,-0.824 -0.807,0 1.551,-4.319 C 3.575,-5.324 3.614,-5.52 3.654,-5.715 l 0.024,0 c 0.04,0.195 0.08,0.391 0.145,0.572 l 1.592,4.319 -0.875,0 0,0.824 2.687,0 0,-0.824 -0.743,0 -2.323,-5.909 -1.069,0 L 0.756,-0.824 0,-0.824 0,0 Z"
             style="fill:#231f20;fill-opacity:1;fill-rule:nonzero;stroke:none"
             id="path7440"
             inkscape:connector-curvature="0" />
        </g>
        <g
           id="g7442"
           transform="translate(449.6824,486.7246)">
          <path
             d="m 0,0 c -1.592,0 -3.197,0 -3.197,-1.266 0,-0.757 0.574,-1.162 1.265,-1.162 C -1.2,-2.428 0,-2.023 0,0 m -3.04,1.657 -0.966,0 0,1.617 c 0.744,0.3 1.541,0.524 2.362,0.524 1.735,0 2.663,-0.642 2.663,-2.43 0,-0.586 -0.08,-2.425 -0.08,-3.639 l 0.966,0 0,-0.821 -1.931,0 0,0.273 c 0,0.391 0.078,0.926 0.13,1.186 l -0.026,0 C -0.327,-2.714 -0.991,-3.25 -2.18,-3.25 c -0.768,0 -2.086,0.289 -2.086,1.933 0,1.878 2.009,2.06 4.266,2.06 l 0,0.483 c 0,1.266 -0.482,1.747 -1.54,1.747 -0.379,0 -1.019,-0.063 -1.5,-0.273 l 0,-1.043 z"
             style="fill:#231f20;fill-opacity:1;fill-rule:nonzero;stroke:none"
             id="path7444"
             inkscape:connector-curvature="0" />
        </g>
        <g
           id="g7446"
           transform="translate(451.1609,490.3654)">
          <path
             d="M 0,0 1.084,0 1.134,1.644 2.206,1.707 2.153,0 l 2.115,0 0,-0.824 -2.128,0 C 2.114,-1.945 2.087,-3.08 2.087,-4.203 c 0,-0.964 0,-1.799 1.031,-1.799 0.549,0 1.045,0.156 1.331,0.273 L 4.409,-6.577 C 4.071,-6.747 3.445,-6.89 2.898,-6.89 c -1.879,0 -1.879,1.344 -1.879,2.204 0,0.822 0.039,2.883 0.051,3.862 L 0,-0.824 0,0 Z"
             style="fill:#231f20;fill-opacity:1;fill-rule:nonzero;stroke:none"
             id="path7448"
             inkscape:connector-curvature="0" />
        </g>
        <g
           id="g7450"
           transform="translate(457.0812,493.6652)">
          <path
             d="m 0,0 c 0.444,0 0.81,-0.366 0.81,-0.809 0,-0.444 -0.366,-0.808 -0.81,-0.808 -0.444,0 -0.808,0.364 -0.808,0.808 C -0.808,-0.366 -0.444,0 0,0 m -0.405,-4.124 -1.226,0 0,0.824 2.297,0 -0.053,-5.912 1.07,0 0,-0.821 -3.21,0 0,0.821 1.072,0 0.05,5.088 z"
             style="fill:#231f20;fill-opacity:1;fill-rule:nonzero;stroke:none"
             id="path7452"
             inkscape:connector-curvature="0" />
        </g>
        <g
           id="g7454"
           transform="translate(458.1353,490.3654)">
          <path
             d="m 0,0 2.767,0 0,-0.824 -0.81,0 1.553,-4.319 C 3.577,-5.324 3.614,-5.52 3.654,-5.715 l 0.025,0 c 0.04,0.195 0.079,0.391 0.144,0.572 l 1.593,4.319 -0.874,0 0,0.824 2.687,0 0,-0.824 -0.743,0 -2.323,-5.909 -1.069,0 L 0.758,-0.824 0,-0.824 0,0 Z"
             style="fill:#231f20;fill-opacity:1;fill-rule:nonzero;stroke:none"
             id="path7456"
             inkscape:connector-curvature="0" />
        </g>
        <g
           id="g7458"
           transform="translate(469.9413,487.7271)">
          <path
             d="M 0,0 C 0,1.058 -0.665,1.971 -1.788,1.971 -2.935,1.971 -3.718,1.112 -3.784,0 L 0,0 Z m -3.784,-0.822 c 0.04,-1.381 0.64,-2.542 2.558,-2.542 0.729,0 1.461,0.22 2.022,0.508 L 0.758,-3.782 c -0.497,-0.249 -1.54,-0.47 -2.219,-0.47 -2.128,0 -3.445,1.161 -3.445,3.51 0,1.983 1.069,3.537 3.118,3.537 2.662,0 2.91,-2.415 2.91,-3.617 l -4.906,0 z"
             style="fill:#231f20;fill-opacity:1;fill-rule:nonzero;stroke:none"
             id="path7460"
             inkscape:connector-curvature="0" />
        </g>
        <g
           id="g7462"
           transform="translate(415.5836,477.1632)">
          <path
             d="m 0,0 1.084,0 c 1.161,0 2.06,0.51 2.06,1.814 0,1.33 -0.951,1.631 -2.152,1.631 l -0.966,0 L 0,0 Z m -2.141,4.267 3.055,0 c 1.642,0 3.353,-0.248 3.353,-2.35 0,-1.513 -1.057,-2.348 -2.14,-2.466 l 0,-0.027 c 0.326,-0.011 0.744,-0.286 1.175,-1.029 l 0.77,-1.331 c 0.573,-0.953 0.651,-1.109 1.187,-1.109 l 0.404,0 0,-0.822 -0.535,0 c -0.94,0 -1.213,0.104 -1.709,0.875 l -0.874,1.5 c -0.81,1.384 -1.018,1.67 -1.827,1.67 l -0.718,0 -0.026,-3.223 1.057,0 0,-0.822 -3.172,0 0,0.822 0.993,0 0.053,7.49 -1.046,0 0,0.822 z"
             style="fill:#231f20;fill-opacity:1;fill-rule:nonzero;stroke:none"
             id="path7464"
             inkscape:connector-curvature="0" />
        </g>
        <g
           id="g7466"
           transform="translate(425.8108,476.3937)">
          <path
             d="M 0,0 C 0,1.057 -0.666,1.969 -1.788,1.969 -2.936,1.969 -3.719,1.109 -3.784,0 L 0,0 Z m -3.784,-0.823 c 0.039,-1.381 0.639,-2.544 2.557,-2.544 0.731,0 1.461,0.221 2.022,0.509 L 0.756,-3.784 c -0.497,-0.249 -1.54,-0.471 -2.217,-0.471 -2.127,0 -3.444,1.162 -3.444,3.51 0,1.984 1.069,3.538 3.117,3.538 2.661,0 2.909,-2.414 2.909,-3.616 l -4.905,0 z"
             style="fill:#231f20;fill-opacity:1;fill-rule:nonzero;stroke:none"
             id="path7468"
             inkscape:connector-curvature="0" />
        </g>
        <g
           id="g7470"
           transform="translate(432.0764,477.1632)">
          <path
             d="M 0,0 -0.965,0 -1.018,0.952 C -1.266,1.162 -1.893,1.2 -2.205,1.2 c -0.679,0 -1.552,-0.222 -1.552,-1.03 0,-0.731 0.651,-0.952 1.644,-1.122 1.709,-0.288 2.426,-0.81 2.426,-1.918 0,-1.2 -0.809,-2.154 -2.752,-2.154 -0.732,0 -1.893,0.184 -2.311,0.406 l -0.051,1.721 0.965,0 0.053,-1.003 c 0.404,-0.196 1.082,-0.302 1.526,-0.302 0.704,0 1.551,0.302 1.551,1.122 0,0.667 -0.689,0.902 -1.421,1.058 -1.8,0.39 -2.701,0.705 -2.701,2.022 0,1.084 0.718,2.023 2.65,2.023 0.559,0 1.605,-0.183 2.125,-0.405 L 0,0 Z"
             style="fill:#231f20;fill-opacity:1;fill-rule:nonzero;stroke:none"
             id="path7472"
             inkscape:connector-curvature="0" />
        </g>
        <g
           id="g7474"
           transform="translate(437.5485,476.3937)">
          <path
             d="M 0,0 C 0,1.057 -0.665,1.969 -1.786,1.969 -2.936,1.969 -3.718,1.109 -3.783,0 L 0,0 Z m -3.783,-0.823 c 0.039,-1.381 0.64,-2.544 2.557,-2.544 0.731,0 1.461,0.221 2.022,0.509 L 0.758,-3.784 c -0.495,-0.249 -1.541,-0.471 -2.219,-0.471 -2.126,0 -3.444,1.162 -3.444,3.51 0,1.984 1.069,3.538 3.119,3.538 2.662,0 2.908,-2.414 2.908,-3.616 l -4.905,0 z"
             style="fill:#231f20;fill-opacity:1;fill-rule:nonzero;stroke:none"
             id="path7476"
             inkscape:connector-curvature="0" />
        </g>
        <g
           id="g7478"
           transform="translate(443.2239,475.3886)">
          <path
             d="m 0,0 c -1.592,0 -3.196,0 -3.196,-1.266 0,-0.756 0.575,-1.162 1.266,-1.162 C -1.201,-2.428 0,-2.022 0,0 m -3.04,1.656 -0.966,0 0,1.62 c 0.744,0.299 1.539,0.522 2.362,0.522 1.735,0 2.662,-0.64 2.662,-2.43 0,-0.585 -0.08,-2.424 -0.08,-3.639 l 0.967,0 0,-0.821 -1.931,0 0,0.273 c 0,0.391 0.078,0.926 0.131,1.189 l -0.027,0 c -0.404,-1.084 -1.07,-1.62 -2.258,-1.62 -0.769,0 -2.087,0.288 -2.087,1.933 0,1.878 2.009,2.061 4.267,2.061 l 0,0.482 c 0,1.266 -0.483,1.749 -1.54,1.749 -0.378,0 -1.017,-0.065 -1.5,-0.274 l 0,-1.045 z"
             style="fill:#231f20;fill-opacity:1;fill-rule:nonzero;stroke:none"
             id="path7480"
             inkscape:connector-curvature="0" />
        </g>
        <g
           id="g7482"
           transform="translate(446.3224,478.2065)">
          <path
             d="m 0,0 -1.15,0 0,0.822 2.219,0 0,-0.364 C 1.069,0.065 0.992,-0.73 0.926,-1.28 l 0.039,0 c 0.261,0.994 0.613,2.221 2.283,2.221 0.092,0 0.626,-0.054 0.68,-0.106 L 3.823,-0.129 c -0.183,0.064 -0.47,0.104 -0.731,0.104 -1.383,0 -1.997,-1.357 -2.023,-2.544 l -0.052,-2.52 1.137,0 0,-0.821 -3.16,0 0,0.821 0.953,0 L 0,0 Z"
             style="fill:#231f20;fill-opacity:1;fill-rule:nonzero;stroke:none"
             id="path7484"
             inkscape:connector-curvature="0" />
        </g>
        <g
           id="g7486"
           transform="translate(455.2771,472.4666)">
          <path
             d="m 0,0 c -0.521,-0.158 -1.201,-0.328 -1.944,-0.328 -2.662,0 -3.509,1.764 -3.509,3.525 0,2.569 1.865,3.523 3.365,3.523 0.744,0 1.487,-0.093 2.179,-0.34 l 0,-1.761 -0.965,0 0,1.055 c -0.288,0.106 -0.821,0.158 -1.123,0.158 -1.944,0 -2.335,-1.541 -2.335,-2.635 0,-0.365 0.051,-2.636 2.558,-2.636 0.665,0 1.201,0.183 1.825,0.378 L 0,0 Z"
             style="fill:#231f20;fill-opacity:1;fill-rule:nonzero;stroke:none"
             id="path7488"
             inkscape:connector-curvature="0" />
        </g>
        <g
           id="g7490"
           transform="translate(456.6065,481.5088)">
          <path
             d="m 0,0 -1.304,0 0,0.821 2.375,0 -0.014,-3.536 c 0,-0.299 -0.077,-0.964 -0.129,-1.251 l 0.025,0 c 0.287,1.016 1.37,1.644 2.387,1.644 1.854,0 2.311,-1.254 2.311,-2.532 0,-1.148 -0.053,-2.492 -0.053,-3.537 l 0.991,0 0,-0.821 -2.922,0 0,0.821 0.86,0 c 0,1.045 0.054,2.141 0.054,3.224 0,0.653 -0.026,1.957 -1.526,1.957 -0.953,0 -1.998,-0.576 -1.998,-2.401 l -0.04,-2.78 0.993,0 0,-0.821 -3.027,0 0,0.821 0.966,0 L 0,0 Z"
             style="fill:#231f20;fill-opacity:1;fill-rule:nonzero;stroke:none"
             id="path7492"
             inkscape:connector-curvature="0" />
        </g>
        <g
           id="g7494"
           transform="translate(416.4196,469.2724)">
          <path
             d="m 0,0 -0.979,0 c -0.014,-1.279 -0.027,-2.545 -0.027,-4.683 0,-1.135 0.078,-1.775 0.457,-2.243 0.365,-0.458 1.031,-0.655 1.97,-0.655 0.913,0 1.619,0.222 2.035,0.771 0.378,0.495 0.393,1.279 0.407,2.518 L 3.887,0 2.753,0 l 0,0.822 3.157,0 L 5.91,0 4.906,0 4.88,-4.945 c 0,-1.043 -0.118,-1.801 -0.719,-2.53 -0.521,-0.64 -1.487,-0.994 -2.778,-0.994 -1.592,0 -2.466,0.407 -3.002,1.136 -0.43,0.587 -0.508,1.228 -0.508,2.754 0,1.487 0.013,3.183 0.026,4.579 l -1.056,0 0,0.822 L 0,0.822 0,0 Z"
             style="fill:#231f20;fill-opacity:1;fill-rule:nonzero;stroke:none"
             id="path7496"
             inkscape:connector-curvature="0" />
        </g>
        <g
           id="g7498"
           transform="translate(426.7004,461.784)">
          <path
             d="m 0,0 0.859,0 c 0,1.043 0.054,2.139 0.054,3.222 0,0.653 -0.026,1.957 -1.527,1.957 -0.953,0 -1.997,-0.574 -1.997,-2.401 L -2.635,0 l 0.977,0 0,-0.823 -2.922,0 0,0.823 0.861,0 0.051,5.088 -1.082,0 0,0.821 2.154,0 c 0,-0.26 -0.015,-0.626 -0.039,-0.808 l -0.105,-0.678 0.025,0 c 0.287,1.018 1.371,1.643 2.387,1.643 1.853,0 2.311,-1.253 2.311,-2.531 C 1.983,2.387 1.93,1.043 1.93,0 l 0.992,0 0,-0.823 L 0,-0.823 0,0 Z"
             style="fill:#231f20;fill-opacity:1;fill-rule:nonzero;stroke:none"
             id="path7500"
             inkscape:connector-curvature="0" />
        </g>
        <g
           id="g7502"
           transform="translate(431.2852,470.9947)">
          <path
             d="m 0,0 c 0.444,0 0.81,-0.366 0.81,-0.81 0,-0.442 -0.366,-0.807 -0.81,-0.807 -0.444,0 -0.808,0.365 -0.808,0.807 C -0.808,-0.366 -0.444,0 0,0 m -0.404,-4.123 -1.227,0 0,0.821 2.297,0 -0.052,-5.909 1.069,0 0,-0.823 -3.209,0 0,0.823 1.07,0 0.052,5.088 z"
             style="fill:#231f20;fill-opacity:1;fill-rule:nonzero;stroke:none"
             id="path7504"
             inkscape:connector-curvature="0" />
        </g>
        <g
           id="g7506"
           transform="translate(432.3389,467.6927)">
          <path
             d="m 0,0 2.768,0 0,-0.821 -0.81,0 1.552,-4.319 c 0.066,-0.182 0.105,-0.377 0.144,-0.573 l 0.026,0 c 0.039,0.196 0.078,0.391 0.144,0.573 l 1.593,4.319 -0.875,0 0,0.821 2.687,0 0,-0.821 -0.743,0 -2.323,-5.911 -1.069,0 L 0.758,-0.821 0,-0.821 0,0 Z"
             style="fill:#231f20;fill-opacity:1;fill-rule:nonzero;stroke:none"
             id="path7508"
             inkscape:connector-curvature="0" />
        </g>
        <g
           id="g7510"
           transform="translate(444.1453,465.0579)">
          <path
             d="M 0,0 C 0,1.058 -0.664,1.971 -1.786,1.971 -2.935,1.971 -3.719,1.11 -3.784,0 L 0,0 Z m -3.784,-0.822 c 0.041,-1.382 0.64,-2.544 2.558,-2.544 0.732,0 1.461,0.222 2.023,0.509 L 0.758,-3.784 c -0.496,-0.247 -1.54,-0.471 -2.219,-0.471 -2.125,0 -3.445,1.163 -3.445,3.51 0,1.984 1.071,3.537 3.12,3.537 2.661,0 2.908,-2.413 2.908,-3.614 l -4.906,0 z"
             style="fill:#231f20;fill-opacity:1;fill-rule:nonzero;stroke:none"
             id="path7512"
             inkscape:connector-curvature="0" />
        </g>
        <g
           id="g7514"
           transform="translate(446.3476,466.8721)">
          <path
             d="m 0,0 -1.149,0 0,0.821 2.219,0 0,-0.364 C 1.07,0.065 0.992,-0.73 0.927,-1.28 l 0.038,0 c 0.262,0.993 0.613,2.219 2.284,2.219 0.092,0 0.626,-0.051 0.679,-0.104 L 3.823,-0.13 C 3.64,-0.066 3.352,-0.026 3.093,-0.026 1.71,-0.026 1.096,-1.383 1.07,-2.57 l -0.052,-2.518 1.134,0 0,-0.823 -3.157,0 0,0.823 0.953,0 L 0,0 Z"
             style="fill:#231f20;fill-opacity:1;fill-rule:nonzero;stroke:none"
             id="path7516"
             inkscape:connector-curvature="0" />
        </g>
        <g
           id="g7518"
           transform="translate(454.9809,465.8287)">
          <path
             d="M 0,0 -0.965,0 -1.018,0.951 C -1.266,1.161 -1.893,1.2 -2.205,1.2 c -0.679,0 -1.553,-0.222 -1.553,-1.031 0,-0.73 0.652,-0.953 1.644,-1.122 1.71,-0.286 2.428,-0.809 2.428,-1.919 0,-1.199 -0.81,-2.153 -2.755,-2.153 -0.73,0 -1.891,0.183 -2.309,0.407 l -0.051,1.72 0.965,0 0.053,-1.003 c 0.403,-0.197 1.082,-0.3 1.525,-0.3 0.705,0 1.553,0.3 1.553,1.121 0,0.666 -0.692,0.901 -1.421,1.056 -1.802,0.392 -2.702,0.706 -2.702,2.024 0,1.084 0.718,2.022 2.65,2.022 0.559,0 1.604,-0.183 2.125,-0.405 L 0,0 Z"
             style="fill:#231f20;fill-opacity:1;fill-rule:nonzero;stroke:none"
             id="path7520"
             inkscape:connector-curvature="0" />
        </g>
        <g
           id="g7522"
           transform="translate(456.9331,470.9947)">
          <path
             d="m 0,0 c 0.444,0 0.81,-0.366 0.81,-0.81 0,-0.442 -0.366,-0.807 -0.81,-0.807 -0.443,0 -0.808,0.365 -0.808,0.807 C -0.808,-0.366 -0.443,0 0,0 m -0.404,-4.123 -1.227,0 0,0.821 2.297,0 -0.052,-5.909 1.069,0 0,-0.823 -3.209,0 0,0.823 1.071,0 0.051,5.088 z"
             style="fill:#231f20;fill-opacity:1;fill-rule:nonzero;stroke:none"
             id="path7524"
             inkscape:connector-curvature="0" />
        </g>
        <g
           id="g7526"
           transform="translate(458.1689,467.6927)">
          <path
             d="M 0,0 1.083,0 1.135,1.646 2.206,1.711 2.152,0 l 2.115,0 0,-0.821 -2.128,0 c -0.026,-1.122 -0.052,-2.258 -0.052,-3.38 0,-0.965 0,-1.8 1.032,-1.8 0.549,0 1.043,0.157 1.331,0.274 L 4.41,-6.575 C 4.07,-6.743 3.444,-6.889 2.897,-6.889 c -1.879,0 -1.879,1.346 -1.879,2.206 0,0.822 0.039,2.884 0.052,3.862 L 0,-0.821 0,0 Z"
             style="fill:#231f20;fill-opacity:1;fill-rule:nonzero;stroke:none"
             id="path7528"
             inkscape:connector-curvature="0" />
        </g>
        <g
           id="g7530"
           transform="translate(464.0902,470.9947)">
          <path
             d="m 0,0 c 0.443,0 0.808,-0.366 0.808,-0.81 0,-0.442 -0.365,-0.807 -0.808,-0.807 -0.444,0 -0.81,0.365 -0.81,0.807 C -0.81,-0.366 -0.444,0 0,0 m -0.405,-4.123 -1.227,0 0,0.821 2.296,0 -0.052,-5.909 1.071,0 0,-0.823 -3.209,0 0,0.823 1.069,0 0.052,5.088 z"
             style="fill:#231f20;fill-opacity:1;fill-rule:nonzero;stroke:none"
             id="path7532"
             inkscape:connector-curvature="0" />
        </g>
        <g
           id="g7534"
           transform="translate(470.5226,465.0579)">
          <path
             d="M 0,0 C 0,1.058 -0.664,1.971 -1.786,1.971 -2.935,1.971 -3.719,1.11 -3.783,0 L 0,0 Z m -3.783,-0.822 c 0.039,-1.382 0.64,-2.544 2.557,-2.544 0.732,0 1.461,0.222 2.023,0.509 L 0.758,-3.784 c -0.496,-0.247 -1.541,-0.471 -2.219,-0.471 -2.125,0 -3.445,1.163 -3.445,3.51 0,1.984 1.072,3.537 3.12,3.537 2.661,0 2.908,-2.413 2.908,-3.614 l -4.905,0 z"
             style="fill:#231f20;fill-opacity:1;fill-rule:nonzero;stroke:none"
             id="path7536"
             inkscape:connector-curvature="0" />
        </g>
        <g
           id="g7538"
           transform="translate(476.7891,465.8287)">
          <path
             d="M 0,0 -0.965,0 -1.017,0.951 C -1.265,1.161 -1.892,1.2 -2.205,1.2 c -0.678,0 -1.551,-0.222 -1.551,-1.031 0,-0.73 0.651,-0.953 1.642,-1.122 1.709,-0.286 2.428,-0.809 2.428,-1.919 0,-1.199 -0.809,-2.153 -2.753,-2.153 -0.731,0 -1.893,0.183 -2.31,0.407 l -0.052,1.72 0.966,0 0.051,-1.003 c 0.405,-0.197 1.084,-0.3 1.528,-0.3 0.703,0 1.552,0.3 1.552,1.121 0,0.666 -0.691,0.901 -1.421,1.056 -1.801,0.392 -2.702,0.706 -2.702,2.024 0,1.084 0.718,2.022 2.647,2.022 0.562,0 1.605,-0.183 2.128,-0.405 L 0,0 Z"
             style="fill:#231f20;fill-opacity:1;fill-rule:nonzero;stroke:none"
             id="path7540"
             inkscape:connector-curvature="0" />
        </g>
      </g>
    </g>
    <g
       transform="matrix(1.25,0,0,-1.25,-545.99277,1123.2473)"
       id="g7542">
      <g
         id="g7544"
         clip-path="url(#clipPath7546)">
        <g
           id="g7550">
          <g
             id="g7552">
            <path
               d="m 386.216,492.284 -17.691,-17.817 c -0.398,-0.4 -0.602,-0.921 -0.611,-1.444 l 0,0 0,-0.075 c 0.009,-0.528 0.217,-1.054 0.622,-1.456 l 0,0 c 0.825,-0.821 2.159,-0.816 2.98,0.007 l 0,0 17.69,17.816 c 0.819,0.822 0.815,2.156 -0.01,2.976 l 0,0 c -0.411,0.408 -0.949,0.612 -1.486,0.612 l 0,0 c -0.541,0 -1.083,-0.207 -1.494,-0.619"
               style="fill:url(#linearGradient7554);stroke:none"
               id="path7560"
               inkscape:connector-curvature="0" />
          </g>
        </g>
      </g>
    </g>
    <g
       transform="matrix(1.25,0,0,-1.25,-545.99277,1123.2473)"
       id="g7562">
      <g
         id="g7564"
         clip-path="url(#clipPath7566)">
        <g
           id="g7570">
          <g
             id="g7572">
            <path
               d="m 401.993,472.254 -17.69,-17.813 c -0.82,-0.827 -0.816,-2.16 0.011,-2.979 l 0,0 c 0.825,-0.819 2.159,-0.816 2.979,0.012 l 0,0 17.689,17.81 c 0.821,0.823 0.816,2.157 -0.009,2.979 l 0,0 c -0.41,0.407 -0.948,0.611 -1.485,0.611 l 0,0 c -0.542,0 -1.083,-0.207 -1.495,-0.62"
               style="fill:url(#linearGradient7574);stroke:none"
               id="path7580"
               inkscape:connector-curvature="0" />
          </g>
        </g>
      </g>
    </g>
    <g
       transform="matrix(1.25,0,0,-1.25,-545.99277,1123.2473)"
       id="g7582">
      <g
         id="g7584"
         clip-path="url(#clipPath7586)">
        <g
           id="g7590">
          <g
             id="g7592">
            <path
               d="m 398.207,480.424 -17.691,-17.81 c -0.819,-0.828 -0.815,-2.163 0.011,-2.98 l 0,0 c 0.824,-0.823 2.16,-0.816 2.98,0.01 l 0,0 17.691,17.81 c 0.819,0.825 0.814,2.164 -0.011,2.982 l 0,0 c -0.412,0.407 -0.949,0.61 -1.486,0.61 l 0,0 c -0.542,0 -1.083,-0.207 -1.494,-0.622"
               style="fill:url(#linearGradient7594);stroke:none"
               id="path7600"
               inkscape:connector-curvature="0" />
          </g>
        </g>
      </g>
    </g>
    <g
       transform="matrix(1.25,0,0,-1.25,-545.99277,1123.2473)"
       id="g7602">
      <g
         id="g7604"
         clip-path="url(#clipPath7606)">
        <g
           id="g7610">
          <g
             id="g7612">
            <path
               d="m 398.746,492.944 -27.365,-27.552 c -0.82,-0.823 -0.814,-2.162 0.011,-2.98 l 0,0 c 0.825,-0.821 2.158,-0.816 2.977,0.009 l 0,0 27.366,27.554 c 0.82,0.826 0.814,2.157 -0.01,2.98 l 0,0 c -0.412,0.406 -0.949,0.609 -1.485,0.609 l 0,0 c -0.541,0 -1.082,-0.207 -1.494,-0.62"
               style="fill:url(#linearGradient7614);stroke:none"
               id="path7620"
               inkscape:connector-curvature="0" />
          </g>
        </g>
      </g>
    </g>
    <g
       transform="matrix(1.25,0,0,-1.25,-545.99277,1123.2473)"
       id="g7622">
      <g
         id="g7624"
         clip-path="url(#clipPath7626)">
        <g
           id="g7630"
           transform="translate(396.7735,493.9533)">
          <path
             d="m 0,0 c -0.824,0.821 -2.158,0.815 -2.978,-0.008 l -17.69,-17.813 c -0.819,-0.82 -0.816,-2.161 0.011,-2.977 0.825,-0.821 2.159,-0.818 2.979,0.009 l 17.69,17.81 C 0.833,-2.153 0.828,-0.82 0,0"
             style="fill:#d91920;fill-opacity:1;fill-rule:nonzero;stroke:none"
             id="path7632"
             inkscape:connector-curvature="0" />
        </g>
        <g
           id="g7634"
           transform="translate(408.1679,481.4737)">
          <path
             d="M 0,0 C -0.823,0.821 -2.159,0.814 -2.978,-0.01 L -20.67,-17.822 c -0.821,-0.823 -0.815,-2.159 0.012,-2.982 0.825,-0.819 2.157,-0.814 2.977,0.012 L 0.011,-2.98 C 0.83,-2.158 0.826,-0.822 0,0"
             style="fill:#d91920;fill-opacity:1;fill-rule:nonzero;stroke:none"
             id="path7636"
             inkscape:connector-curvature="0" />
        </g>
        <g
           id="g7638"
           transform="translate(399.28,484.4955)">
          <path
             d="m 0,0 c -0.826,0.816 -2.158,0.814 -2.979,-0.016 l -20.682,-20.821 c -0.819,-0.825 -0.815,-2.159 0.01,-2.982 0.826,-0.816 2.161,-0.814 2.98,0.016 L 0.009,-2.982 C 0.829,-2.154 0.828,-0.823 0,0"
             style="fill:#d91920;fill-opacity:1;fill-rule:nonzero;stroke:none"
             id="path7640"
             inkscape:connector-curvature="0" />
        </g>
      </g>
    </g>
    <g
       transform="scale(1.0540978,0.94867858)"
       style="font-variant:normal;font-weight:bold;font-stretch:normal;font-size:7.94802952px;font-family:'Caecilia Light';-inkscape-font-specification:Caecilia-Bold;writing-mode:lr-tb;fill:#c8c7c7;fill-opacity:1;fill-rule:nonzero;stroke:none"
       id="text7642">
      <path
         d="m -23.958755,583.81733 -0.548414,-1.57371 q -0.09538,-0.27023 -0.143064,-0.50867 l -0.0159,0 q -0.05564,0.26228 -0.151013,0.50867 l -0.611998,1.57371 1.470385,0 z m -3.608405,2.73412 0,-0.65174 0.476882,0 2.018799,-4.91188 0.985556,0 1.867787,4.91188 0.492777,0 0,0.65174 -2.034695,0 0,-0.65174 0.508674,0 -0.476882,-1.38295 -1.955215,0 -0.516622,1.38295 0.572258,0 0,0.65174 -1.939319,0 z"
         style="font-style:normal;font-variant:normal;font-weight:bold;font-stretch:normal;font-family:'Caecilia LT Std';-inkscape-font-specification:'Caecilia LT Std Bold'"
         id="path10042" />
      <path
         d="m -21.749203,581.63957 0,-0.65174 2.034695,0 0,0.65174 -0.56431,0 -0.0079,2.78976 q 0,0.27023 0.0079,0.44509 0.0159,0.16691 0.08743,0.3815 0.07948,0.20665 0.214597,0.33382 0.333818,0.30997 0.993504,0.30997 0.421246,0 0.651738,-0.0636 0.238441,-0.0715 0.421246,-0.25434 0.182805,-0.1828 0.246389,-0.43714 0.06358,-0.26228 0.07153,-0.69148 l 0.0159,-2.8136 -0.651738,0 0,-0.65174 2.034695,0 0,0.65174 -0.532518,0 -0.0159,2.98846 q 0,1.03324 -0.619946,1.56576 -0.540466,0.45304 -1.629346,0.45304 -1.120672,0 -1.669086,-0.46099 -0.294077,-0.24639 -0.40535,-0.60405 -0.111272,-0.36561 -0.111272,-0.94581 0,-1.07299 0.0159,-2.99641 l -0.588154,0 z"
         style="font-style:normal;font-variant:normal;font-weight:bold;font-stretch:normal;font-family:'Caecilia LT Std';-inkscape-font-specification:'Caecilia LT Std Bold'"
         id="path10044" />
      <path
         d="m -15.533847,585.00953 0.890179,0 0,0.73917 q 0.381506,0.1987 1.0094,0.1987 0.540466,0 0.858387,-0.23844 0.317922,-0.23844 0.317922,-0.67558 0,-0.31792 -0.198701,-0.48483 -0.198701,-0.16691 -0.667635,-0.30203 l -0.985555,-0.27818 q -1.208101,-0.34971 -1.208101,-1.44654 0,-0.78685 0.588154,-1.2081 0.588155,-0.42124 1.510126,-0.42124 0.731219,0 1.684982,0.27023 l 0,1.23194 -0.842491,0 0,-0.66763 q -0.341765,-0.13512 -0.834543,-0.13512 -0.588154,0 -0.882231,0.2305 -0.286129,0.22254 -0.286129,0.57225 0,0.33382 0.214596,0.50073 0.214597,0.16691 0.643791,0.27818 l 0.858387,0.22254 q 1.343217,0.34972 1.343217,1.49423 0,0.8266 -0.572258,1.29553 -0.572258,0.46099 -1.565762,0.46099 -0.365609,0 -0.953763,-0.0874 -0.588155,-0.0795 -0.921972,-0.20665 l 0,-1.34322 z"
         style="font-style:normal;font-variant:normal;font-weight:bold;font-stretch:normal;font-family:'Caecilia LT Std';-inkscape-font-specification:'Caecilia LT Std Bold'"
         id="path10046" />
      <path
         d="m -9.4138623,586.55145 0,-0.65174 0.5722582,0 0.031792,-4.26014 -1.295529,0 -0.03179,0.8107 -0.794803,0 0.03179,-1.46244 5.046999,0 0.031792,1.46244 -0.794803,0 -0.031792,-0.8107 -1.2716847,0 -0.031792,4.26014 0.6437904,0 0,0.65174 -2.1062279,0 z"
         style="font-style:normal;font-variant:normal;font-weight:bold;font-stretch:normal;font-family:'Caecilia LT Std';-inkscape-font-specification:'Caecilia LT Std Bold'"
         id="path10048" />
      <path
         d="m -5.3444677,586.55145 0,-0.65174 0.548414,0 0.031792,-4.26014 -0.5802061,0 0,-0.65174 2.4718372,0 q 0.818647,0 1.2478406,0.4133 0.4371416,0.4133 0.4371416,1.05709 0,0.67558 -0.3735574,1.04914 -0.3735574,0.36561 -0.9537635,0.42124 l 0,0.0159 q 0.2145968,0.0159 0.3735574,0.17486 0.1669086,0.15101 0.3338172,0.42919 l 0.6040503,1.01735 q 0.1987007,0.33381 0.49277778,0.33381 l 0.20664877,0 0,0.65174 -0.51662195,0 q -0.3815054,0 -0.5802061,-0.10332 -0.1987008,-0.10333 -0.4291936,-0.48483 l -0.7630109,-1.29553 q -0.1748566,-0.29408 -0.294077,-0.38945 -0.1192205,-0.0954 -0.3179212,-0.0954 l -0.4768818,0 -0.015896,1.71677 0.6437904,0 0,0.65174 -2.0903317,0 z m 1.4624374,-3.06794 0.6914786,0 q 0.4848298,0 0.7709588,-0.24639 0.2940771,-0.24638 0.2940771,-0.68353 0,-0.43714 -0.2622849,-0.67558 -0.254337,-0.23844 -0.7391668,-0.23844 l -0.7391667,0 -0.015896,1.84394 z"
         style="font-style:normal;font-variant:normal;font-weight:bold;font-stretch:normal;font-family:'Caecilia LT Std';-inkscape-font-specification:'Caecilia LT Std Bold'"
         id="path10050" />
      <path
         d="m 3.1996626,583.81733 -0.548414,-1.57371 q -0.095376,-0.27023 -0.1430646,-0.50867 l -0.015896,0 q -0.055636,0.26228 -0.1510126,0.50867 l -0.6119983,1.57371 1.4703855,0 z m -3.6084054,2.73412 0,-0.65174 0.47688177,0 2.01879953,-4.91188 0.9855556,0 1.867787,4.91188 0.4927778,0 0,0.65174 -2.0346956,0 0,-0.65174 0.5086739,0 -0.4768817,-1.38295 -1.9552153,0 -0.51662193,1.38295 0.57225813,0 0,0.65174 -1.9393192,0 z"
         style="font-style:normal;font-variant:normal;font-weight:bold;font-stretch:normal;font-family:'Caecilia LT Std';-inkscape-font-specification:'Caecilia LT Std Bold'"
         id="path10052" />
      <path
         d="m 5.8384089,586.55145 0,-0.65174 0.5643101,0 0.031792,-4.26014 -0.5961022,0 0,-0.65174 2.0505916,0 0,0.65174 -0.5643101,0 -0.031792,4.26014 1.6531901,0 0.07948,-0.93786 0.7471148,0 -0.07948,1.5896 -3.8547943,0 z"
         style="font-style:normal;font-variant:normal;font-weight:bold;font-stretch:normal;font-family:'Caecilia LT Std';-inkscape-font-specification:'Caecilia LT Std Bold'"
         id="path10054" />
      <path
         d="m 10.615174,586.55145 0,-0.65174 0.56431,0 0.03179,-4.26014 -0.596102,0 0,-0.65174 2.050591,0 0,0.65174 -0.56431,0 -0.03179,4.26014 0.596102,0 0,0.65174 -2.050591,0 z"
         style="font-style:normal;font-variant:normal;font-weight:bold;font-stretch:normal;font-family:'Caecilia LT Std';-inkscape-font-specification:'Caecilia LT Std Bold'"
         id="path10056" />
      <path
         d="m 16.743105,583.81733 -0.548414,-1.57371 q -0.09538,-0.27023 -0.143065,-0.50867 l -0.0159,0 q -0.05564,0.26228 -0.151013,0.50867 l -0.611998,1.57371 1.470386,0 z m -3.608406,2.73412 0,-0.65174 0.476882,0 2.018799,-4.91188 0.985556,0 1.867787,4.91188 0.492778,0 0,0.65174 -2.034696,0 0,-0.65174 0.508674,0 -0.476882,-1.38295 -1.955215,0 -0.516622,1.38295 0.572258,0 0,0.65174 -1.939319,0 z"
         style="font-style:normal;font-variant:normal;font-weight:bold;font-stretch:normal;font-family:'Caecilia LT Std';-inkscape-font-specification:'Caecilia LT Std Bold'"
         id="path10058" />
    </g>
  </g>
</svg>
