<svg xmlns="http://www.w3.org/2000/svg" viewBox="0 0 417.46025 171.19167" height="171.192" width="417.46"><defs><clipPath id="a"><path d="M0 595.275h841.89V0H0v595.275z"/></clipPath><clipPath id="b"><path d="M309.646 341.407l-54.109-54.495a6.423 6.423 0 0 1 .035-9.099 6.446 6.446 0 0 1 9.111.021l54.109 54.49a6.436 6.436 0 0 1-.031 9.104 6.432 6.432 0 0 1-4.546 1.872 6.435 6.435 0 0 1-4.569-1.893"/></clipPath><linearGradient id="c" gradientTransform="matrix(66.99756 0 0 -66.99756 253.666 309.62)" gradientUnits="userSpaceOnUse" x2="1"><stop offset="0" stop-color="#fff"/><stop offset="1" stop-color="#c8c7c7"/></linearGradient><clipPath id="d"><path d="M357.901 280.145l-54.107-54.483a6.438 6.438 0 0 1 .035-9.113 6.441 6.441 0 0 1 9.113.035l54.103 54.474c2.509 2.519 2.497 6.596-.028 9.114a6.432 6.432 0 0 1-4.543 1.867 6.445 6.445 0 0 1-4.573-1.894"/></clipPath><linearGradient id="e" gradientTransform="matrix(66.99658 0 0 -66.99658 301.922 248.358)" gradientUnits="userSpaceOnUse" x2="1"><stop offset="0" stop-color="#fff"/><stop offset="1" stop-color="#c8c7c7"/></linearGradient><clipPath id="f"><path d="M346.322 305.133l-54.107-54.475c-2.509-2.531-2.495-6.617.032-9.113 2.519-2.518 6.607-2.496 9.114.029l54.108 54.475c2.506 2.521 2.492 6.617-.035 9.12a6.438 6.438 0 0 1-4.543 1.867 6.408 6.408 0 0 1-4.569-1.903"/></clipPath><linearGradient id="g" gradientTransform="matrix(66.99658 0 0 -66.99658 290.342 273.352)" gradientUnits="userSpaceOnUse" x2="1"><stop offset="0" stop-color="#fff"/><stop offset="1" stop-color="#c8c7c7"/></linearGradient><clipPath id="h"><path d="M347.969 343.425l-83.697-84.271c-2.506-2.517-2.492-6.611.033-9.113a6.435 6.435 0 0 1 9.107.028l83.7 84.276c2.508 2.525 2.49 6.597-.029 9.114a6.455 6.455 0 0 1-4.545 1.866 6.422 6.422 0 0 1-4.569-1.9"/></clipPath><linearGradient id="i" gradientTransform="matrix(96.58106 0 0 -96.58106 262.402 296.745)" gradientUnits="userSpaceOnUse" x2="1"><stop offset="0" stop-color="#fff"/><stop offset="1" stop-color="#c8c7c7"/></linearGradient><clipPath id="j"><path d="M0 595.275h841.89V0H0v595.275z"/></clipPath></defs><path d="M178.069 6.59h-3.996V3.437h12.08v3.151h-3.797l-.2 28.629h3.997v3.139h-12.08v-3.139h3.796l.2-28.629z" fill="#231f20"/><g clip-path="url(#a)" transform="matrix(1.25 0 0 -1.25 -317.082 439.54)"><path d="M417.485 323.457h2.638c0 3.193.153 6.547.153 9.856 0 1.998-.077 5.99-4.669 5.99-2.91 0-6.1-1.76-6.1-7.346l-.08-8.5h2.99v-2.511h-8.938v2.51h2.631l.163 15.562h-3.313v2.52h6.58c0-.8-.034-1.92-.114-2.478l-.319-2.074h.08c.872 3.114 4.19 5.032 7.302 5.032 5.665 0 7.063-3.836 7.063-7.743 0-3.516-.16-7.626-.16-10.819h3.031v-2.51h-8.938v2.51zM441.165 323.457h2.634c0 3.193.16 6.547.16 9.856 0 1.998-.08 5.99-4.669 5.99-2.91 0-6.104-1.76-6.104-7.346l-.08-8.5h2.994v-2.511h-8.938v2.51h2.631l.16 15.562h-3.31v2.52h6.58c0-.8-.037-1.92-.117-2.478l-.316-2.074h.077c.875 3.114 4.193 5.032 7.302 5.032 5.665 0 7.063-3.836 7.063-7.743 0-3.516-.156-7.626-.156-10.819h3.027v-2.51h-8.938v2.51zM459.673 323.18c4.393 0 6.544 3.59 6.544 8.06 0 4.467-2.151 8.063-6.544 8.063-4.39 0-6.543-3.596-6.543-8.064 0-4.469 2.154-8.059 6.543-8.059m0 18.838c6.267 0 9.977-4.317 9.977-10.22 0-6.544-3.71-11.335-9.977-11.335-6.264 0-9.974 4.31-9.974 10.216 0 6.547 3.71 11.34 9.974 11.34M468.667 341.539h8.458v-2.521h-2.471l4.745-13.21c.204-.553.321-1.153.444-1.748h.073c.123.595.243 1.195.442 1.748l4.872 13.21h-2.677v2.52h8.218v-2.52H488.5l-7.105-18.072h-3.271l-7.145 18.072h-2.312v2.52zM503.766 330.403c-4.87 0-9.777 0-9.777-3.873 0-2.314 1.755-3.553 3.869-3.553 2.238 0 5.908 1.239 5.908 7.426m-9.298 5.068h-2.954v4.946c2.275.919 4.713 1.6 7.223 1.6 5.308 0 8.145-1.96 8.145-7.428 0-1.795-.243-7.42-.243-11.132h2.954v-2.511h-5.907v.836c0 1.195.239 2.83.399 3.627h-.08c-1.24-3.308-3.27-4.945-6.906-4.945-2.351 0-6.38.88-6.38 5.91 0 5.744 6.144 6.3 13.047 6.3v1.479c0 3.873-1.473 5.344-4.71 5.344-1.158 0-3.116-.194-4.588-.836v-3.19zM508.287 341.539h3.316l.154 5.028 3.276.194-.159-5.222h6.467v-2.521h-6.507c-.08-3.427-.163-6.9-.163-10.333 0-2.95 0-5.504 3.153-5.504 1.68 0 3.197.476 4.072.836l-.123-2.594c-1.035-.52-2.95-.96-4.622-.96-5.747 0-5.747 4.113-5.747 6.743 0 2.515.12 8.818.156 11.812h-3.273v2.52z" fill="#231f20"/><path d="M526.395 351.631a2.49 2.49 0 0 0 2.478-2.475c0-1.357-1.12-2.47-2.478-2.47a2.48 2.48 0 0 0-2.47 2.47 2.484 2.484 0 0 0 2.47 2.475m-1.238-12.613h-3.75v2.52h7.026l-.163-18.082h3.273v-2.51h-9.817v2.51h3.277l.154 15.562zM529.62 341.539h8.464v-2.521h-2.478l4.748-13.21c.207-.553.321-1.153.441-1.748h.08c.12.595.24 1.195.438 1.748l4.872 13.21h-2.673v2.52h8.218v-2.52h-2.274l-7.104-18.072h-3.269l-7.147 18.072h-2.317v2.52zM565.73 333.47c0 3.236-2.035 6.026-5.468 6.026-3.51 0-5.904-2.627-6.107-6.027h11.575zm-11.575-2.515c.123-4.225 1.958-7.775 7.825-7.775 2.23 0 4.469.673 6.184 1.555l-.117-2.834c-1.518-.762-4.71-1.438-6.786-1.438-6.507 0-10.536 3.553-10.536 10.735 0 6.068 3.27 10.82 9.537 10.82 8.142 0 8.9-7.387 8.9-11.063h-15.007zM399.47 301.159h3.317c3.55 0 6.3 1.559 6.3 5.549 0 4.068-2.91 4.988-6.583 4.988h-2.953l-.08-10.537zm-6.546 13.05h9.344c5.02 0 10.253-.76 10.253-7.186 0-4.628-3.234-7.182-6.544-7.542v-.084c.996-.036 2.275-.875 3.594-3.147l2.354-4.072c1.752-2.914 1.99-3.393 3.629-3.393h1.239v-2.511h-1.638c-2.874 0-3.71.316-5.228 2.674l-2.671 4.589c-2.477 4.232-3.113 5.108-5.591 5.108h-2.194l-.08-9.86h3.233v-2.511h-9.7v2.51h3.037l.16 22.912h-3.197v2.514z" fill="#231f20"/><path d="M430.752 298.805c0 3.232-2.038 6.023-5.471 6.023-3.509 0-5.904-2.63-6.104-6.023h11.575zm-11.575-2.518c.12-4.225 1.955-7.779 7.822-7.779 2.234 0 4.469.673 6.185 1.556l-.12-2.834c-1.519-.759-4.709-1.439-6.781-1.439-6.507 0-10.536 3.553-10.536 10.737 0 6.066 3.271 10.818 9.534 10.818 8.142 0 8.901-7.383 8.901-11.059h-15.005zM449.916 301.159h-2.953l-.16 2.91c-.76.644-2.678.76-3.63.76-2.078 0-4.748-.68-4.748-3.15 0-2.235 1.991-2.914 5.028-3.433 5.228-.88 7.419-2.478 7.419-5.867 0-3.67-2.475-6.588-8.418-6.588-2.238 0-5.788.563-7.066 1.243l-.158 5.265h2.952l.163-3.07c1.235-.6 3.309-.924 4.669-.924 2.15 0 4.744.924 4.744 3.434 0 2.039-2.111 2.757-4.349 3.234-5.504 1.195-8.262 2.157-8.262 6.186 0 3.314 2.199 6.187 8.106 6.187 1.712 0 4.908-.56 6.5-1.238l.163-4.95zM466.652 298.805c0 3.232-2.034 6.023-5.464 6.023-3.516 0-5.907-2.63-6.107-6.023h11.571zm-11.57-2.518c.12-4.225 1.957-7.779 7.821-7.779 2.234 0 4.47.673 6.184 1.556l-.117-2.834c-1.515-.759-4.713-1.439-6.787-1.439-6.503 0-10.532 3.553-10.532 10.737 0 6.066 3.27 10.818 9.537 10.818 8.142 0 8.898-7.383 8.898-11.059h-15.005zM484.012 295.73c-4.868 0-9.776 0-9.776-3.87 0-2.315 1.757-3.555 3.872-3.555 2.23 0 5.904 1.24 5.904 7.426m-9.297 5.066h-2.957v4.953c2.277.913 4.708 1.596 7.226 1.596 5.307 0 8.14-1.958 8.14-7.43 0-1.79-.242-7.415-.242-11.13h2.957v-2.513h-5.907v.836c0 1.195.24 2.83.399 3.637h-.08c-1.235-3.317-3.272-4.955-6.906-4.955-2.354 0-6.383.878-6.383 5.91 0 5.744 6.144 6.304 13.05 6.304v1.475c0 3.874-1.48 5.348-4.71 5.348-1.157 0-3.112-.195-4.587-.835v-3.196zM493.488 304.35h-3.516v2.514h6.787v-1.114c0-1.2-.237-3.635-.44-5.314h.12c.8 3.037 1.875 6.79 6.983 6.79.283 0 1.915-.163 2.082-.323l-.324-2.95c-.559.196-1.438.32-2.234.32-4.229 0-6.107-4.15-6.187-7.782l-.16-7.706h3.476v-2.512h-9.663v2.512h2.914l.162 15.564zM520.878 286.793c-1.595-.482-3.673-1.002-5.947-1.002-8.142 0-10.733 5.395-10.733 10.78 0 7.858 5.704 10.775 10.293 10.775 2.275 0 4.549-.283 6.663-1.039v-5.388h-2.95v3.23c-.88.324-2.511.483-3.433.483-5.948 0-7.143-4.715-7.143-8.061 0-1.116.156-8.063 7.822-8.063 2.034 0 3.673.56 5.584 1.156l-.156-2.871zM524.943 314.45h-3.989v2.51h7.266l-.044-10.813c0-.915-.236-2.95-.395-3.83h.076c.88 3.112 4.192 5.029 7.303 5.029 5.668 0 7.066-3.833 7.066-7.742 0-3.512-.16-7.621-.16-10.82h3.03v-2.51h-8.937v2.51h2.631c0 3.199.166 6.548.166 9.86 0 1.999-.08 5.989-4.669 5.989-2.916 0-6.11-1.762-6.11-7.346l-.124-8.502h3.037v-2.511h-9.256v2.51h2.953l.156 25.666zM402.028 277.023h-2.994c-.043-3.912-.083-7.785-.083-14.322 0-3.473.24-5.432 1.399-6.864 1.115-1.398 3.153-2 6.024-2 2.794 0 4.95.678 6.223 2.358 1.159 1.512 1.202 3.912 1.246 7.701l.073 13.127h-3.47v2.514h9.657v-2.514h-3.07l-.08-15.125c0-3.189-.36-5.508-2.198-7.738-1.595-1.959-4.55-3.04-8.498-3.04-4.868 0-7.542 1.245-9.181 3.473-1.315 1.797-1.555 3.756-1.555 8.424 0 4.55.04 9.736.08 14.006h-3.23v2.514h9.657v-2.514z" fill="#231f20"/><path d="M433.473 254.12h2.627c0 3.19.167 6.54.167 9.853 0 1.998-.08 5.988-4.672 5.988-2.914 0-6.107-1.758-6.107-7.344l-.077-8.498h2.99v-2.518h-8.937v2.518h2.634l.156 15.563h-3.31v2.51h6.588c0-.796-.044-1.915-.121-2.47l-.32-2.076h.077c.879 3.114 4.193 5.028 7.303 5.028 5.667 0 7.066-3.832 7.066-7.742 0-3.512-.16-7.622-.16-10.813h3.034v-2.518h-8.938v2.518zM447.495 282.291a2.49 2.49 0 0 0 2.478-2.477 2.49 2.49 0 0 0-2.478-2.47 2.483 2.483 0 0 0-2.47 2.47 2.485 2.485 0 0 0 2.47 2.477m-1.235-12.609h-3.753v2.509h7.026l-.16-18.072h3.27v-2.517h-9.817v2.517h3.273l.161 15.563zM450.719 272.191h8.465v-2.51h-2.478l4.748-13.21c.203-.559.32-1.153.44-1.755h.08c.12.602.24 1.196.44 1.754l4.87 13.211h-2.672v2.51h8.218v-2.51h-2.274l-7.104-18.08h-3.27l-7.146 18.08h-2.317v2.51zM486.83 264.133c0 3.236-2.032 6.027-5.463 6.027-3.516 0-5.913-2.632-6.11-6.027h11.572zm-11.573-2.514c.124-4.226 1.958-7.783 7.822-7.783 2.238 0 4.47.68 6.188 1.559l-.12-2.836c-1.515-.756-4.71-1.44-6.787-1.44-6.5 0-10.536 3.557-10.536 10.737 0 6.066 3.276 10.818 9.543 10.818 8.14 0 8.895-7.383 8.895-11.055h-15.005z" fill="#231f20"/><path d="M493.565 269.682h-3.513v2.51h6.786v-1.112c0-1.2-.24-3.632-.439-5.312h.116c.803 3.035 1.878 6.787 6.987 6.787.283 0 1.915-.156 2.078-.32l-.32-2.95c-.563.196-1.442.317-2.235.317-4.229 0-6.106-4.15-6.187-7.78l-.16-7.703h3.47v-2.517h-9.656v2.517h2.913l.16 15.563zM519.972 266.49h-2.953l-.16 2.91c-.76.641-2.677.76-3.63.76-2.077 0-4.752-.68-4.752-3.152 0-2.233 1.995-2.914 5.028-3.434 5.232-.873 7.427-2.475 7.427-5.867 0-3.668-2.48-6.588-8.426-6.588-2.234 0-5.783.562-7.062 1.246l-.157 5.262h2.95l.164-3.069c1.232-.6 3.31-.918 4.665-.918 2.155 0 4.749.918 4.749 3.43 0 2.035-2.115 2.754-4.346 3.231-5.512 1.2-8.266 2.158-8.266 6.19 0 3.313 2.199 6.183 8.106 6.183 1.712 0 4.908-.559 6.5-1.239l.163-4.945zM525.942 282.291a2.49 2.49 0 0 0 2.478-2.477 2.489 2.489 0 0 0-2.478-2.47 2.486 2.486 0 0 0-2.47 2.47 2.487 2.487 0 0 0 2.47 2.477m-1.235-12.609h-3.753v2.509h7.026l-.16-18.072h3.27v-2.517h-9.816v2.517h3.276l.157 15.563zM529.723 272.191h3.313l.16 5.035 3.273.197-.163-5.232h6.467v-2.51h-6.507c-.08-3.433-.16-6.906-.16-10.338 0-2.953 0-5.507 3.157-5.507 1.679 0 3.19.48 4.069.84l-.12-2.594c-1.04-.516-2.954-.963-4.63-.963-5.746 0-5.746 4.117-5.746 6.75 0 2.513.12 8.818.16 11.812h-3.273v2.51z" fill="#231f20"/><path d="M547.834 282.291a2.487 2.487 0 0 0 2.471-2.477 2.485 2.485 0 0 0-2.471-2.47 2.49 2.49 0 0 0-2.478 2.47 2.49 2.49 0 0 0 2.478 2.477m-1.238-12.609h-3.754v2.509h7.023l-.16-18.072h3.277v-2.517h-9.817v2.517h3.271l.16 15.563zM567.508 264.133c0 3.236-2.031 6.027-5.462 6.027-3.517 0-5.914-2.632-6.11-6.027h11.572zm-11.572-2.514c.12-4.226 1.958-7.783 7.822-7.783 2.238 0 4.469.68 6.188 1.559l-.121-2.836c-1.515-.756-4.712-1.44-6.786-1.44-6.501 0-10.536 3.557-10.536 10.737 0 6.066 3.276 10.818 9.543 10.818 8.139 0 8.895-7.383 8.895-11.055h-15.005zM586.675 266.49h-2.95l-.16 2.91c-.76.641-2.678.76-3.633.76-2.074 0-4.745-.68-4.745-3.152 0-2.233 1.99-2.914 5.02-3.434 5.229-.873 7.427-2.475 7.427-5.867 0-3.668-2.475-6.588-8.418-6.588-2.238 0-5.791.562-7.066 1.246l-.161 5.262h2.955l.156-3.069c1.239-.6 3.316-.918 4.676-.918 2.15 0 4.745.918 4.745 3.43 0 2.035-2.115 2.754-4.346 3.231-5.508 1.2-8.265 2.158-8.265 6.19 0 3.313 2.198 6.183 8.098 6.183 1.719 0 4.908-.559 6.507-1.239l.16-4.945z" fill="#231f20"/></g><g clip-path="url(#b)" transform="matrix(1.25 0 0 -1.25 -317.082 439.54)"><path d="M309.646 341.407l-54.109-54.495a6.423 6.423 0 0 1 .035-9.099 6.446 6.446 0 0 1 9.111.021l54.109 54.49a6.436 6.436 0 0 1-.031 9.104 6.432 6.432 0 0 1-4.546 1.872 6.435 6.435 0 0 1-4.569-1.893" fill="url(#c)"/></g><g clip-path="url(#d)" transform="matrix(1.25 0 0 -1.25 -317.082 439.54)"><path d="M357.901 280.145l-54.107-54.483a6.438 6.438 0 0 1 .035-9.113 6.441 6.441 0 0 1 9.113.035l54.103 54.474c2.509 2.519 2.497 6.596-.028 9.114a6.432 6.432 0 0 1-4.543 1.867 6.445 6.445 0 0 1-4.573-1.894" fill="url(#e)"/></g><g clip-path="url(#f)" transform="matrix(1.25 0 0 -1.25 -317.082 439.54)"><path d="M346.322 305.133l-54.107-54.475c-2.509-2.531-2.495-6.617.032-9.113 2.519-2.518 6.607-2.496 9.114.029l54.108 54.475c2.506 2.521 2.492 6.617-.035 9.12a6.438 6.438 0 0 1-4.543 1.867 6.408 6.408 0 0 1-4.569-1.903" fill="url(#g)"/></g><g clip-path="url(#h)" transform="matrix(1.25 0 0 -1.25 -317.082 439.54)"><path d="M347.969 343.425l-83.697-84.271c-2.506-2.517-2.492-6.611.033-9.113a6.435 6.435 0 0 1 9.107.028l83.7 84.276c2.508 2.525 2.49 6.597-.029 9.114a6.455 6.455 0 0 1-4.545 1.866 6.422 6.422 0 0 1-4.569-1.9" fill="url(#i)"/></g><g clip-path="url(#j)" transform="matrix(1.25 0 0 -1.25 -317.082 439.54)"><path d="M341.938 346.513c-2.521 2.512-6.602 2.494-9.11-.025l-54.105-54.482c-2.507-2.51-2.496-6.611.033-9.107a6.433 6.433 0 0 1 9.11.029l54.107 54.475a6.432 6.432 0 0 1-.036 9.11M376.789 308.342c-2.518 2.51-6.603 2.488-9.108-.029l-54.113-54.48c-2.51-2.519-2.494-6.605.036-9.122a6.44 6.44 0 0 1 9.107.035l54.11 54.482c2.508 2.514 2.495 6.6-.032 9.114M349.604 317.585a6.439 6.439 0 0 1-9.11-.05l-63.261-63.681a6.461 6.461 0 0 1 .032-9.122c2.525-2.496 6.609-2.49 9.114.049l63.253 63.682a6.447 6.447 0 0 1-.028 9.122" fill="#d91920"/></g></svg>