<svg xmlns="http://www.w3.org/2000/svg" viewBox="0 0 30.39875 35.873751" height="38.265" width="32.425"><defs><clipPath id="a"><path d="M0 0h841.89v595.276H0V0z"/></clipPath></defs><g clip-path="url(#a)" transform="matrix(1.25 0 0 -1.25 -309.844 457.82)"><path d="M249.196 340.886h.468v3.765h1.176l.14.391H248v-.39h1.195v-3.766zm2.808-.063c.841 0 1.384.687 1.384 1.558 0 .876-.55 1.564-1.378 1.564-.847 0-1.384-.688-1.384-1.564 0-.87.544-1.558 1.378-1.558m0 .397c-.55 0-.898.48-.898 1.161 0 .687.348 1.166.904 1.166.544 0 .892-.479.892-1.166 0-.68-.348-1.16-.898-1.16m2.428-.354h.411l.714 2.39h.013l.708-2.39h.405l.992 3.002h-.474l-.695-2.378h-.013l-.714 2.378h-.437l-.689-2.378h-.012l-.708 2.378h-.487l.986-3.002zm3.564.02h.467v2.194c.278.246.582.447.917.447.424 0 .537-.34.537-.788v-1.854h.462v2.012c0 .75-.417 1.047-.885 1.047-.386 0-.72-.183-1.05-.46l-.057.384h-.39v-2.983zm2.742.188c.19-.12.506-.252.898-.252.613 0 1.106.284 1.106.877 0 1.01-1.409.782-1.409 1.444 0 .321.29.416.575.416.291 0 .518-.076.721-.164v.41a2.084 2.084 0 0 1-.74.14c-.664 0-1.01-.367-1.01-.82 0-.99 1.396-.783 1.396-1.433 0-.34-.29-.479-.639-.479-.335 0-.575.114-.746.221l-.152-.36zm3.323-.208h.398l1.145 3.002h-.48l-.848-2.384h-.012l-.873 2.384h-.487l1.157-3.002zm1.892.02h.462v2.982h-.462v-2.983zm.227 3.657c.183 0 .316.132.316.31a.301.301 0 0 1-.316.314.303.303 0 0 1-.31-.315c0-.177.127-.309.31-.309m.907-3.116c0-.359.183-.58.562-.58.14 0 .297.032.417.088l-.1.366a.59.59 0 0 0-.184-.044c-.158 0-.234.07-.234.315v3.778h-.46v-3.923zm1.286 0c0-.359.183-.58.563-.58.14 0 .297.032.417.088l-.1.366a.604.604 0 0 0-.185-.044c-.158 0-.234.07-.234.315v3.778h-.46v-3.923zm2.48-.605c.334 0 .694.095.953.265l-.152.328a1.503 1.503 0 0 0-.733-.202c-.638 0-.986.473-.999 1.085h1.941v.113c0 .94-.43 1.533-1.188 1.533-.727 0-1.227-.625-1.227-1.533 0-.87.462-1.589 1.404-1.589m-.923 1.835c.006.498.29.908.746.908.474 0 .695-.454.701-.908h-1.447zM248.21 350.668a1.93 1.93 0 0 1 1.094-.315c.796 0 1.334.416 1.334 1.11 0 1.292-1.834 1.192-1.834 2.131 0 .448.38.612.752.612.317 0 .633-.082.892-.227v.436c-.19.095-.525.189-.904.189-.778 0-1.227-.466-1.227-1.053 0-1.242 1.834-1.122 1.834-2.12 0-.491-.392-.674-.84-.674a1.66 1.66 0 0 0-.905.278l-.196-.366zm2.98-.252h.461v2.983h-.462v-2.983zm.227 3.658c.183 0 .316.132.316.31a.302.302 0 0 1-.316.315.304.304 0 0 1-.31-.315c0-.177.127-.31.31-.31m.903-3.658h.468v2.194c.278.246.582.448.917.448.423 0 .537-.34.537-.788v-1.854h.461v2.012c0 .75-.417 1.046-.884 1.046-.386 0-.72-.182-1.05-.46l-.057.385h-.392v-2.983zm4.003-1.495c.891 0 1.441.372 1.441.933 0 1.11-1.973.587-1.973 1.18 0 .107.045.214.16.34.112-.037.245-.063.39-.063.69 0 1.157.435 1.157 1.08 0 .283-.113.566-.34.768.087.057.19.082.29.082a.757.757 0 0 0 .17-.019l.114.366a1.03 1.03 0 0 1-.183.02.83.83 0 0 1-.613-.247c-.019-.019-.032-.019-.064-.006a1.333 1.333 0 0 1-.562.113c-.645 0-1.1-.46-1.1-1.059 0-.404.183-.719.461-.902-.259-.234-.316-.448-.316-.587 0-.157.083-.296.215-.372-.379-.183-.556-.466-.556-.769 0-.543.518-.858 1.31-.858m.036.366c-.537 0-.916.208-.916.567 0 .291.26.461.411.562.55-.164 1.441-.07 1.441-.612 0-.284-.303-.517-.936-.517m-.012 2.41c-.424 0-.677.295-.677.705 0 .417.28.681.677.681.398 0 .676-.29.676-.687 0-.454-.29-.7-.676-.7m3.45-1.28h.41c-.038.151-.057.43-.057 1.015v1.028c0 .713-.442 1.015-1.06 1.015-.33 0-.703-.08-1.05-.302l.176-.328c.21.126.462.246.822.246.373 0 .645-.202.645-.656v-.189l-.569-.019c-.304-.013-.544-.044-.746-.145-.304-.139-.506-.41-.506-.808 0-.574.405-.92.948-.92.373 0 .664.176.898.397l.088-.334zm-.114 1.476v-.757c-.139-.145-.417-.39-.79-.39-.342 0-.557.226-.557.554 0 .195.09.365.26.46.132.07.303.107.562.114l.525.02zm1.091-2.97h.468v1.538c.145-.063.335-.107.524-.107.866 0 1.511.6 1.511 1.57 0 .984-.569 1.551-1.517 1.551-.322 0-.67-.063-.986-.182v-4.37zm.468 1.954v2.125c.164.051.322.076.505.076.594 0 1.05-.353 1.05-1.14 0-.714-.367-1.187-1.043-1.187-.196 0-.342.044-.512.126m3.745-.523c.84 0 1.384.687 1.384 1.557 0 .877-.55 1.564-1.378 1.564-.847 0-1.385-.687-1.385-1.564 0-.87.544-1.557 1.38-1.557m0 .397c-.552 0-.899.48-.899 1.16 0 .688.347 1.167.904 1.167.544 0 .891-.479.891-1.167 0-.68-.347-1.16-.897-1.16m1.862-.334h.468v2.194c.291.297.506.43.721.43a.542.542 0 0 0 .26-.064l.163.423a.693.693 0 0 1-.322.075c-.259 0-.512-.094-.84-.454l-.058.38h-.392v-2.984zm3.021-.063a1.8 1.8 0 0 1 .955.265l-.152.327a1.513 1.513 0 0 0-.733-.2c-.638 0-.986.472-.999 1.083h1.941v.114c0 .94-.43 1.532-1.189 1.532-.726 0-1.226-.624-1.226-1.532 0-.87.462-1.589 1.403-1.589m-.922 1.835c.006.498.29.908.745.908.475 0 .696-.454.702-.908h-1.447zM251.238 360.545a2.07 2.07 0 0 0-.992-.259c-.949 0-1.537.707-1.537 1.722 0 .978.607 1.722 1.581 1.722.423 0 .733-.1 1.024-.259v.442c-.209.12-.588.22-1.03.22-1.233 0-2.068-.952-2.068-2.163 0-1.217.74-2.087 1.985-2.087.38 0 .771.082 1.163.29l-.126.372zm2.362-.599h.411c-.038.151-.057.43-.057 1.015v1.028c0 .713-.443 1.016-1.062 1.016-.329 0-.702-.082-1.05-.303l.177-.328c.21.126.462.246.822.246.373 0 .645-.202.645-.656v-.189l-.569-.019c-.303-.013-.544-.044-.746-.145-.303-.139-.506-.41-.506-.807 0-.574.405-.92.95-.92.372 0 .662.175.896.396l.09-.334zm-.114 1.476v-.757c-.139-.145-.417-.39-.79-.39-.342 0-.557.226-.557.554 0 .195.09.366.26.46.132.07.303.107.562.114l.525.02zm1.113-1.476h.462v2.983h-.462v-2.983zm.228 3.658c.183 0 .316.132.316.31a.302.302 0 0 1-.316.314.303.303 0 0 1-.31-.315c0-.177.126-.309.31-.309m.903-3.658h.468v2.195c.291.296.506.428.721.428a.542.542 0 0 0 .26-.063l.163.423a.696.696 0 0 1-.322.076c-.259 0-.512-.095-.84-.455l-.058.38h-.392v-2.984zm1.897 0h.468v2.195c.278.245.582.447.917.447.423 0 .537-.34.537-.788v-1.854h.461v2.012c0 .75-.417 1.047-.885 1.047-.385 0-.72-.183-1.049-.46l-.057.384h-.392v-2.983zm2.743.19c.19-.12.506-.253.898-.253.613 0 1.106.284 1.106.876 0 1.01-1.41.782-1.41 1.445 0 .321.291.416.576.416.29 0 .518-.076.72-.164v.41a2.1 2.1 0 0 1-.739.14c-.664 0-1.012-.367-1.012-.82 0-.99 1.397-.783 1.397-1.433 0-.34-.29-.479-.638-.479-.335 0-.576.113-.746.22l-.152-.359z" fill="#176fc1"/></g><path d="M0 .44h30.399V0H0v.44zM0 35.874h30.399v-.44H0v.44zM0 12.237h30.399v-.44H0v.44zM0 24.127h30.399v-.44H0v.44z" fill="#176fc1"/></svg>