<svg xmlns="http://www.w3.org/2000/svg" viewBox="0 0 213.23413 52.174624" height="55.653" width="227.45"><defs><clipPath id="b"><path d="M0 0h841.89v595.276H0V0z"/></clipPath><clipPath id="a"><path d="M91.492 335.732h110.316v46.021H91.492v-46.021z"/></clipPath></defs><g clip-path="url(#a)" transform="matrix(1.25 0 0 -1.25 -127.008 474.113)"><path d="M126.144 364.292c0 1.302-.024 1.54-1.574 1.763v.178h4.072v-.178c-1.42-.189-1.457-.544-1.457-1.763v-4.236c.013-2.297-.26-2.806-2.828-3.905l-.094.201c1.739.816 1.88 2.094 1.88 4.223v3.717zM130.622 361.559c-.201-.592-.723-1.824-.723-2.391 0-.722.817-.722 1.35-.805v-.177h-3.243v.177c1.054.284 1.16.52 1.527 1.445l1.336 3.49.71 1.929c.107.309.26.592.13.817.32.13.616.342.865.638l2.603-6.934c.319-.864.522-1.207 1.468-1.385v-.177h-3.48v.177c.415.095.912.226.912.758 0 .497-.45 1.609-.757 2.438h-2.698zm1.313 3.62l-1.113-3.075h2.344l-1.231 3.076zM142.371 359.914l2.142 4.71c.296.65.462 1.243.201 1.42l.025.19h2.601v-.178c-.756-.154-1.217-.438-1.17-1.266l.26-4.308c.13-1.645.13-1.906 1.395-2.12v-.176h-3.89v.177c.91.143 1.49.249 1.43 1.29l-.32 5.172h-.023l-3.017-6.64h-.13l-2.805 6.368h-.023a75.99 75.99 0 0 1-.368-4.957c-.023-.462-.01-.996 1.421-1.233v-.177h-3.3v.177c1.052.178 1.158.687 1.324 1.645l.438 3.326.154 1.609c.071.782-.604 1.054-1.302 1.113v.178h2.556l.011-.131c-.26-.271.06-.982.143-1.171l2.247-5.018zM148.314 358.363c1.42.19 1.432.545 1.465 1.764v4.166c-.033 1.219-.045 1.574-1.465 1.762v.178h6.354l-.142-1.822h-.177c-.083 1.526-1.184 1.539-2.378 1.539h-1.15v-3.373h1.23c.889 0 1.564.07 1.694 1.088h.178v-2.64h-.178c-.154 1.042-.805 1.055-1.693 1.055h-1.23v-1.941c0-.698-.165-1.668 1.775-1.668 1.492 0 2.225.566 2.52 2.058h.177a7.428 7.428 0 0 0-.401-2.343h-6.58v.177zM160.716 364.15h-.19c-.188.96-.496 1.882-1.667 1.882-.76 0-1.385-.52-1.385-1.302 0-2.047 3.727-1.976 3.727-4.367 0-1.526-1.515-2.32-2.875-2.32-.723 0-1.48.213-2.082.604l-.344 2.012h.212c.296-1.137 1.089-2.26 2.39-2.26.876 0 1.564.52 1.564 1.443 0 2.107-3.621 1.917-3.621 4.284 0 1.385 1.372 2.26 2.637 2.26.604 0 1.208-.177 1.729-.46l-.095-1.776zM171.19 363.795h-.177c-.225 1.337-1.007 2.295-2.426 2.295-2.166 0-3.385-1.774-3.385-3.81 0-2.332 1.786-3.952 3.504-3.952 1.548 0 2.164 1.136 2.697 2.414l.167-.07a11.374 11.374 0 0 0-.652-2.12c-.757-.366-1.574-.508-2.415-.508-2.474 0-4.674 1.42-4.674 4.094 0 2.107 1.645 4.237 4.77 4.237.899 0 1.81-.178 2.592-.639v-1.94zM180.848 362.209c0-2.544-1.846-4.164-4.33-4.164-2.497 0-4.333 1.62-4.333 4.175 0 2.522 1.847 4.156 4.32 4.156 3.03 0 4.343-2.06 4.343-4.167m-7.29.296c0-1.834.97-4.177 3.101-4.177 1.951 0 2.817 1.988 2.817 3.68-.036 2.096-1.255 4.083-3.066 4.083-2.036 0-2.852-1.987-2.852-3.586M190.352 362.209c0-2.544-1.846-4.164-4.33-4.164-2.498 0-4.332 1.62-4.332 4.175 0 2.522 1.846 4.156 4.32 4.156 3.03 0 4.342-2.06 4.342-4.167m-7.29.296c0-1.834.971-4.177 3.101-4.177 1.954 0 2.817 1.988 2.817 3.68-.036 2.096-1.255 4.083-3.066 4.083-2.034 0-2.852-1.987-2.852-3.586M193.078 360.127c.035-1.22.047-1.574 1.574-1.763v-.178h-4.084v.178c1.422.189 1.433.544 1.468 1.763v4.166c-.035 1.219-.046 1.574-1.468 1.762v.179h3.763v-.18c-1.206-.187-1.218-.542-1.253-1.761v-4.166zm5.35 6.107v-.18c-1.35-.14-2.25-1.288-3.126-2.2l-1.112-1.183 2.403-2.65c.722-.793 1.574-1.503 2.626-1.798l-.059-.18c-2.059.167-2.39.226-3.503 1.445l-2.414 2.628 1.905 2.07c1.243 1.396 1.006 1.787.213 1.869v.179h3.066zM133.812 355.126v-.177c-1.077-.118-1.148-.782-1.195-2.344l-.072-2.59c-.034-1.529-.685-3.078-3.313-3.078-3.668 0-3.289 2.651-3.289 3.597v2.651c-.037 1.22-.048 1.574-1.468 1.764v.177h4.083v-.177c-1.55-.225-1.574-.462-1.574-1.764v-2.426c0-.225-.379-3.278 2.863-3.278 2.557 0 2.308 2.438 2.308 3.882v1.242c0 1.503-.118 2.19-1.774 2.344v.177h3.431zM142.047 348.937l-.06 4.32c-.011 1.124-.318 1.456-1.655 1.692v.177h3.228v-.177c-.816-.107-.97-.557-1.063-1.326-.166-1.301-.107-4.154-.048-6.733l-.153-.037c-1.894 2.237-4 4.309-6 6.463v-2.179c0-2.934-.071-3.537 1.645-3.88v-.179h-3.537v.179c1.597.165 1.537 1.255 1.537 3.94v1.775c0 1.184-.19 1.646-1.692 1.977v.177h1.953l5.845-6.189zM146.574 349.019c.035-1.218.049-1.574 1.468-1.763v-.178h-3.976v.178c1.419.189 1.432.545 1.467 1.763v4.166c-.035 1.22-.048 1.574-1.467 1.764v.177h3.976v-.177c-1.419-.19-1.433-.544-1.468-1.764v-4.166zM157.19 355.126v-.177c-1.114-.095-1.457-1.03-2.19-2.746l-2.262-5.396h-.164l-2.674 6.401c-.356.866-.628 1.623-1.68 1.741v.177h3.75v-.177c-1.669-.166-1.124-1.113-.817-1.859l1.893-4.568 1.398 3.35c1.016 2.426 1.206 2.816-.592 3.077v.177h3.337zM157.296 347.257c1.42.188 1.433.544 1.468 1.762v4.166c-.035 1.22-.047 1.574-1.468 1.764v.177h6.356l-.142-1.822h-.178c-.083 1.527-1.184 1.538-2.38 1.538h-1.146v-3.372h1.23c.886 0 1.563.07 1.692 1.088h.179v-2.64h-.18c-.152 1.042-.805 1.053-1.69 1.053h-1.231v-1.94c0-.697-.166-1.668 1.775-1.668 1.49 0 2.225.568 2.52 2.059h.178a7.491 7.491 0 0 0-.402-2.344h-6.581v.179zM166.205 352.689c0 1.81-.059 2.082-1.385 2.2v.166l2.888.095c2.982.095 3.22-1.361 3.22-1.93 0-.993-.616-1.561-1.468-1.941l.06-.082c.91-1.597 2.046-3.633 4-4.036l-.037-.176c-1.255.059-2.177.022-2.864.733-.78.816-1.396 1.857-1.644 2.368-.474.98-.9.696-1.728.84v-1.907c0-1.301.022-1.537 1.644-1.762v-.18h-4.153v.18c1.42.188 1.431.544 1.467 1.762v3.67zm1.042-1.563c1.136.01 2.461.533 2.461 1.846 0 1.386-1.219 1.942-2.46 1.93v-3.776zM177.998 353.043h-.19c-.188.96-.497 1.883-1.667 1.883-.758 0-1.384-.52-1.384-1.303 0-2.047 3.726-1.976 3.726-4.368 0-1.525-1.515-2.318-2.875-2.318a3.92 3.92 0 0 0-2.084.604l-.342 2.01h.212c.296-1.136 1.088-2.259 2.391-2.259.875 0 1.56.52 1.56 1.442 0 2.107-3.619 1.918-3.619 4.286 0 1.385 1.371 2.26 2.637 2.26.604 0 1.208-.178 1.73-.462l-.095-1.775zM181.458 349.019c.035-1.218.048-1.574 1.468-1.763v-.178h-3.978v.178c1.422.189 1.433.545 1.469 1.763v4.166c-.036 1.22-.047 1.574-1.469 1.764v.177h3.978v-.177c-1.42-.19-1.433-.544-1.468-1.764v-4.166zM190.74 355.493h.095l.166-2.213-.166-.035c-.414 1.468-1.064 1.526-2.425 1.526h-.712v-5.467c0-1.467.072-1.858 1.658-2.047v-.18H185v.18c1.586.189 1.656.58 1.656 2.047v5.467h-.708c-1.363 0-2.013-.058-2.428-1.526l-.164.035.164 2.213h.095l.119-.106c.296-.273.344-.261.733-.261h5.42c.39 0 .438-.012.735.26l.118.107zM198.814 355.126v-.177c-1.03-.083-1.538-.65-2.036-1.504l-1.396-2.768v-1.339c.024-1.36.047-1.845 1.562-2.08v-.18h-4.166v.18c1.515.235 1.54.72 1.562 2.08v.948l-1.23 2.686c-.45.994-.77 1.835-1.965 1.977v.177h3.267v-.177c-.971-.13-.841-.52-.461-1.35l1.182-2.556 1.03 1.953c.733 1.373.639 1.822-.389 1.953v.177h3.04zM125.892 344.744h72.172v-.241h-72.172v.241zM127.113 342.05h.715l1.935-4.43h-.815l-.446 1.063h-2.081l-.452-1.063h-.792l1.936 4.43zm1.105-2.683l-.76 1.76-.753-1.76h1.513zM130.418 339.488v2.532h.773v-2.502c0-.816.421-1.257 1.112-1.257.685 0 1.106.415 1.106 1.227v2.532h.772v-2.494c0-1.315-.74-1.975-1.89-1.975-1.144 0-1.873.66-1.873 1.937M135.075 338.261l.466.553c.42-.363.842-.57 1.388-.57.477 0 .778.22.778.552v.013c0 .313-.174.484-.992.671-.936.227-1.464.504-1.464 1.314v.013c0 .754.629 1.275 1.502 1.275.64 0 1.149-.195 1.596-.553l-.414-.585c-.397.296-.792.453-1.195.453-.453 0-.716-.232-.716-.522v-.01c0-.34.2-.492 1.042-.693.93-.227 1.415-.56 1.415-1.288v-.014c0-.823-.648-1.312-1.571-1.312-.672 0-1.307.233-1.835.703M140.504 341.303h-1.396v.716h3.57v-.716h-1.395v-3.683h-.779v3.683zM143.622 342.02h1.96c.553 0 .987-.165 1.269-.44.233-.24.364-.567.364-.949v-.013c0-.722-.433-1.157-1.048-1.334l1.188-1.664h-.912l-1.081 1.533h-.97v-1.533h-.77v4.4zm1.903-2.183c.553 0 .905.292.905.737v.013c0 .471-.34.73-.911.73h-1.126v-1.48h1.132zM149.848 342.05h.716l1.936-4.43h-.816l-.447 1.063h-2.08l-.452-1.063h-.792l1.935 4.43zm1.106-2.683l-.76 1.76-.754-1.76h1.514zM153.38 342.02h.774v-3.695h2.312v-.705h-3.086v4.4zM157.44 342.019h.773v-4.399h-.773v4.399zM161.072 342.05h.716l1.935-4.43h-.815l-.447 1.063h-2.08l-.452-1.063h-.792l1.935 4.43zm1.106-2.683l-.76 1.76-.754-1.76h1.514z" fill="#231f20"/><path d="M118.428 359.495c-.59-.34-1.43-.552-2.365-.552-.936 0-1.777.212-2.366.55-.59.34-1.431.553-2.365.553-.935 0-1.78-.212-2.366-.552-.59-.34-1.431-.551-2.367-.551-.934 0-1.776.212-2.364.55-.59.34-1.431.553-2.367.553-.087 0-.174-.004-.261-.007v-2.19c0-.331.012-.65.03-.964.077.003.154.007.23.007.937 0 1.778-.213 2.368-.553.588-.34 1.43-.551 2.364-.551.936 0 1.777.212 2.367.55.587.34 1.43.554 2.366.554.934 0 1.776-.213 2.365-.553.589-.34 1.43-.551 2.366-.551.935 0 1.776.212 2.365.552.589.339 1.43.552 2.364.552.08 0 .156-.004.232-.007.019.314.03.633.03.964v2.19c-.086.003-.171.007-.262.007-.934 0-1.775-.212-2.364-.551M116.063 352.633c-.937 0-1.779.212-2.367.551-.588.34-1.43.553-2.364.553-.935 0-1.778-.214-2.366-.553-.59-.339-1.431-.55-2.367-.55-.935-.002-1.777.211-2.365.55-.523.302-1.246.503-2.056.543a11.608 11.608 0 0 1 1.751-3.547 3.33 3.33 0 0 0 .305-.15c.589-.34 1.43-.553 2.365-.553.935 0 1.776.213 2.366.552.589.34 1.432.553 2.367.553.934 0 1.776-.212 2.365-.553.587-.339 1.43-.552 2.365-.552.936 0 1.777.213 2.366.552.094.056.198.104.304.152a11.59 11.59 0 0 1 1.752 3.546c-.81-.04-1.533-.24-2.056-.543-.59-.339-1.43-.55-2.365-.55M113.696 346.875c-.589.338-1.43.552-2.365.552-.935 0-1.778-.214-2.366-.552a3.916 3.916 0 0 0-1.008-.391c1.356-.907 2.61-1.573 3.374-2.212.764.639 2.017 1.305 3.373 2.212a3.916 3.916 0 0 0-1.008.39M118.428 365.805c-.59-.34-1.43-.553-2.365-.553-.936 0-1.777.213-2.366.553-.59.338-1.431.55-2.365.55-.935 0-1.78-.212-2.366-.55-.59-.34-1.431-.553-2.367-.553-.934 0-1.776.213-2.364.553-.59.338-1.431.55-2.367.55-.087 0-.174-.002-.261-.006v-3.155c.087.003.174.006.26.006.937 0 1.778-.211 2.368-.55.588-.341 1.43-.553 2.364-.553.936 0 1.777.212 2.367.553.587.339 1.43.55 2.366.55.934 0 1.776-.211 2.365-.55.589-.341 1.43-.553 2.366-.553.935 0 1.776.212 2.365.553.589.339 1.43.55 2.364.55.09 0 .176-.003.262-.006v3.155a5.541 5.541 0 0 1-.262.007c-.934 0-1.775-.213-2.364-.551" fill="#176fc1"/><path d="M111.331 372.283a3.188 3.188 0 0 1-3.188-3.188c0-.158.016-.314.038-.466.293.088.558.2.784.33.588.338 1.431.551 2.366.551.934 0 1.776-.213 2.365-.55.227-.132.492-.243.785-.332.022.153.038.308.038.467a3.188 3.188 0 0 1-3.188 3.188m-4.345-.936c-.063-.01-.126-.027-.19-.039a2.32 2.32 0 0 0-.49-.027c-.166.006-.36.045-.47.117-.029-.166.176-.385.35-.503a1.56 1.56 0 0 1 .378-.195c.053-.019.105-.028.156-.047.16-.056.317-.158.44-.268.162-.142.295-.323.42-.482.098.465.284.902.537 1.288-.168.06-.35.125-.548.156a1.963 1.963 0 0 1-.583 0m11.627-2.252l-3.5.627a3.71 3.71 0 0 0 .057-.627c0-.213-.022-.42-.057-.626l3.5.626zm-11.068.627l-3.497-.627 3.5-.626a4.047 4.047 0 0 0-.057.626c0 .213.024.423.054.627m8.45.853c.04.053.07.11.11.162.096.141.206.256.323.366.122.112.288.223.418.251-.099.135-.399.147-.606.106a1.605 1.605 0 0 1-.405-.128c-.05-.025-.093-.055-.144-.079a1.4 1.4 0 0 0-.5-.12c-.214-.015-.437.02-.637.045h-.003c.252-.388.437-.823.535-1.292.163.077.334.16.496.278.144.104.294.25.413.411m-6.848 1.674l-2.2 1.232 1.227-2.202c.266.38.594.71.973.97m5.34-.97l1.227 2.202-2.199-1.232c.378-.26.707-.59.972-.97m-2.51 1.597l-.646 6.414-.646-6.414c.211.034.425.058.646.058.22 0 .434-.024.645-.058m-2.882.724c.024-.049.055-.094.08-.144a1.41 1.41 0 0 0 .12-.5c.013-.215-.02-.437-.046-.636v-.004a3.82 3.82 0 0 0 1.291.536 2.791 2.791 0 0 1-.277.495c-.105.145-.25.294-.41.411-.054.04-.11.071-.164.11-.14.098-.254.207-.366.324-.11.122-.223.29-.249.42-.136-.1-.147-.4-.107-.607.028-.143.066-.277.128-.405m4.49-.744c.026.176.03.385 0 .584-.01.064-.03.127-.04.191a2.459 2.459 0 0 0-.029.49c.007.163.044.361.118.471-.165.026-.384-.178-.502-.353a1.534 1.534 0 0 1-.196-.379c-.018-.049-.029-.104-.046-.154a1.423 1.423 0 0 0-.268-.442 3.41 3.41 0 0 0-.484-.415 3.854 3.854 0 0 0 1.29-.54c.06.17.123.351.156.547" fill="#e7b20f"/></g><g clip-path="url(#b)" transform="matrix(1.25 0 0 -1.25 -127.008 474.113)"><path d="M249.196 340.886h.468v3.765h1.176l.14.391H248v-.39h1.195v-3.766zm2.808-.063c.841 0 1.384.687 1.384 1.558 0 .876-.55 1.564-1.378 1.564-.847 0-1.384-.688-1.384-1.564 0-.87.544-1.558 1.378-1.558m0 .397c-.55 0-.898.48-.898 1.161 0 .687.348 1.166.904 1.166.544 0 .892-.479.892-1.166 0-.68-.348-1.16-.898-1.16m2.428-.354h.411l.714 2.39h.013l.708-2.39h.405l.992 3.002h-.474l-.695-2.378h-.013l-.714 2.378h-.437l-.689-2.378h-.012l-.708 2.378h-.487l.986-3.002zm3.564.02h.467v2.194c.278.246.582.447.917.447.424 0 .537-.34.537-.788v-1.854h.462v2.012c0 .75-.417 1.047-.885 1.047-.386 0-.72-.183-1.05-.46l-.057.384h-.39v-2.983zm2.742.188c.19-.12.506-.252.898-.252.613 0 1.106.284 1.106.877 0 1.01-1.409.782-1.409 1.444 0 .321.29.416.575.416.291 0 .518-.076.721-.164v.41a2.084 2.084 0 0 1-.74.14c-.664 0-1.01-.367-1.01-.82 0-.99 1.396-.783 1.396-1.433 0-.34-.29-.479-.639-.479-.335 0-.575.114-.746.221l-.152-.36zm3.323-.208h.398l1.145 3.002h-.48l-.848-2.384h-.012l-.873 2.384h-.487l1.157-3.002zm1.892.02h.462v2.982h-.462v-2.983zm.227 3.657c.183 0 .316.132.316.31a.301.301 0 0 1-.316.314.303.303 0 0 1-.31-.315c0-.177.127-.309.31-.309m.907-3.116c0-.359.183-.58.562-.58.14 0 .297.032.417.088l-.1.366a.59.59 0 0 0-.184-.044c-.158 0-.234.07-.234.315v3.778h-.46v-3.923zm1.286 0c0-.359.183-.58.563-.58.14 0 .297.032.417.088l-.1.366a.604.604 0 0 0-.185-.044c-.158 0-.234.07-.234.315v3.778h-.46v-3.923zm2.48-.605c.334 0 .694.095.953.265l-.152.328a1.503 1.503 0 0 0-.733-.202c-.638 0-.986.473-.999 1.085h1.941v.113c0 .94-.43 1.533-1.188 1.533-.727 0-1.227-.625-1.227-1.533 0-.87.462-1.589 1.404-1.589m-.923 1.835c.006.498.29.908.746.908.474 0 .695-.454.701-.908h-1.447zM248.21 350.668a1.93 1.93 0 0 1 1.094-.315c.796 0 1.334.416 1.334 1.11 0 1.292-1.834 1.192-1.834 2.131 0 .448.38.612.752.612.317 0 .633-.082.892-.227v.436c-.19.095-.525.189-.904.189-.778 0-1.227-.466-1.227-1.053 0-1.242 1.834-1.122 1.834-2.12 0-.491-.392-.674-.84-.674a1.66 1.66 0 0 0-.905.278l-.196-.366zm2.98-.252h.461v2.983h-.462v-2.983zm.227 3.658c.183 0 .316.132.316.31a.302.302 0 0 1-.316.315.304.304 0 0 1-.31-.315c0-.177.127-.31.31-.31m.903-3.658h.468v2.194c.278.246.582.448.917.448.423 0 .537-.34.537-.788v-1.854h.461v2.012c0 .75-.417 1.046-.884 1.046-.386 0-.72-.182-1.05-.46l-.057.385h-.392v-2.983zm4.003-1.495c.891 0 1.441.372 1.441.933 0 1.11-1.973.587-1.973 1.18 0 .107.045.214.16.34.112-.037.245-.063.39-.063.69 0 1.157.435 1.157 1.08 0 .283-.113.566-.34.768.087.057.19.082.29.082a.757.757 0 0 0 .17-.019l.114.366a1.03 1.03 0 0 1-.183.02.83.83 0 0 1-.613-.247c-.019-.019-.032-.019-.064-.006a1.333 1.333 0 0 1-.562.113c-.645 0-1.1-.46-1.1-1.059 0-.404.183-.719.461-.902-.259-.234-.316-.448-.316-.587 0-.157.083-.296.215-.372-.379-.183-.556-.466-.556-.769 0-.543.518-.858 1.31-.858m.036.366c-.537 0-.916.208-.916.567 0 .291.26.461.411.562.55-.164 1.441-.07 1.441-.612 0-.284-.303-.517-.936-.517m-.012 2.41c-.424 0-.677.295-.677.705 0 .417.28.681.677.681.398 0 .676-.29.676-.687 0-.454-.29-.7-.676-.7m3.45-1.28h.41c-.038.151-.057.43-.057 1.015v1.028c0 .713-.442 1.015-1.06 1.015-.33 0-.703-.08-1.05-.302l.176-.328c.21.126.462.246.822.246.373 0 .645-.202.645-.656v-.189l-.569-.019c-.304-.013-.544-.044-.746-.145-.304-.139-.506-.41-.506-.808 0-.574.405-.92.948-.92.373 0 .664.176.898.397l.088-.334zm-.114 1.476v-.757c-.139-.145-.417-.39-.79-.39-.342 0-.557.226-.557.554 0 .195.09.365.26.46.132.07.303.107.562.114l.525.02zm1.091-2.97h.468v1.538c.145-.063.335-.107.524-.107.866 0 1.511.6 1.511 1.57 0 .984-.569 1.551-1.517 1.551-.322 0-.67-.063-.986-.182v-4.37zm.468 1.954v2.125c.164.051.322.076.505.076.594 0 1.05-.353 1.05-1.14 0-.714-.367-1.187-1.043-1.187-.196 0-.342.044-.512.126m3.745-.523c.84 0 1.384.687 1.384 1.557 0 .877-.55 1.564-1.378 1.564-.847 0-1.385-.687-1.385-1.564 0-.87.544-1.557 1.38-1.557m0 .397c-.552 0-.899.48-.899 1.16 0 .688.347 1.167.904 1.167.544 0 .891-.479.891-1.167 0-.68-.347-1.16-.897-1.16m1.862-.334h.468v2.194c.291.297.506.43.721.43a.542.542 0 0 0 .26-.064l.163.423a.693.693 0 0 1-.322.075c-.259 0-.512-.094-.84-.454l-.058.38h-.392v-2.984zm3.021-.063a1.8 1.8 0 0 1 .955.265l-.152.327a1.513 1.513 0 0 0-.733-.2c-.638 0-.986.472-.999 1.083h1.941v.114c0 .94-.43 1.532-1.189 1.532-.726 0-1.226-.624-1.226-1.532 0-.87.462-1.589 1.403-1.589m-.922 1.835c.006.498.29.908.745.908.475 0 .696-.454.702-.908h-1.447zM251.238 360.545a2.07 2.07 0 0 0-.992-.259c-.949 0-1.537.707-1.537 1.722 0 .978.607 1.722 1.581 1.722.423 0 .733-.1 1.024-.259v.442c-.209.12-.588.22-1.03.22-1.233 0-2.068-.952-2.068-2.163 0-1.217.74-2.087 1.985-2.087.38 0 .771.082 1.163.29l-.126.372zm2.362-.599h.411c-.038.151-.057.43-.057 1.015v1.028c0 .713-.443 1.016-1.062 1.016-.329 0-.702-.082-1.05-.303l.177-.328c.21.126.462.246.822.246.373 0 .645-.202.645-.656v-.189l-.569-.019c-.303-.013-.544-.044-.746-.145-.303-.139-.506-.41-.506-.807 0-.574.405-.92.95-.92.372 0 .662.175.896.396l.09-.334zm-.114 1.476v-.757c-.139-.145-.417-.39-.79-.39-.342 0-.557.226-.557.554 0 .195.09.366.26.46.132.07.303.107.562.114l.525.02zm1.113-1.476h.462v2.983h-.462v-2.983zm.228 3.658c.183 0 .316.132.316.31a.302.302 0 0 1-.316.314.303.303 0 0 1-.31-.315c0-.177.126-.309.31-.309m.903-3.658h.468v2.195c.291.296.506.428.721.428a.542.542 0 0 0 .26-.063l.163.423a.696.696 0 0 1-.322.076c-.259 0-.512-.095-.84-.455l-.058.38h-.392v-2.984zm1.897 0h.468v2.195c.278.245.582.447.917.447.423 0 .537-.34.537-.788v-1.854h.461v2.012c0 .75-.417 1.047-.885 1.047-.385 0-.72-.183-1.049-.46l-.057.384h-.392v-2.983zm2.743.19c.19-.12.506-.253.898-.253.613 0 1.106.284 1.106.876 0 1.01-1.41.782-1.41 1.445 0 .321.291.416.576.416.29 0 .518-.076.72-.164v.41a2.1 2.1 0 0 1-.739.14c-.664 0-1.012-.367-1.012-.82 0-.99 1.397-.783 1.397-1.433 0-.34-.29-.479-.638-.479-.335 0-.576.113-.746.22l-.152-.359z" fill="#176fc1"/></g><path d="M182.835 16.733h30.4v-.44h-30.4v.44zM182.835 52.167h30.4v-.44h-30.4v.44zM182.835 28.53h30.4v-.44h-30.4v.44zM182.835 40.42h30.4v-.44h-30.4v.44z" fill="#176fc1"/></svg>