<svg xmlns="http://www.w3.org/2000/svg" width="130.16" height="55.656" viewBox="0 0 122.02538 52.17775"><defs><clipPath id="a"><path d="M99.713 240.803h100.346v44.788H99.713v-44.788z"/></clipPath></defs><g clip-path="url(#a)" transform="matrix(1.25 0 0 -1.25 -126.75 355.742)"><path d="M125.938 269.595c0 1.302-.024 1.54-1.574 1.763v.178h4.072v-.178c-1.42-.189-1.457-.544-1.457-1.763v-4.237c.013-2.296-.259-2.805-2.828-3.905l-.095.201c1.74.817 1.882 2.094 1.882 4.224v3.717zM130.416 266.862c-.2-.592-.724-1.824-.724-2.391 0-.722.818-.722 1.351-.805v-.177H127.8v.177c1.054.284 1.16.52 1.526 1.445l1.337 3.49.711 1.93c.106.308.26.59.13.816.32.13.615.343.864.639l2.604-6.935c.32-.864.521-1.207 1.467-1.385v-.177h-3.479v.177c.414.095.912.226.912.757 0 .498-.45 1.61-.758 2.439h-2.698zm1.313 3.62l-1.113-3.075h2.344l-1.23 3.076zM142.167 265.216l2.142 4.71c.296.65.462 1.243.201 1.42l.025.19h2.601v-.178c-.756-.154-1.217-.438-1.17-1.266l.26-4.308c.13-1.645.13-1.906 1.396-2.119v-.177h-3.892v.177c.911.143 1.49.25 1.431 1.29l-.32 5.172h-.023l-3.017-6.639h-.13l-2.805 6.367h-.023a75.99 75.99 0 0 1-.368-4.957c-.023-.462-.012-.996 1.421-1.233v-.177h-3.3v.177c1.052.178 1.157.687 1.324 1.645l.437 3.326.154 1.61c.072.781-.603 1.053-1.3 1.112v.178h2.555l.011-.13c-.26-.272.06-.983.142-1.172l2.248-5.018zM148.11 263.665c1.421.19 1.432.545 1.466 1.764v4.166c-.034 1.22-.045 1.574-1.466 1.763v.178h6.355l-.143-1.822h-.176c-.084 1.526-1.185 1.538-2.379 1.538h-1.148v-3.373h1.23c.887 0 1.562.071 1.692 1.088h.178v-2.638h-.178c-.154 1.04-.805 1.054-1.692 1.054h-1.23v-1.942c0-.697-.166-1.668 1.775-1.668 1.491 0 2.224.566 2.52 2.06h.177a7.458 7.458 0 0 0-.401-2.345h-6.58v.177zM160.513 269.453h-.19c-.188.96-.496 1.882-1.667 1.882-.76 0-1.385-.52-1.385-1.302 0-2.047 3.727-1.976 3.727-4.367 0-1.526-1.515-2.32-2.875-2.32-.723 0-1.48.213-2.082.604l-.345 2.012h.213c.295-1.137 1.089-2.26 2.39-2.26.875 0 1.564.52 1.564 1.443 0 2.106-3.621 1.917-3.621 4.284 0 1.385 1.372 2.26 2.637 2.26.604 0 1.208-.177 1.729-.46l-.095-1.776zM170.988 269.098h-.178c-.225 1.338-1.007 2.295-2.426 2.295-2.166 0-3.386-1.774-3.386-3.81 0-2.332 1.787-3.952 3.505-3.952 1.548 0 2.164 1.135 2.697 2.413l.167-.07a11.364 11.364 0 0 0-.652-2.119c-.757-.367-1.574-.509-2.415-.509-2.474 0-4.675 1.42-4.675 4.095 0 2.107 1.646 4.237 4.77 4.237.9 0 1.811-.178 2.593-.639v-1.94zM180.647 267.512c0-2.545-1.846-4.165-4.332-4.165-2.496 0-4.332 1.62-4.332 4.176 0 2.522 1.847 4.156 4.32 4.156 3.03 0 4.344-2.06 4.344-4.167m-7.29.296c0-1.834.97-4.177 3.1-4.177 1.952 0 2.818 1.988 2.818 3.68-.036 2.096-1.255 4.083-3.066 4.083-2.036 0-2.852-1.987-2.852-3.586M190.151 267.512c0-2.545-1.846-4.165-4.33-4.165-2.498 0-4.332 1.62-4.332 4.176 0 2.522 1.847 4.156 4.32 4.156 3.03 0 4.343-2.06 4.343-4.167m-7.29.296c0-1.834.97-4.177 3.1-4.177 1.954 0 2.818 1.988 2.818 3.68-.036 2.096-1.255 4.083-3.066 4.083-2.034 0-2.852-1.987-2.852-3.586M192.878 265.43c.035-1.22.047-1.575 1.574-1.765v-.177h-4.084v.177c1.42.19 1.433.545 1.468 1.764v4.166c-.035 1.22-.047 1.574-1.468 1.763v.178h3.763v-.178c-1.206-.189-1.218-.544-1.253-1.763v-4.166zm5.349 6.106v-.178c-1.35-.142-2.248-1.29-3.124-2.2l-1.113-1.185 2.403-2.65c.722-.793 1.575-1.503 2.627-1.799l-.06-.178c-2.058.166-2.39.225-3.503 1.444l-2.414 2.628 1.906 2.07c1.242 1.396 1.005 1.788.212 1.87v.178h3.066zM133.607 260.428v-.177c-1.077-.118-1.148-.782-1.195-2.344l-.072-2.59c-.034-1.529-.686-3.078-3.313-3.078-3.668 0-3.29 2.651-3.29 3.597v2.651c-.036 1.22-.048 1.574-1.468 1.764v.177h4.084v-.177c-1.55-.225-1.574-.462-1.574-1.764v-2.426c0-.225-.38-3.279 2.863-3.279 2.557 0 2.308 2.438 2.308 3.883v1.242c0 1.503-.118 2.19-1.775 2.344v.177h3.432zM141.842 254.239l-.059 4.32c-.012 1.124-.319 1.456-1.657 1.693v.177h3.23v-.177c-.817-.107-.97-.557-1.064-1.327-.166-1.3-.107-4.154-.048-6.734l-.153-.036c-1.894 2.237-4 4.309-6 6.464v-2.18c0-2.934-.07-3.537 1.645-3.88v-.18h-3.538v.18c1.597.164 1.537 1.255 1.537 3.94v1.775c0 1.184-.189 1.646-1.69 1.978v.177h1.951l5.846-6.19zM146.37 254.32c.035-1.217.049-1.573 1.468-1.762v-.178h-3.976v.178c1.419.189 1.432.545 1.467 1.763v4.166c-.035 1.22-.048 1.574-1.467 1.765v.177h3.976v-.177c-1.419-.191-1.433-.544-1.468-1.765v-4.166zM156.986 260.428v-.177c-1.113-.095-1.456-1.03-2.189-2.746l-2.262-5.397h-.165l-2.674 6.402c-.356.866-.628 1.623-1.681 1.741v.177h3.752v-.177c-1.669-.166-1.125-1.113-.817-1.859l1.893-4.568 1.398 3.35c1.016 2.426 1.206 2.816-.593 3.077v.177h3.338zM157.092 252.559c1.422.188 1.433.544 1.468 1.762v4.167c-.035 1.22-.046 1.574-1.468 1.764v.177h6.356l-.142-1.823h-.177c-.084 1.528-1.185 1.539-2.38 1.539h-1.147v-3.373h1.231c.886 0 1.562.07 1.692 1.089h.178v-2.64h-.178c-.154 1.04-.806 1.053-1.692 1.053h-1.23v-1.941c0-.697-.167-1.668 1.775-1.668 1.49 0 2.224.568 2.52 2.059h.177a7.44 7.44 0 0 0-.402-2.344h-6.58v.179zM166.003 257.99c0 1.812-.06 2.083-1.385 2.202v.165l2.888.095c2.982.095 3.219-1.361 3.219-1.93 0-.993-.615-1.561-1.467-1.941l.059-.082c.91-1.597 2.047-3.633 4-4.037l-.036-.176c-1.254.06-2.177.023-2.863.733-.782.817-1.397 1.858-1.645 2.369-.474.98-.9.696-1.728.84v-1.907c0-1.302.022-1.538 1.644-1.762v-.18h-4.153v.18c1.419.188 1.43.544 1.467 1.762v3.67zm1.042-1.562c1.136.01 2.462.533 2.462 1.846 0 1.386-1.22 1.942-2.462 1.93v-3.776zM177.796 258.345h-.19c-.188.96-.497 1.883-1.667 1.883-.758 0-1.384-.52-1.384-1.303 0-2.047 3.726-1.976 3.726-4.368 0-1.525-1.515-2.318-2.875-2.318-.722 0-1.481.212-2.084.604l-.342 2.01h.212c.297-1.136 1.089-2.26 2.392-2.26.875 0 1.56.52 1.56 1.443 0 2.107-3.62 1.918-3.62 4.286 0 1.385 1.372 2.26 2.638 2.26.604 0 1.208-.177 1.729-.462l-.095-1.775zM181.257 254.32c.035-1.217.048-1.573 1.468-1.762v-.178h-3.978v.178c1.422.189 1.433.545 1.469 1.763v4.166c-.036 1.22-.047 1.574-1.47 1.765v.177h3.979v-.177c-1.42-.191-1.433-.544-1.468-1.765v-4.166zM190.54 260.795h.094l.166-2.213-.166-.036c-.414 1.469-1.064 1.527-2.425 1.527h-.712v-5.468c0-1.466.072-1.858 1.658-2.046v-.18H184.8v.18c1.585.188 1.656.58 1.656 2.046v5.468h-.71c-1.361 0-2.012-.058-2.427-1.527l-.164.036.164 2.213h.096l.118-.106c.296-.273.344-.261.734-.261h5.42c.39 0 .438-.012.735.26l.118.107zM198.614 260.428v-.177c-1.03-.083-1.538-.65-2.036-1.504l-1.396-2.768v-1.34c.024-1.359.047-1.845 1.562-2.08v-.18h-4.167v.18c1.516.235 1.54.721 1.563 2.08v.95l-1.23 2.685c-.45.994-.77 1.835-1.966 1.977v.177h3.267v-.177c-.971-.13-.84-.52-.46-1.35l1.182-2.556 1.029 1.953c.734 1.373.64 1.822-.39 1.953v.177h3.042zM125.687 250.045h72.178v-.241h-72.178v.241zM126.907 247.352h.715l1.936-4.43h-.816l-.446 1.061h-2.08l-.453-1.062h-.792l1.936 4.431zm1.105-2.684l-.76 1.76-.753-1.76h1.513zM130.213 244.789v2.532h.773v-2.502c0-.816.421-1.257 1.112-1.257.685 0 1.106.415 1.106 1.227v2.532h.773v-2.494c0-1.315-.742-1.975-1.892-1.975-1.143 0-1.872.66-1.872 1.937M134.87 243.562l.466.553c.42-.363.842-.57 1.388-.57.477 0 .778.22.778.552v.013c0 .313-.174.484-.992.671-.936.227-1.464.504-1.464 1.314v.013c0 .754.629 1.275 1.502 1.275a2.44 2.44 0 0 0 1.596-.553l-.414-.584c-.396.295-.792.452-1.195.452-.452 0-.716-.232-.716-.522v-.01c0-.34.2-.492 1.042-.693.932-.227 1.415-.56 1.415-1.288v-.014c0-.823-.648-1.312-1.571-1.312-.672 0-1.307.233-1.835.703M140.3 246.604h-1.396v.716h3.57v-.716h-1.395v-3.683h-.78v3.683zM143.417 247.32h1.96c.553 0 .987-.164 1.27-.439a1.33 1.33 0 0 0 .364-.949v-.013c0-.722-.433-1.157-1.049-1.334l1.188-1.665h-.912l-1.08 1.534h-.97v-1.534h-.77v4.4zm1.903-2.182c.554 0 .905.291.905.737v.012c0 .472-.339.73-.91.73h-1.127v-1.479h1.132zM149.644 247.352h.716l1.936-4.43h-.816l-.447 1.061h-2.08l-.452-1.062h-.792l1.935 4.431zm1.106-2.684l-.76 1.76-.754-1.76h1.514zM153.176 247.32h.774v-3.695h2.313v-.705h-3.087v4.4zM157.237 247.32h.773v-4.4h-.773v4.4zM160.869 247.352h.716l1.936-4.43h-.816l-.447 1.061h-2.08l-.452-1.062h-.792l1.935 4.431zm1.106-2.684l-.76 1.76-.754-1.76h1.514zM118.222 264.797c-.59-.34-1.431-.552-2.365-.552-.937 0-1.777.212-2.367.551-.588.34-1.431.552-2.365.552-.935 0-1.778-.212-2.366-.552-.59-.339-1.431-.55-2.367-.55-.934 0-1.776.211-2.364.55-.59.34-1.432.552-2.368.552-.087 0-.173-.003-.26-.007v-2.19c0-.33.011-.65.03-.964.076.003.153.007.23.007.937 0 1.778-.213 2.368-.553.587-.339 1.43-.55 2.363-.55.937 0 1.778.211 2.368.55.588.34 1.43.553 2.366.553.934 0 1.777-.213 2.365-.553.59-.339 1.43-.55 2.367-.55.934 0 1.776.211 2.365.55.589.34 1.43.553 2.365.553.078 0 .154-.004.23-.007.02.314.032.633.032.964v2.19a5.578 5.578 0 0 1-.263.007c-.933 0-1.775-.212-2.364-.55M115.856 257.935c-.936 0-1.778.212-2.366.551-.589.34-1.432.553-2.366.553-.934 0-1.777-.213-2.366-.553-.589-.339-1.43-.551-2.366-.551-.935-.001-1.777.212-2.365.551-.524.302-1.247.503-2.057.543a11.608 11.608 0 0 1 1.752-3.547 3.33 3.33 0 0 0 .305-.151c.588-.339 1.43-.552 2.365-.552.935 0 1.777.213 2.366.552.59.339 1.432.553 2.366.553.934 0 1.777-.212 2.366-.553.588-.339 1.43-.552 2.366-.552.935 0 1.776.213 2.365.552.095.056.2.104.306.152a11.612 11.612 0 0 1 1.751 3.546c-.81-.04-1.534-.241-2.057-.543-.589-.339-1.43-.551-2.365-.551M113.49 252.176c-.59.34-1.431.552-2.365.552-.935 0-1.778-.213-2.366-.552a3.91 3.91 0 0 0-1.01-.39c1.358-.908 2.61-1.575 3.376-2.213.763.638 2.017 1.305 3.374 2.212a3.91 3.91 0 0 0-1.01.391M118.222 271.108c-.59-.34-1.431-.553-2.365-.553-.937 0-1.777.213-2.367.553-.588.338-1.431.55-2.365.55-.935 0-1.778-.213-2.366-.55-.59-.34-1.431-.553-2.367-.553-.934 0-1.776.213-2.364.553-.59.338-1.432.55-2.368.55-.087 0-.173-.003-.26-.007v-3.155c.086.004.172.007.26.007.937 0 1.778-.211 2.368-.551.587-.34 1.43-.552 2.363-.552.937 0 1.778.212 2.368.552.588.34 1.43.55 2.366.55.934 0 1.777-.21 2.365-.55.59-.34 1.43-.552 2.367-.552.934 0 1.776.212 2.365.552.589.34 1.43.55 2.365.55.09 0 .175-.003.261-.006v3.156a5.578 5.578 0 0 1-.261.007c-.935 0-1.777-.213-2.366-.551M111.125 277.587a3.188 3.188 0 0 1-3.188-3.188c0-.16.016-.314.038-.466.293.088.557.199.784.33.588.338 1.43.55 2.366.55.934 0 1.776-.212 2.365-.55.227-.131.492-.242.785-.331.022.153.038.308.038.467a3.188 3.188 0 0 1-3.188 3.188m-4.345-.936c-.063-.01-.127-.027-.191-.04a2.329 2.329 0 0 0-.49-.026c-.165.006-.36.045-.47.117-.028-.166.177-.385.35-.503.12-.081.246-.151.379-.195.052-.02.104-.028.156-.047.16-.056.316-.158.44-.268.16-.142.295-.323.418-.482.099.465.286.9.539 1.288-.168.06-.35.125-.55.156a1.956 1.956 0 0 1-.581 0m11.627-2.253l-3.5.628a3.71 3.71 0 0 0 .057-.627 3.71 3.71 0 0 0-.057-.627l3.5.626zm-11.068.628l-3.498-.628 3.5-.626a4.049 4.049 0 0 0-.056.627c0 .213.024.423.054.627m8.45.853c.039.053.07.11.109.162.097.14.208.256.324.365.122.113.289.224.418.252-.098.134-.4.147-.605.106a1.58 1.58 0 0 1-.405-.128c-.051-.025-.094-.056-.144-.08a1.385 1.385 0 0 0-.502-.12c-.212-.014-.435.02-.635.046h-.004c.253-.39.437-.823.536-1.292.162.077.333.16.496.277.143.105.293.25.412.412m-6.848 1.674l-2.201 1.232 1.228-2.202c.266.38.593.709.973.97m5.34-.97l1.228 2.202-2.2-1.232a3.83 3.83 0 0 0 .972-.97m-2.51 1.597l-.646 6.414-.646-6.414c.21.034.425.058.646.058.219 0 .434-.024.646-.058m-2.883.724c.024-.05.055-.094.078-.144a1.39 1.39 0 0 0 .122-.5c.013-.215-.02-.437-.046-.636v-.004a3.82 3.82 0 0 0 1.29.536 2.834 2.834 0 0 1-.276.496c-.105.144-.25.293-.411.41-.053.039-.11.072-.163.109a2.453 2.453 0 0 0-.366.325c-.112.123-.223.289-.25.419-.136-.1-.146-.4-.106-.606.028-.143.065-.277.128-.405m4.489-.744c.027.176.03.385 0 .585-.01.063-.03.126-.04.19a2.463 2.463 0 0 0-.028.489c.007.165.044.362.119.472-.166.026-.385-.178-.503-.352a1.57 1.57 0 0 1-.196-.38c-.018-.05-.028-.104-.046-.154a1.423 1.423 0 0 0-.268-.442 3.41 3.41 0 0 0-.484-.415l-.001-.001a3.845 3.845 0 0 0 1.29-.54c.06.17.124.352.157.548" fill="#231f20"/></g></svg>