<svg xmlns="http://www.w3.org/2000/svg" viewBox="0 0 230.31426 121.176" height="129.254" width="245.669"><defs><clipPath id="a"><path d="M18.346 589.402h187.087v100.913H18.346V589.402z"/></clipPath></defs><g clip-path="url(#a)" transform="matrix(1.25 0 0 -1.25 -22.933 862.893)"><path d="M99.296 668.25h1.625v-6.442c0-.872-.064-1.53-.191-1.975a4.29 4.29 0 0 0-.472-1.108 3.517 3.517 0 0 0-.686-.792c-.9-.775-2.076-1.162-3.528-1.162-1.48 0-2.666.384-3.56 1.154-.271.238-.5.504-.686.8a4.107 4.107 0 0 0-.464 1.084c-.122.428-.182 1.1-.182 2.015v6.426h1.624v-6.441c0-1.066.122-1.81.367-2.225.244-.417.616-.752 1.117-1.003.499-.252 1.088-.378 1.768-.378.967 0 1.755.252 2.364.755.319.27.55.59.692.959.14.368.212.999.212 1.892v6.44zM113.434 668.25h1.539v-11.351h-1.393l-7.585 8.742v-8.742h-1.518v11.35h1.307l7.65-8.816v8.817zM118.672 668.25h1.625v-11.351h-1.625v11.351zM131.214 668.25h1.63l-4.804-11.394h-.39l-4.831 11.394h1.633l3.379-7.967 3.383 7.967zM135.375 668.25h6.435v-1.454H137v-3.463h4.64v-1.453H137v-3.527h4.96v-1.454h-6.585v11.35zM147.095 666.86h-.485v-3.57h.615c.82 0 1.382.07 1.688.211.305.14.543.352.712.635.17.283.256.606.256.968 0 .356-.095.678-.284.967a1.522 1.522 0 0 1-.797.611c-.344.119-.912.178-1.705.178m-2.11-9.961v11.351h2.843c1.145 0 2.057-.285 2.73-.854.675-.568 1.01-1.338 1.01-2.307 0-.661-.164-1.233-.495-1.715-.333-.482-.81-.842-1.427-1.08.363-.239.72-.564 1.067-.976.349-.412.836-1.13 1.464-2.153.396-.645.713-1.129.95-1.454l.602-.812h-1.934l-.494.748a1.806 1.806 0 0 1-.098.137l-.315.447-.503.829-.544.886a8.765 8.765 0 0 1-.921 1.112c-.28.276-.53.475-.754.596-.225.122-.603.183-1.134.183h-.422v-4.938h-1.625zM159.042 661.658l-1.235.75c-.774.473-1.326.94-1.654 1.396a2.652 2.652 0 0 0-.491 1.581c0 .893.31 1.62.928 2.177.619.558 1.423.837 2.412.837.946 0 1.814-.266 2.602-.796v-1.839c-.814.787-1.692 1.181-2.631 1.181-.53 0-.964-.123-1.305-.368-.34-.246-.51-.56-.51-.943 0-.34.126-.659.377-.956.25-.297.655-.609 1.21-.936l1.238-.735c1.38-.829 2.07-1.883 2.07-3.162 0-.91-.304-1.652-.912-2.22-.61-.57-1.401-.855-2.375-.855-1.12 0-2.141.351-3.061 1.053v2.052c.879-1.115 1.896-1.673 3.05-1.673.51 0 .933.142 1.273.425.338.283.508.64.508 1.065 0 .691-.5 1.346-1.494 1.966M165.107 668.25h1.625v-11.351h-1.625v11.351zM169.53 668.25H179v-1.454h-3.954v-9.897h-1.624v9.897h-3.891v1.454zM181.81 668.25h1.625v-11.351h-1.625v11.351zM187.217 668.25h6.434v-1.454h-4.809v-3.463h4.638v-1.453h-4.638v-3.527h4.96v-1.454h-6.585v11.35zM199.586 661.658l-1.235.75c-.775.473-1.325.94-1.652 1.396a2.64 2.64 0 0 0-.492 1.581c0 .893.308 1.62.929 2.177.618.558 1.421.837 2.411.837.946 0 1.813-.266 2.603-.796v-1.839c-.816.787-1.693 1.181-2.632 1.181-.529 0-.965-.123-1.304-.368-.341-.246-.51-.56-.51-.943 0-.34.125-.659.376-.956.251-.297.653-.609 1.209-.936l1.239-.735c1.38-.829 2.07-1.883 2.07-3.162 0-.91-.304-1.652-.913-2.22-.61-.57-1.401-.855-2.375-.855-1.12 0-2.141.351-3.06 1.053v2.052c.878-1.115 1.894-1.673 3.05-1.673.509 0 .934.142 1.272.425.339.283.509.64.509 1.065 0 .691-.498 1.346-1.495 1.966M97.417 644.742l-1.851 4.112-1.705-4.112h3.556zm-2.425 6.605h1.138l5.11-11.415H99.58l-1.512 3.356h-4.841l-1.411-3.356h-1.668l4.845 11.415zM111.307 651.284h1.625v-6.442c0-.873-.063-1.53-.19-1.974a4.25 4.25 0 0 0-.473-1.11 3.513 3.513 0 0 0-.686-.792c-.9-.775-2.076-1.162-3.528-1.162-1.479 0-2.666.384-3.56 1.154a3.665 3.665 0 0 0-.686.8 4.14 4.14 0 0 0-.464 1.084c-.12.428-.182 1.1-.182 2.015v6.426h1.624v-6.44c0-1.067.123-1.81.367-2.226.245-.417.617-.752 1.117-1.003.5-.252 1.09-.378 1.768-.378.968 0 1.756.252 2.364.756.32.27.551.59.693.958.14.368.211.998.211 1.892v6.441zM119.25 644.692l-1.234.75c-.774.473-1.326.94-1.653 1.396a2.645 2.645 0 0 0-.491 1.581c0 .894.309 1.62.928 2.177.618.558 1.422.837 2.412.837.945 0 1.812-.266 2.602-.796v-1.839c-.815.787-1.693 1.181-2.632 1.181-.53 0-.965-.123-1.304-.368-.341-.246-.51-.56-.51-.944 0-.339.125-.658.376-.955.25-.297.654-.609 1.21-.935l1.238-.736c1.38-.829 2.07-1.883 2.07-3.162 0-.91-.304-1.65-.913-2.22-.608-.57-1.4-.855-2.374-.855-1.121 0-2.141.351-3.061 1.053v2.052c.878-1.115 1.895-1.673 3.05-1.673.509 0 .934.142 1.273.425.339.284.508.638.508 1.065 0 .691-.498 1.346-1.495 1.966M124.33 651.284h9.47v-1.454h-3.954v-9.897h-1.625v9.897h-3.89v1.454zM138.764 649.894h-.486v-3.57h.615c.82 0 1.383.07 1.688.211.304.14.542.352.712.635.171.283.255.606.255.967 0 .357-.094.679-.283.967a1.513 1.513 0 0 1-.798.612c-.342.119-.91.178-1.703.178m-2.111-9.961v11.35h2.842c1.147 0 2.057-.284 2.732-.853.673-.568 1.01-1.338 1.01-2.308 0-.66-.166-1.231-.497-1.714-.331-.482-.808-.842-1.427-1.08a5.05 5.05 0 0 0 1.069-.976c.347-.413.834-1.13 1.462-2.153.396-.645.712-1.129.952-1.454l.6-.812h-1.932l-.495.747a2.217 2.217 0 0 1-.097.138l-.316.447-.503.829-.544.886a8.928 8.928 0 0 1-.92 1.112c-.28.276-.532.475-.757.596-.224.122-.602.183-1.132.183h-.422v-4.938h-1.625zM153.915 644.742l-1.85 4.112-1.706-4.112h3.556zm-2.425 6.605h1.138l5.112-11.415h-1.662l-1.512 3.356h-4.84l-1.412-3.356h-1.668l4.844 11.415zM160.252 651.284h1.625v-9.876h5.108v-1.475h-6.733v11.35zM169.655 651.284h1.625v-11.351h-1.625v11.351zM181.071 644.742l-1.85 4.112-1.706-4.112h3.556zm-2.425 6.605h1.138l5.112-11.415h-1.662l-1.512 3.356h-4.84l-1.41-3.356h-1.67l4.844 11.415z"/><path d="M91.83 625.337h.88c1.253 0 1.541.954 1.541 1.429 0 .773-.49 1.428-1.569 1.428h-.853v-2.857zm-.554 3.354h1.496c1.423 0 2.05-1.017 2.05-1.925 0-.99-.774-1.926-2.044-1.926h-1.502v3.85zM96.122 624.84h-.553v3.851h.553v-3.851zM98.86 627.844c-.327.31-.643.4-.903.4-.355 0-.61-.186-.61-.456 0-.74 1.667-.73 1.667-1.954 0-.605-.458-1.045-1.08-1.045-.417 0-.756.113-1.078.356v.7c.283-.361.638-.56 1.017-.56.429 0 .627.272.627.487 0 .796-1.666.886-1.666 1.942 0 .627.463 1.028 1.169 1.028.293 0 .587-.09.858-.271v-.627zM102.954 627.832c-.473.277-.88.401-1.325.401-.883 0-1.538-.627-1.538-1.474 0-.864.634-1.462 1.56-1.462.434 0 .908.152 1.343.435v-.605a2.833 2.833 0 0 0-1.395-.338c-1.445 0-2.078 1.112-2.078 1.92 0 1.174.886 2.032 2.111 2.032.396 0 .797-.096 1.322-.316v-.593zM105.626 625.297c.864 0 1.502.627 1.502 1.468 0 .847-.638 1.468-1.502 1.468-.858 0-1.497-.62-1.497-1.468 0-.84.64-1.468 1.497-1.468m0 3.444c1.27 0 2.073-.903 2.073-1.976 0-1.039-.78-1.976-2.084-1.976-1.259 0-2.055.932-2.055 1.976 0 1.067.818 1.976 2.066 1.976M109.562 624.806h-.112l-1.666 3.885h.554l1.157-2.705 1.152 2.705h.548l-1.633-3.885zM113.86 628.194h-1.63v-1.163h1.574v-.497h-1.575v-1.197h1.682v-.497h-2.236v3.85h2.185v-.496zM115.12 627.008h.356c.593 0 .762.305.757.627-.006.361-.22.581-.757.581h-.356v-1.208zm.418 1.683c.78 0 1.265-.412 1.265-1.079 0-.446-.23-.779-.643-.943.35-.23.564-.587.858-1.067.164-.265.26-.396.525-.762h-.66l-.509.79c-.508.791-.74.881-1.022.881h-.232v-1.67h-.553v3.85h.971zM123.45 625.337h1.74v-.497h-2.293v3.85h.553v-3.353zM127.911 628.194h-1.631v-1.163h1.575v-.497h-1.575v-1.197h1.682v-.497h-2.236v3.85h2.185v-.496zM129.447 626.472h1.198l-.62 1.395-.578-1.395zm2.502-1.632h-.565l-.514 1.135h-1.637l-.486-1.135h-.564l1.655 3.874h.39l1.721-3.874zM132.995 627.008h.356c.593 0 .762.305.757.627-.006.361-.22.581-.757.581h-.356v-1.208zm.418 1.683c.779 0 1.265-.412 1.265-1.079 0-.446-.231-.779-.643-.943.349-.23.564-.587.858-1.067.164-.265.259-.396.525-.762h-.661l-.508.79c-.508.791-.74.881-1.022.881h-.232v-1.67h-.553v3.85h.97zM139.461 624.84h-.474l-2.575 2.965v-2.965h-.52v3.85h.441l2.608-2.98v2.98h.52v-3.85zM145.792 625.337h1.74v-.497h-2.293v3.85h.553v-3.353zM150.253 628.194h-1.63v-1.163h1.574v-.497h-1.575v-1.197h1.682v-.497h-2.236v3.85h2.185v-.496zM151.79 626.472h1.198l-.622 1.395-.576-1.395zm2.502-1.632h-.565l-.514 1.135h-1.638l-.485-1.135h-.565l1.655 3.874h.39l1.722-3.874zM155.331 625.337h.881c1.253 0 1.541.954 1.541 1.429 0 .773-.49 1.428-1.57 1.428h-.852v-2.857zm-.553 3.354h1.496c1.423 0 2.05-1.017 2.05-1.925 0-.99-.774-1.926-2.044-1.926h-1.502v3.85z" fill="#0078bf"/><path d="M56.054 608.281a226.196 226.196 0 0 1-15.008 48.534 152.104 152.104 0 0 0 5.255 10.125c6.472-16.508 11.872-35.696 14.323-57.876l-4.57-.783z" fill="#004289"/><path d="M67.229 610.097a224.373 224.373 0 0 1-.611 10.716c-1.81 22.317-6.73 41.66-12.608 58.232a138.552 138.552 0 0 1-6.395-9.836c6.763-16.906 12.445-36.66 15.007-59.591l4.607.479zM54.052 607.785a224.231 224.231 0 0 1-14.165 46.524 155.84 155.84 0 0 1-4.171-10.171 225.933 225.933 0 0 0 13.75-37.191l4.586.839z" fill="#0078bf"/><path d="M73.903 610.892c.405 9.656.18 18.844-.527 27.56-1.596 19.674-5.623 36.953-10.3 51.862a119.095 119.095 0 0 1-7.603-9.253c7.053-19.523 12.831-42.954 13.792-70.596l4.638.427zM47.483 606.374a224.077 224.077 0 0 1-12.754 35.008 150.196 150.196 0 0 1-3.12-10.056 226.175 226.175 0 0 0 11.363-26.279l4.51 1.327zM34.563 602.185a224.207 224.207 0 0 1-6.353 12.902 119.841 119.841 0 0 1-1.015-9.69c.99-1.687 1.969-3.406 2.936-5.154l4.432 1.942z" fill="#004289"/><path d="M40.997 604.472a224.888 224.888 0 0 1-10.177 23.831 138.655 138.655 0 0 1-2.082-9.883 226.884 226.884 0 0 0 7.77-15.566l4.49 1.618z" fill="#0078bf"/><path d="M68.755 609.706c13.429 1.684 26.079 1.694 36.684.335-10.353 2.039-23.124 2.539-36.774 1.063-22.161-2.396-40.946-9.381-50.318-17.73 10.827 7.42 29.158 13.666 50.408 16.332"/></g></svg>